<?xml version="1.0" encoding="utf-8"?>
<!-- Generator: Adobe Illustrator 16.0.0, SVG Export Plug-In . SVG Version: 6.00 Build 0)  -->
<!DOCTYPE svg PUBLIC "-//W3C//DTD SVG 1.1//EN" "http://www.w3.org/Graphics/SVG/1.1/DTD/svg11.dtd">
<svg version="1.1" id="Layer_1" xmlns="http://www.w3.org/2000/svg" xmlns:xlink="http://www.w3.org/1999/xlink" x="0px" y="0px"
	 width="480px" height="480px" viewBox="0 0 480 480" enable-background="new 0 0 480 480" xml:space="preserve">
<g>
	<path fill-rule="evenodd" clip-rule="evenodd" fill="#FFFFFF" d="M239.945,389.786c0.115-0.622,0.099-0.886,0.209-1.078
		c3.406-5.89,7.149-11.584,9.531-18.043c1.385-3.754,3.455-7.248,4.966-10.962c1.776-4.368,3.29-8.847,4.894-13.288
		c0.439-1.219,0.854-2.457,1.169-3.715c0.944-3.773,1.963-7.535,2.708-11.348c0.727-3.712,1.043-7.504,1.734-11.223
		c0.633-3.407,2.428-4.238,5.592-2.883c0.727,0.312,1.489,0.768,2.237,0.773c5.66,0.047,11.321,0.016,16.981-0.021
		c14.457-0.097,28.913-0.193,43.369-0.32c5.559-0.049,7.35-1.982,7.154-7.615c-0.029-0.826-0.088-1.67-0.286-2.465
		c-2.063-8.261-1.823-16.643-1.443-25.049c0.158-3.532,0-7.08-0.067-10.619c-0.073-3.896-0.221-7.789-0.313-11.684
		c-0.057-2.459-0.067-4.918-0.109-7.377c-0.012-0.705-0.135-1.418-0.076-2.116c0.244-2.988,0.158-5.915-1.115-8.715
		c-0.145-0.311,0.121-0.807,0.206-1.269c9.647,4.08,33.003,37.28,33.649,44.516c-1.025-0.604-1.885-1.197-2.814-1.637
		c-3.094-1.466-6.195-2.922-9.336-4.283c-1.327-0.576-2.488,0.086-2.789,1.356c-0.149,0.628,0.498,1.794,1.119,2.188
		c1.49,0.942,3.143,1.663,4.793,2.309c2.654,1.034,5.095,2.145,4.219,5.637c3.74,1,3.76,0.982,7.676,5.573
		c0.95,1.115,1.967,1.624,3.416,1.216c1.348-0.38,1.707-1.307,1.981-2.602c0.63-2.969,0.924-6.055,2.91-8.623
		c0.719-0.926,0.985-2.559-0.396-3.072c-2.106-0.778-2.047-2.448-2.159-4.025c-0.151-2.125-0.059-4.268-0.037-6.402
		c0.016-1.506-0.084-2.941-1.985-3.207c-1.534-0.214-2.989,1.156-3.279,3.049c-0.153,1.006-0.212,2.028-0.382,3.721
		c-2.254-3.334-4.09-6.132-6.012-8.872c-3.045-4.347-6.141-8.657-9.225-12.978c-1.033-1.443-2.043-2.904-3.147-4.289
		c-1.836-2.303-3.335-5.203-5.705-6.68c-4.573-2.853-7.654-7.384-12.285-10.068c-0.351-0.203-0.739-0.783-0.695-1.137
		c0.257-2.124-1.07-4.516,1.095-6.354c0.35-0.297,0.398-1.068,0.41-1.625c0.131-5.446,0.139-10.895,0.355-16.336
		c0.134-3.341,0.146-6.558-2.664-8.956c6.762-5.283,29.149-11.596,35.801-9.863c-3.775,0.981-4.293,4.125-6.289,6.808
		c2.332,0.292,3.969-0.062,5.469-1.116c4.748-3.34,9.989-5.29,15.782-5.862c2.917-0.289,3.619-1.575,2.937-4.375
		c-0.344-1.411-1.12-2.338-2.365-2.884c-2.006-0.879-3.74-2.021-4.787-4.041c-0.592-1.139-1.629-1.522-2.669-0.772
		c-1.325,0.957-2.479,0.413-3.672-0.081c-1.747-0.724-3.482-1.479-5.188-2.292c-1.156-0.547-2.275-0.871-3.219,0.245
		c-0.892,1.051-0.758,2.259,0.029,3.276c0.557,0.717,1.33,1.284,2.066,1.841c0.779,0.592,1.625,1.092,2.941,1.962
		c-1.756,0.581-2.953,1.419-3.932,1.214c-2.496-0.521-4.631,0.766-6.926,0.898c-7.867,0.455-14.802,3.803-21.912,6.654
		c-1.219,0.489-2.398,1.526-3.885,0.704c0.703-1.743,1.696-3.3,1.924-4.96c0.501-3.625,0.73-7.3,0.846-10.961
		c0.09-2.832,0.1-5.715-0.336-8.501c-0.443-2.843-2.475-3.388-4.484-1.374c-1.09,1.092-2.104,1.804-3.717,1.343
		c-0.49-0.141-1.109,0.035-1.639,0.185c-1.559,0.442-3.08,1.272-4.652,1.362c-5.525,0.314-11.074,0.581-16.604,0.458
		c-2.611-0.059-5.14-0.216-7.665,0.566c-0.606,0.188-1.32,0.028-2.107,0.028c0-0.651-0.092-1.127,0.014-1.553
		c1.771-7.146,4.211-14.027,8.158-20.303c1.752-2.785,3.519-5.562,5.203-8.388c2.982-5.014,6.527-9.578,10.794-13.562
		c0.55-0.514,1.275-0.84,2.612-1.697c-0.471,1.495-0.598,2.269-0.945,2.927c-0.66,1.245-1.508,2.391-2.167,3.636
		c-0.977,1.852-0.755,2.864,0.644,3.585c1.378,0.71,2.723,0.191,3.195-1.678c0.732-2.9,2.657-4.969,4.385-7.206
		c1.372-1.778,2.763-3.543,4.115-5.334c0.961-1.271,1.734-2.576,0.631-4.198c-1.064-1.564-2.237-2.561-4.389-2.282
		c-3.988,0.519-8.014,0.787-12.027,1.103c-2.433,0.192-4.873,0.281-7.658,0.436c0.113,1.6,0.203,2.836,0.307,4.28
		c2.491,0.407,4.751,0.776,7.371,1.205c-1.359,2.311-2.537,4.275-4.375,5.856c-1.229,1.058-2.6,2.229-3.229,3.652
		c-1.647,3.71-4.033,6.836-6.441,10.052c-2.153,2.874-3.567,6.315-5.198,9.56c-0.793,1.574-1.383,3.258-1.99,4.918
		c-0.764,2.08-1.621,4.146-2.131,6.292c-0.707,2.968-1.033,6.038-2.609,8.395c-1.687,0-3.061-0.082-4.424,0.016
		c-3.653,0.258-7.297,0.729-10.954,0.871c-6.987,0.271-13.981,0.389-20.974,0.541c-4.02,0.089-8.04,0.171-12.061,0.159
		c-2.536-0.007-4.392-1.062-4.552-3.049c-0.146-1.811-1.163-2.802-2.273-3.732c-2.697-2.258-5.414-4.431-7.926-6.958
		c-4.048-4.073-8.576-7.72-13.177-11.183c-5.734-4.314-11.626-8.436-17.399-12.697c-6.813-5.03-14.418-8.582-21.666-12.8
		c-4.076-2.374-8.886-3.385-12.419-6.786c-0.521-0.502-1.565-0.426-2.332-0.712c-2.642-0.984-5.265-2.017-7.901-3.015
		c-1.315-0.499-2.616-1.09-3.976-1.414c-3.685-0.878-7.443-1.464-10.754-3.517c-0.669-0.414-1.552-0.501-2.346-0.697
		c-2.183-0.542-4.349-1.219-6.564-1.559c-6.394-0.98-12.734-2.598-19.294-1.94c-3.252,0.326-6.505,0.641-10.153,1.001
		c-0.196-3.511-0.244-6.561-0.586-9.578c-0.168-1.476-0.563-3.129-1.422-4.278c-1.615-2.157-3.366-4.425-5.566-5.876
		c-2.696-1.777-5.49-3.898-9.016-3.796c-3.55,0.103-7.102,0.337-10.64,0.657c-5.448,0.493-9.554,3.01-12.078,8.042
		c-1.161,2.313-2.894,4.337-4.061,6.646c-0.995,1.971-1.822,4.111-2.223,6.271c-0.357,1.927,0.355,4.068-0.083,5.957
		c-0.937,4.024,0.381,7.189,2.931,10.085c3.853,4.373,7.646,8.75,13.96,9.675c5.002,0.732,9.959,2.487,14.869-0.358
		c1.634-0.946,3.462-1.584,5.023-2.63c4.181-2.802,7.256-6.427,7.946-11.653c0.107-0.807,0.374-1.593,0.555-2.338
		c3.999-1.966,8.054-3.198,12.426-2.732c4.459,0.475,8.974,0.806,13.332,1.785c5.748,1.291,11.504,2.785,17.009,4.854
		c8.274,3.109,16.391,6.665,24.462,10.277c5.059,2.262,10.122,4.645,14.813,7.565c7.337,4.565,14.413,9.559,21.5,14.513
		c4.168,2.915,8.361,5.86,12.157,9.224c5.219,4.625,10.082,9.652,15.067,14.539c0.461,0.453,0.696,1.136,1.383,2.3
		c-13.508,0.245-26.497,0.48-39.497,0.294c-13.109-0.187-26.226,1.274-39.003-0.517c-1.11,1.355-1.99,2.318-2.738,3.373
		c-0.844,1.189-1.721,2.763-0.23,3.767c2.051,1.383,2.088,3.279,2.155,5.28c0.088,2.602,0.11,5.208,0.144,7.81
		c0.126,9.828,0.236,19.657,0.376,29.486c0.077,5.446,0.273,10.893,0.289,16.34c0.03,10.179-0.073,20.358-0.032,30.537
		c0.012,3.076,0.499,6.156,0.451,9.229c-0.151,9.707-0.454,19.41-0.697,29.115c-0.012,0.473,0.102,0.986-0.041,1.417
		c-1.354,4.094,0.695,7.82,0.88,11.46c4.388,2.309,8.667,2.604,13.081,1.865c0.463-0.076,0.946-0.053,1.419-0.063
		c10.427-0.256,20.853-0.549,31.281-0.752c10.77-0.211,21.552-0.091,32.306-0.601c5.54-0.263,11.076,0.577,16.604-0.298
		c2.199-0.348,4.463-0.332,6.697-0.361c0.986-0.012,1.976,0.278,3.231,0.471c-0.253,1.439-0.37,2.481-0.623,3.488
		c-1.788,7.122-3.724,14.207-5.384,21.357c-2.834,12.197-7.117,23.838-13.123,34.813c-1.669,3.051-3.34,6.217-5.781,8.262
		c-2.345-1.855-4.289-3.68-6.503-5.078c-3.615-2.282-6.027-0.99-6.52,3.272c-0.502,4.349-0.707,8.752-1.528,13.038
		c-0.72,3.75-1.245,7.68-4.355,10.603c-1.054,0.989-1.597,2.628-2.107,4.063c-0.583,1.641,0.657,2.822,2.304,2.322
		c0.43-0.131,0.757-0.585,1.186-0.743c1.793-0.656,3.418-1.259,5.578-1.163c3.583,0.158,7.232-0.873,10.829-1.542
		c1.325-0.248,2.447-0.985,1.919-2.848c-1.689-0.479-3.203-0.222-4.716,0.708c-1.694,1.04-3.512,0.969-5.929,0.171
		c1.314-1.247,2.213-2.322,3.32-3.101c1.739-1.223,3.574-2.326,5.449-3.333c3.02-1.619,6.082-3.163,9.167-4.659
		c3.818-1.854,4.037-3.707,0.65-6.353C242.118,391.366,241.064,390.618,239.945,389.786z M183.83,452.524
		c3.907-0.26,7.282-1.652,10.747-2.944c4.568-1.702,7.95-4.575,10.048-8.913c1.545-3.193,2.799-6.527,4.368-9.709
		c2.349-4.762,2.348-9.583,0.672-14.479c-0.919-2.683-2.052-5.291-3.002-7.966c-2.505-7.043-10.213-13.514-18.95-12.689
		c-4.685,0.442-9.53,0.646-13.399,3.93c-3.421,2.901-6.82,5.83-10.163,8.822c-4.192,3.75-5.416,8.819-5.427,14.09
		c-0.007,3.508,1.049,7.004,1.382,10.527c0.735,7.764,4.755,12.918,11.986,15.647c1.882,0.712,3.776,1.403,5.697,2.005
		C179.783,451.469,181.815,451.97,183.83,452.524z M331.089,381.452c-0.618,6.093,2.269,10.984,6.927,15.143
		c1.217,1.088,2.367,2.335,3.248,3.701c3.676,5.703,10.912,6.93,16.313,2.429c0.77-0.641,1.738-1.19,2.702-1.425
		c3.374-0.82,6.484-2.023,9.299-4.189c8.332-6.404,12.524-14.434,9.944-25.041c-1.082-4.445-2.707-8.762-4.176-13.105
		c-0.25-0.744-0.821-1.52-1.463-1.969c-4.881-3.426-10.068-5.679-16.276-4.4c-5.407,1.112-10.411,3.207-15.192,5.861
		c-1.635,0.908-3.4,1.953-4.498,3.398C333.63,367.491,330.23,373.54,331.089,381.452z M401.603,204.137
		c-1.538,0-3.077,0.032-4.616-0.007c-3.65-0.089-6.645,1.461-9.281,3.783c-1.951,1.719-3.744,3.616-5.674,5.359
		c-2.059,1.861-2.965,4.177-3.178,6.893c-0.223,2.83-0.477,5.665-0.934,8.462c-0.522,3.185-0.127,6.106,1.658,8.829
		c1.166,1.777,2.126,3.711,3.441,5.366c2.771,3.484,6.039,6.68,10.705,6.848c4.451,0.161,8.992-0.23,13.389-0.986
		c8.061-1.385,16.982-13.524,16.547-21.715c-0.072-1.369-0.055-2.903,0.48-4.112c1.57-3.554,1.326-7.27-1.385-10.006
		c-2.907-2.937-6.254-5.338-10.021-7.14C409.17,204.004,405.389,204.111,401.603,204.137z M355.971,119.728
		c6.758-0.214,6.785-0.169,11.385-3.095c6.447-4.101,9.916-10.357,11.871-17.45c2.139-7.761-0.947-14.868-4.475-21.313
		c-3.447-6.295-9.77-8.87-17.059-9.032c-4.402-0.099-8.316,1.547-12.412,2.596c-2.837,0.727-5.234,2.209-7.297,4.223
		c-2.287,2.234-4.455,4.591-6.756,6.813c-1.127,1.088-1.412,2.354-0.571,3.492c1.796,2.431,1.355,5.144,1.501,7.849
		c0.189,3.522,0.447,7.076,1.164,10.516c0.33,1.591,1.48,3.588,2.834,4.28c3.768,1.931,6.779,4.738,9.856,7.472
		C349.231,118.939,352.873,120.097,355.971,119.728z M406.289,414.935c-0.457,0.771-0.76,1.052-0.729,1.283
		c0.035,0.264,0.377,0.482,0.584,0.721c0.225-0.285,0.574-0.548,0.639-0.867C406.834,415.811,406.545,415.483,406.289,414.935z"/>
	<path fill-rule="evenodd" clip-rule="evenodd" d="M239.945,389.786c1.119,0.832,2.173,1.58,3.188,2.376
		c3.387,2.646,3.168,4.499-0.65,6.353c-3.084,1.496-6.146,3.04-9.167,4.659c-1.875,1.007-3.71,2.11-5.449,3.333
		c-1.106,0.778-2.006,1.854-3.32,3.101c2.417,0.798,4.235,0.869,5.929-0.171c1.514-0.93,3.027-1.188,4.716-0.708
		c0.527,1.862-0.594,2.6-1.919,2.848c-3.597,0.669-7.247,1.7-10.829,1.542c-2.16-0.096-3.785,0.507-5.578,1.163
		c-0.429,0.158-0.756,0.612-1.186,0.743c-1.647,0.5-2.886-0.682-2.304-2.322c0.51-1.436,1.053-3.074,2.107-4.063
		c3.11-2.923,3.636-6.853,4.355-10.603c0.821-4.286,1.026-8.689,1.528-13.038c0.492-4.263,2.905-5.555,6.52-3.272
		c2.214,1.398,4.158,3.223,6.503,5.078c2.441-2.045,4.112-5.211,5.781-8.262c6.005-10.975,10.289-22.615,13.123-34.813
		c1.66-7.15,3.596-14.235,5.384-21.357c0.253-1.007,0.37-2.049,0.623-3.488c-1.256-0.192-2.245-0.482-3.231-0.471
		c-2.234,0.029-4.498,0.014-6.697,0.361c-5.527,0.875-11.064,0.035-16.604,0.298c-10.754,0.51-21.536,0.39-32.306,0.601
		c-10.428,0.203-20.854,0.496-31.281,0.752c-0.474,0.01-0.956-0.014-1.419,0.063c-4.414,0.738-8.692,0.443-13.081-1.865
		c-0.185-3.64-2.234-7.366-0.88-11.46c0.143-0.431,0.028-0.944,0.041-1.417c0.243-9.705,0.546-19.408,0.697-29.115
		c0.048-3.072-0.438-6.152-0.451-9.229c-0.041-10.179,0.063-20.358,0.032-30.537c-0.016-5.447-0.212-10.894-0.289-16.34
		c-0.14-9.829-0.25-19.658-0.376-29.486c-0.034-2.602-0.056-5.208-0.144-7.81c-0.067-2-0.104-3.896-2.155-5.28
		c-1.491-1.004-0.613-2.578,0.23-3.767c0.749-1.055,1.628-2.018,2.738-3.373c12.778,1.791,25.895,0.33,39.003,0.517
		c13,0.186,25.989-0.05,39.497-0.294c-0.687-1.164-0.922-1.847-1.383-2.3c-4.985-4.887-9.848-9.914-15.067-14.539
		c-3.796-3.364-7.989-6.31-12.157-9.224c-7.087-4.955-14.164-9.948-21.5-14.513c-4.692-2.92-9.754-5.303-14.813-7.565
		c-8.072-3.612-16.188-7.167-24.462-10.277c-5.504-2.069-11.261-3.564-17.009-4.854c-4.358-0.979-8.873-1.311-13.332-1.785
		c-4.372-0.466-8.427,0.766-12.426,2.732c-0.181,0.745-0.447,1.531-0.555,2.338c-0.69,5.226-3.765,8.852-7.946,11.653
		c-1.561,1.046-3.389,1.684-5.023,2.63c-4.91,2.845-9.867,1.09-14.869,0.358c-6.314-0.925-10.107-5.302-13.96-9.675
		c-2.55-2.896-3.868-6.061-2.931-10.085c0.439-1.888-0.274-4.03,0.083-5.957c0.401-2.16,1.228-4.3,2.223-6.271
		c1.167-2.31,2.9-4.334,4.061-6.646c2.524-5.032,6.63-7.55,12.078-8.042c3.539-0.319,7.09-0.554,10.64-0.657
		c3.525-0.102,6.319,2.019,9.016,3.796c2.201,1.451,3.952,3.72,5.566,5.876c0.859,1.149,1.254,2.803,1.422,4.278
		c0.343,3.017,0.39,6.066,0.586,9.578c3.648-0.36,6.901-0.675,10.153-1.001c6.56-0.658,12.9,0.96,19.294,1.94
		c2.216,0.339,4.381,1.017,6.564,1.559c0.793,0.196,1.676,0.283,2.346,0.697c3.311,2.052,7.07,2.639,10.754,3.517
		c1.36,0.324,2.661,0.915,3.976,1.414c2.637,0.998,5.259,2.03,7.901,3.015c0.767,0.286,1.811,0.21,2.332,0.712
		c3.533,3.401,8.343,4.412,12.419,6.786c7.248,4.219,14.853,7.771,21.666,12.8c5.773,4.261,11.665,8.382,17.399,12.697
		c4.601,3.463,9.129,7.11,13.177,11.183c2.512,2.527,5.229,4.7,7.926,6.958c1.111,0.93,2.127,1.921,2.273,3.732
		c0.16,1.987,2.016,3.042,4.552,3.049c4.021,0.012,8.041-0.07,12.061-0.159c6.992-0.152,13.986-0.269,20.974-0.541
		c3.657-0.142,7.301-0.613,10.954-0.871c1.363-0.098,2.737-0.016,4.424-0.016c1.576-2.356,1.902-5.426,2.609-8.395
		c0.51-2.146,1.367-4.212,2.131-6.292c0.607-1.66,1.197-3.344,1.99-4.918c1.631-3.245,3.045-6.686,5.198-9.56
		c2.408-3.216,4.794-6.341,6.441-10.052c0.63-1.422,2.001-2.594,3.229-3.652c1.838-1.581,3.016-3.545,4.375-5.856
		c-2.62-0.429-4.88-0.798-7.371-1.205c-0.104-1.443-0.193-2.68-0.307-4.28c2.785-0.154,5.226-0.243,7.658-0.436
		c4.014-0.316,8.039-0.584,12.027-1.103c2.151-0.279,3.324,0.718,4.389,2.282c1.104,1.622,0.33,2.927-0.631,4.198
		c-1.353,1.791-2.743,3.556-4.115,5.334c-1.728,2.237-3.652,4.305-4.385,7.206c-0.473,1.869-1.817,2.388-3.195,1.678
		c-1.398-0.721-1.62-1.733-0.644-3.585c0.659-1.246,1.507-2.392,2.167-3.636c0.348-0.658,0.475-1.432,0.945-2.927
		c-1.337,0.857-2.063,1.183-2.612,1.697c-4.267,3.984-7.812,8.547-10.794,13.562c-1.685,2.827-3.451,5.603-5.203,8.388
		c-3.947,6.275-6.388,13.156-8.158,20.303c-0.105,0.426-0.014,0.902-0.014,1.553c0.787,0,1.501,0.16,2.107-0.028
		c2.525-0.782,5.054-0.625,7.665-0.566c5.53,0.123,11.079-0.144,16.604-0.458c1.572-0.09,3.094-0.92,4.652-1.362
		c0.529-0.149,1.148-0.325,1.639-0.185c1.613,0.461,2.627-0.25,3.717-1.343c2.01-2.015,4.041-1.47,4.484,1.374
		c0.436,2.786,0.426,5.669,0.336,8.501c-0.115,3.661-0.345,7.336-0.846,10.961c-0.228,1.66-1.221,3.217-1.924,4.96
		c1.486,0.822,2.666-0.215,3.885-0.704c7.11-2.851,14.045-6.199,21.912-6.654c2.295-0.133,4.43-1.419,6.926-0.898
		c0.979,0.205,2.176-0.633,3.932-1.214c-1.316-0.87-2.162-1.37-2.941-1.962c-0.736-0.557-1.51-1.124-2.066-1.841
		c-0.787-1.018-0.921-2.225-0.029-3.276c0.943-1.115,2.063-0.792,3.219-0.245c1.706,0.813,3.441,1.567,5.188,2.292
		c1.192,0.494,2.347,1.038,3.672,0.081c1.04-0.75,2.077-0.367,2.669,0.772c1.047,2.02,2.781,3.162,4.787,4.041
		c1.245,0.546,2.021,1.473,2.365,2.884c0.683,2.799-0.02,4.086-2.937,4.375c-5.793,0.573-11.034,2.522-15.782,5.862
		c-1.5,1.055-3.137,1.409-5.469,1.116c1.996-2.683,2.514-5.827,6.289-6.808c-6.651-1.733-29.039,4.58-35.801,9.863
		c2.811,2.398,2.798,5.615,2.664,8.956c-0.217,5.441-0.225,10.89-0.355,16.336c-0.012,0.557-0.061,1.327-0.41,1.625
		c-2.165,1.837-0.838,4.23-1.095,6.354c-0.044,0.354,0.345,0.934,0.695,1.137c4.631,2.684,7.712,7.216,12.285,10.068
		c2.37,1.477,3.869,4.377,5.705,6.68c1.104,1.385,2.114,2.846,3.147,4.289c3.084,4.32,6.18,8.631,9.225,12.978
		c1.922,2.74,3.758,5.538,6.012,8.872c0.17-1.692,0.229-2.715,0.382-3.721c0.29-1.893,1.745-3.263,3.279-3.049
		c1.901,0.266,2.001,1.701,1.985,3.207c-0.021,2.135-0.114,4.277,0.037,6.402c0.112,1.577,0.053,3.247,2.159,4.025
		c1.382,0.514,1.115,2.146,0.396,3.072c-1.986,2.568-2.28,5.654-2.91,8.623c-0.274,1.295-0.634,2.222-1.981,2.602
		c-1.449,0.408-2.466-0.101-3.416-1.216c-3.916-4.591-3.936-4.573-7.676-5.573c0.876-3.492-1.564-4.603-4.219-5.637
		c-1.65-0.646-3.303-1.366-4.793-2.309c-0.621-0.395-1.269-1.561-1.119-2.188c0.301-1.271,1.462-1.933,2.789-1.356
		c3.141,1.361,6.242,2.817,9.336,4.283c0.93,0.439,1.789,1.033,2.814,1.637c-0.646-7.235-24.002-40.436-33.649-44.516
		c-0.085,0.462-0.351,0.958-0.206,1.269c1.273,2.8,1.359,5.727,1.115,8.715c-0.059,0.698,0.064,1.411,0.076,2.116
		c0.042,2.459,0.053,4.918,0.109,7.377c0.092,3.895,0.239,7.787,0.313,11.684c0.067,3.539,0.226,7.087,0.067,10.619
		c-0.38,8.406-0.62,16.788,1.443,25.049c0.198,0.795,0.257,1.639,0.286,2.465c0.195,5.633-1.596,7.566-7.154,7.615
		c-14.456,0.127-28.912,0.224-43.369,0.32c-5.66,0.037-11.321,0.068-16.981,0.021c-0.748-0.006-1.511-0.462-2.237-0.773
		c-3.164-1.355-4.959-0.524-5.592,2.883c-0.691,3.719-1.008,7.511-1.734,11.223c-0.745,3.813-1.764,7.574-2.708,11.348
		c-0.314,1.258-0.729,2.496-1.169,3.715c-1.604,4.441-3.117,8.92-4.894,13.288c-1.511,3.714-3.581,7.208-4.966,10.962
		c-2.382,6.459-6.125,12.153-9.531,18.043C240.044,388.9,240.061,389.164,239.945,389.786z M323.602,206.221
		c-1.51,0.978-2.709,1.51-3.59,2.371c-2.45,2.391-4.709,4.977-7.176,7.35c-0.659,0.635-1.951,1.265-2.656,1.024
		c-0.73-0.248-1.546-1.575-1.516-2.398c0.045-1.174,0.555-2.568,1.342-3.434c3.427-3.777,7.049-7.356,11.621-9.81
		c1.131-0.607,2.326-1.361,2.238-2.93c-0.207-3.768-0.298-7.555-0.76-11.294c-0.297-2.398-2.016-3.55-4.451-3.63
		c-1.775-0.059-3.551-0.126-5.326-0.116c-5.557,0.033-11.113,0.121-16.67,0.139c-1.529,0.006-2.502,0.526-2.697,2.145
		c-0.439,3.636-0.914,7.269-1.328,10.908c-0.092,0.816,0.051,1.659,0.021,2.486c-0.057,1.646-1.151,2.216-2.585,2.364
		c-1.349,0.139-1.974-0.765-2.216-1.85c-0.201-0.893-0.173-1.864-0.093-2.788c0.307-3.523,0.704-7.039,1.001-10.563
		c0.063-0.763-0.148-1.55-0.215-2.167c-0.379-0.177-0.484-0.269-0.59-0.269c-9.932,0.05-19.866,0.094-29.799,0.213
		c-0.418,0.005-0.828,0.706-1.672,1.475c1.676,0.125,2.684,0.2,3.844,0.288c0.123,0.7,0.456,1.345,0.285,1.807
		c-1.378,3.737-2.799,7.463-4.346,11.133c-0.268,0.636-1.204,0.989-1.535,1.246c-3.615-1.979-6.908-3.81-10.228-5.585
		c-1.261-0.673-2.903-1.177-2.757-2.873c0.236-2.698-1.646-4.383-2.421-6.62c-2.775,0.231-2.715,2.279-2.729,3.932
		c-0.048,5.922,0.014,11.846,0.152,17.766c0.225,9.709,0.582,19.417,0.804,29.126c0.109,4.719-0.024,9.444,0.075,14.164
		c0.061,2.936,0.887,3.742,3.821,4.09c0.932,0.113,1.893-0.006,2.842,0.004c5.688,0.063,11.375,0.134,17.063,0.197
		c1.035,0.01,2.07,0,2.927,0c0.085-1.608,0.257-2.869,0.187-4.119c-0.072-1.264-0.247-2.559-0.623-3.764
		c-0.915-2.93-2.05-5.795-2.946-8.731c-0.7-2.298,0.511-3.433,2.853-2.747c1.112,0.326,2.133,0.969,3.246,1.298
		c1.884,0.559,2.957,1.627,3.338,3.651c0.822,4.391,1.85,8.742,2.855,13.395c1.047-0.086,2.195-0.239,3.345-0.268
		c4.852-0.119,9.721-0.483,14.547-0.191c3.102,0.186,6.116,0.004,9.171-0.242c3.658-0.293,7.332-0.387,10.981-0.751
		c3.521-0.352,7.019-0.932,10.524-1.423c1.336-0.187,2.159-0.816,2.119-2.324c-0.105-4.022-0.098-8.05-0.264-12.07
		c-0.101-2.426-0.451-2.63-2.986-3.116c-3.105-0.594-6.094-0.347-9.084,0.738c-0.714,0.259-1.899-0.045-2.518-0.534
		c-0.371-0.292-0.112-1.448-0.044-2.208c0.06-0.658,0.372-1.308,0.361-1.958c-0.04-2.118,0.362-2.755,2.437-2.84
		c3.189-0.133,6.38-0.141,9.422,1.129c0.688,0.287,1.486,0.308,2.398,0.482C323.602,220.41,323.602,213.625,323.602,206.221z
		 M172.733,178.575c-1.763-0.328-3.077-0.732-4.403-0.781c-1.89-0.067-3.788,0.149-5.683,0.202
		c-4.041,0.113-4.755,0.783-4.718,4.836c0.146,15.772,0.289,31.545,0.508,47.316c0.167,12.09,0.495,24.183,0.658,36.275
		c0.119,8.771,0.003,17.545,0.148,26.316c0.104,6.357,0.673,12.708,0.207,19.076c-0.076,1.022,0.148,2.066,0.238,3.146
		c0.809,0.176,1.369,0.383,1.938,0.409c4.848,0.237,9.699,0.655,14.547,0.612c12.322-0.111,24.646-0.379,36.965-0.689
		c6.503-0.164,13-0.558,19.502-0.83c4.128-0.173,8.295-0.718,12.379-0.359c5.377,0.474,10.503-0.561,15.778-1.197
		c0.271-1.215,0.497-2.237,0.775-3.495c-1.474-0.776-2.857-2.073-4.324-2.175c-4.461-0.311-8.955-0.262-13.434-0.174
		c-13.496,0.266-26.99,0.613-40.484,0.932c-9.717,0.229-19.435,0.402-29.15,0.715c-2.683,0.088-5.353,0.584-8.092,0.896
		c-1.733-2.656-0.878-5.391-0.735-8.052c0.272-5.075,0.873-10.159,0.744-15.222c-0.144-5.656-0.948-11.293-1.472-17.033
		c1.722-1.906,3.793-2.721,6.659-2.508c6.366,0.473,12.765,0.645,19.151,0.652c6.621,0.008,13.243-0.268,19.859-0.529
		c4.59-0.183,9.234,0.187,13.682-1.627c1.019-0.416,2.632-0.049,3.705,0.49c1.915,0.964,3.818,1.07,5.865,0.935
		c3.771-0.252,7.55-0.384,11.323-0.577c0.71-0.035,1.422-0.102,2.126-0.189c3.642-0.461,7.279-0.977,10.927-1.389
		c3.17-0.358,4.455,0.75,4.543,3.852c0.029,1.061-0.121,2.129-0.207,3.191c-0.601,7.49-0.321,14.957,0.715,22.426
		c0.48-1.334,0.907-2.675,1.084-4.047c0.544-4.215,0.535-8.563,1.6-12.635c1.088-4.152,1.843-8.257,1.74-12.51
		c-0.071-3.014-0.205-6.051-1.154-9.229c-5.017,0-9.754-0.162-14.476,0.049c-4.96,0.219-9.903,0.775-14.849,1.238
		c-2.54,0.236-3.369-0.633-3.297-3.234c0.153-5.437,0.165-10.877,0.272-16.314c0.025-1.294,0.206-2.586,0.313-3.878
		c0.108-1.29,0.319-2.58,0.305-3.87c-0.076-6.624-0.196-13.248-0.326-19.87c-0.171-8.763,0.236-17.569-1.849-26.198
		c-0.056-0.23-0.091-0.466-0.126-0.7c-0.301-1.995,0.72-3.583,2.121-4.6c1.565-1.137,2.5,0.476,3.447,1.514
		c1.016,1.112,2.183,0.911,3.896,0.417c-2.063-2.203-3.757-4.159-5.615-5.946c-1.383-1.332-3.917-1.349-5.058,0.178
		c-1.129,1.512-2.542,1.628-4.053,1.681c-4.723,0.171-9.449,0.235-14.173,0.372c-4.973,0.145-9.945,0.333-14.918,0.496
		c-6.98,0.226-13.962,0.397-20.937,0.709C175.445,177.717,173.996,178.285,172.733,178.575z M169.192,304.917
		c1.585,0.148,2.723,0.307,3.865,0.35c2.606,0.103,5.213,0.17,7.82,0.215c4.731,0.08,9.468,0.297,14.192,0.158
		c5.546-0.165,11.079-0.773,16.625-0.974c9.336-0.334,18.681-0.423,28.017-0.765c4.841-0.177,9.679-0.594,14.503-1.055
		c3.285-0.313,4.23-1.335,4.598-4.727c0.215-1.992,0.144-4.018,0.242-6.023c0.205-4.129,0.717-8.266,0.578-12.381
		c-0.117-3.476-0.974-6.928-1.518-10.498c-4.327-0.129-8.333-0.404-12.332-0.332c-8.157,0.145-16.309,0.504-24.463,0.729
		c-16.21,0.448-32.42,0.859-48.63,1.304c-2.784,0.076-3.319,0.496-3.52,3.324c-0.268,3.775-0.436,7.569-0.431,11.357
		c0.004,3.526,0.34,7.055,0.437,10.584C169.252,298.988,169.192,301.794,169.192,304.917z M320.683,302.839
		c0.374-8.082,0.835-15.507,1.002-22.94c0.069-3.052-0.37-6.137-0.812-9.173c-0.51-3.518-2.176-4.557-5.646-3.977
		c-1.037,0.175-2.109,0.164-3.167,0.177c-3.196,0.04-6.396-0.052-9.585,0.087c-6.128,0.264-12.252,0.652-18.379,0.979
		c-2.937,0.155-5.879,0.26-8.816,0.437c-1.822,0.108-2.723,1.069-2.786,2.968c-0.123,3.667-0.564,7.33-0.526,10.99
		c0.064,6.123,0.402,12.244,0.621,18.365c0.143,3.94,0.571,4.412,4.436,4.504c1.893,0.045,3.789-0.025,5.683-0.084
		c9.8-0.303,19.601-0.542,29.394-0.984C314.879,304.063,317.629,303.337,320.683,302.839z M266.441,314.124
		c1.655,0,2.933,0.1,4.186-0.036c0.789-0.087,1.63-0.904,2.295-0.745c4.195,1.007,8.324,1.475,12.379-0.522
		c0.093-0.046,0.233,0.003,0.352,0.009c4.262,0.132,8.525,0.424,12.785,0.357c8.035-0.125,16.066-0.531,24.102-0.674
		c3.972-0.07,7.751-1.482,12.136-1.377c-1.046-3.578,0.714-7.367-1.683-10.701c-0.277-0.385-0.233-1.211-0.027-1.703
		c1.584-3.791,0.482-7.73,0.635-11.586c0.225-5.682,0.127-11.379-0.015-17.066c-0.118-4.705,0.582-9.448-0.826-14.121
		c-0.367-1.221,0.208-2.75,0.444-4.121c0.278-1.598,0.785-3.164,0.961-4.77c0.204-1.846,0.068-3.73,0.24-5.583
		c0.258-2.788-0.423-4.021-2.971-4.859c-1.424-0.469-2.857-0.902-4.509-1.421c-0.098,0.853-0.286,1.635-0.259,2.408
		c0.161,4.491,0.338,8.983,0.584,13.471c0.131,2.36-0.453,3.238-2.531,3.311c-3.657,0.129-7.315,0.308-10.975,0.324
		c-7.705,0.031-15.41-0.044-23.115-0.046c-4.254-0.001-8.514-0.043-12.766,0.115c-5.48,0.203-6.576,1.607-5.787,7.065
		c0.148,1.037,0.488,2.045,0.759,3.138c3.297,0,6.471,0.103,9.638-0.019c12.639-0.48,25.322-0.252,37.849-2.521
		c1.433-0.261,2.981,0.126,4.7,0.226c0.099,1.35,0.266,2.384,0.232,3.408c-0.178,5.201-0.662,10.408-0.561,15.602
		c0.152,7.752,1.146,15.49-0.773,23.19c-0.658,2.646-1.527,3.146-4.335,2.685c-2.478-0.406-5.181-0.603-7.585-0.037
		c-5.021,1.186-10.048,1.517-15.123,1.096c-4.484-0.373-8.91-0.658-13.428-0.164c-5.117,0.557-10.29,1.264-15.701-0.115
		C267.303,310.308,266.898,312.1,266.441,314.124z M94.138,102.711c-0.187-1.03-0.158-2.055-0.555-2.874
		c-1.794-3.718-3.525-7.487-5.667-11.002c-0.835-1.371-2.544-2.64-4.1-3.068c-7.003-1.927-14.081,1.246-17.368,6.544
		c-0.625,1.006-1.155,2.142-1.999,2.931c-3.308,3.092-3.271,6.849-2.39,10.817c0.359,1.618,0.724,3.242,1.207,4.825
		c0.233,0.762,0.611,1.572,1.158,2.129c2.849,2.896,6.134,5.104,10.101,6.239c3.983,1.139,7.644-1.01,11.512-1.041
		c0.477-0.004,1.002-0.593,1.415-1.002C91.513,113.196,93.335,108.165,94.138,102.711z M295.084,180.855
		c8.037,0,15.463,0.092,22.879-0.081c1.409-0.033,2.816-1.068,4.184-1.724c2.629-1.262,6.199-0.032,6.254,2.327
		c0.037,1.623-0.02,3.473-0.746,4.845c-1.916,3.628-0.883,7.288-1.16,11.649c2.053-1.114,3.497-1.822,4.863-2.659
		c2.627-1.609,3.036-3.931,1.352-6.61c-0.46-0.734-0.952-1.662-0.898-2.466c0.154-2.329,0.643-4.634,0.873-6.961
		c0.133-1.355,0.025-2.734,0.025-4.164c-2.145-0.7-4.021-1.845-5.893-1.833c-7.658,0.044-15.317,0.355-22.965,0.77
		c-1.847,0.101-3.363,0.224-4.92-1.108c-1.497-1.284-2.484-0.793-2.896,1.258C295.625,176.161,295.438,178.27,295.084,180.855z
		 M254.298,175.048c-0.319,4.787,0.644,6.104,3.749,6.056c9.072-0.139,18.145-0.256,27.217-0.268
		c5.02-0.006,5.167-0.025,5.596-4.911c0.029-0.334-0.103-0.682-0.184-1.173c-0.67-0.118-1.345-0.348-2.016-0.338
		c-5.508,0.088-11.016,0.233-16.523,0.332c-1.173,0.02-2.351-0.149-3.523-0.121C263.822,174.743,259.031,174.905,254.298,175.048z
		 M334.268,232.178c0-2.34,0.515-4.207-0.112-5.535c-1.161-2.46-0.946-4.77-0.524-7.231c0.18-1.038,0.197-2.119,0.162-3.176
		c-0.17-5.258-0.382-10.516-0.593-16.144c-1.462,0.858-2.618,1.639-3.86,2.241c-2.326,1.127-3.136,2.864-2.952,5.449
		c0.264,3.768,0.203,7.56,0.253,11.341c0.037,2.719-0.051,5.44,0.086,8.153c0.043,0.832,0.426,2.06,1.032,2.372
		C329.605,230.602,331.639,231.195,334.268,232.178z M247.874,177.463c0.638-2.659-1.168-2.145-2.159-2.485
		C246.276,175.624,246.839,176.27,247.874,177.463z"/>
	<path fill-rule="evenodd" clip-rule="evenodd" d="M183.83,452.524c-2.015-0.555-4.047-1.056-6.041-1.68
		c-1.92-0.602-3.814-1.293-5.697-2.005c-7.231-2.729-11.251-7.884-11.986-15.647c-0.333-3.523-1.39-7.02-1.382-10.527
		c0.011-5.271,1.235-10.34,5.427-14.09c3.342-2.992,6.742-5.921,10.163-8.822c3.869-3.283,8.714-3.487,13.399-3.93
		c8.737-0.824,16.445,5.646,18.95,12.689c0.951,2.675,2.083,5.283,3.002,7.966c1.676,4.896,1.677,9.718-0.672,14.479
		c-1.568,3.182-2.822,6.516-4.368,9.709c-2.099,4.338-5.48,7.211-10.048,8.913C191.112,450.872,187.737,452.265,183.83,452.524z
		 M199.453,419.626c-0.468-1.516-0.923-3.465-1.664-5.298c-1.876-4.638-9.63-8.5-14.266-6.76
		c-6.495,2.435-12.017,6.298-14.765,13.017c-1.021,2.5-1.382,5.263-2.191,7.859c-0.841,2.701-0.11,5.009,1.782,6.837
		c3.147,3.04,6.374,6.018,9.775,8.763c2.479,2.002,5.433,1.87,8.463,1.047c4.134-1.125,6.374-4.219,8.524-7.521
		C198.579,432.241,198.203,426.03,199.453,419.626z"/>
	<path fill-rule="evenodd" clip-rule="evenodd" d="M331.089,381.452c-0.858-7.912,2.541-13.961,6.827-19.598
		c1.098-1.445,2.863-2.49,4.498-3.398c4.781-2.654,9.785-4.749,15.192-5.861c6.208-1.278,11.396,0.975,16.276,4.4
		c0.642,0.449,1.213,1.225,1.463,1.969c1.469,4.344,3.094,8.66,4.176,13.105c2.58,10.607-1.612,18.637-9.944,25.041
		c-2.814,2.166-5.925,3.369-9.299,4.189c-0.964,0.234-1.933,0.784-2.702,1.425c-5.4,4.501-12.637,3.274-16.313-2.429
		c-0.881-1.366-2.031-2.613-3.248-3.701C333.357,392.437,330.471,387.545,331.089,381.452z M355.598,394.954
		c3.677,0.936,6.983-0.885,10.004-2.915c6.988-4.698,10.264-12.36,6.938-19.903c-1.376-3.121-3.068-6.131-4.884-9.024
		c-2.536-4.046-7.4-5.333-11.832-3.464c-1.518,0.641-3.054,1.416-4.65,1.647c-3.154,0.457-5.402,2.278-6.479,4.923
		c-2.387,5.867-4.827,11.661-2.346,18.43C344.934,391.69,347.855,394.506,355.598,394.954z"/>
	<path fill-rule="evenodd" clip-rule="evenodd" d="M401.603,204.137c3.786-0.025,7.567-0.133,11.132,1.572
		c3.768,1.802,7.114,4.204,10.021,7.14c2.711,2.736,2.955,6.452,1.385,10.006c-0.535,1.209-0.553,2.743-0.48,4.112
		c0.436,8.191-8.486,20.33-16.547,21.715c-4.396,0.756-8.938,1.147-13.389,0.986c-4.666-0.168-7.934-3.363-10.705-6.848
		c-1.315-1.655-2.275-3.589-3.441-5.366c-1.785-2.722-2.181-5.644-1.658-8.829c0.457-2.797,0.711-5.632,0.934-8.462
		c0.213-2.716,1.119-5.032,3.178-6.893c1.93-1.744,3.723-3.641,5.674-5.359c2.637-2.322,5.631-3.873,9.281-3.783
		C398.525,204.168,400.064,204.137,401.603,204.137z M414.881,228.567c0-1.26,0-2.088,0-2.917c-0.01-4.203-1.619-7.252-5.866-8.652
		c-2.569-0.846-5.028-2.028-7.562-2.993c-6.287-2.396-12.5-0.308-15.727,5.525c-0.939,1.699-1.245,3.782-1.668,5.725
		c-1.491,6.871,2.674,15.252,8.684,17.755c1.029,0.428,2.248,0.672,3.352,0.596c3.063-0.207,6.104-0.691,9.165-0.943
		c2.009-0.164,3.554-1.017,4.959-2.422C413.58,236.88,415.404,232.969,414.881,228.567z"/>
	<path fill-rule="evenodd" clip-rule="evenodd" d="M355.971,119.728c-3.098,0.37-6.739-0.789-9.958-3.648
		c-3.077-2.733-6.089-5.541-9.856-7.472c-1.354-0.692-2.504-2.689-2.834-4.28c-0.717-3.44-0.975-6.994-1.164-10.516
		c-0.146-2.705,0.295-5.417-1.501-7.849c-0.841-1.138-0.556-2.404,0.571-3.492c2.301-2.222,4.469-4.579,6.756-6.813
		c2.063-2.014,4.46-3.496,7.297-4.223c4.096-1.049,8.01-2.695,12.412-2.596c7.289,0.163,13.611,2.737,17.059,9.032
		c3.527,6.445,6.613,13.552,4.475,21.313c-1.955,7.093-5.424,13.349-11.871,17.45C362.756,119.559,362.729,119.514,355.971,119.728z
		 M338.037,91.79c-0.621,4.468,1.361,8.176,4.725,11.393c1.352,1.293,2.521,2.804,3.625,4.324c2.842,3.909,6.19,6.557,11.408,5.089
		c0.217-0.062,0.463-0.109,0.682-0.076c3.529,0.529,6.159-1.078,8.236-3.667c1.4-1.743,2.455-3.759,3.801-5.549
		c2.352-3.131,2.712-6.702,2.531-10.419c-0.283-5.748-3.297-9.894-7.576-13.462c-2.043-1.703-4.243-2.544-6.766-2.678
		c-2.01-0.106-4.033-0.022-6.045,0.08C345.893,77.167,336.367,83.832,338.037,91.79z"/>
	<path fill-rule="evenodd" clip-rule="evenodd" d="M406.289,414.935c0.256,0.549,0.545,0.876,0.494,1.137
		c-0.064,0.319-0.414,0.582-0.639,0.867c-0.207-0.238-0.549-0.457-0.584-0.721C405.529,415.986,405.832,415.705,406.289,414.935z"/>
	<path fill-rule="evenodd" clip-rule="evenodd" fill="#FFFFFF" d="M323.602,206.221c0,7.404,0,14.188,0,21.307
		c-0.912-0.175-1.711-0.195-2.398-0.482c-3.042-1.27-6.232-1.262-9.422-1.129c-2.074,0.085-2.477,0.722-2.437,2.84
		c0.011,0.65-0.302,1.3-0.361,1.958c-0.068,0.759-0.327,1.916,0.044,2.208c0.618,0.489,1.804,0.793,2.518,0.534
		c2.99-1.085,5.979-1.333,9.084-0.738c2.535,0.485,2.886,0.69,2.986,3.116c0.166,4.02,0.158,8.047,0.264,12.07
		c0.04,1.508-0.783,2.138-2.119,2.324c-3.506,0.491-7.004,1.071-10.524,1.423c-3.649,0.364-7.323,0.458-10.981,0.751
		c-3.055,0.246-6.069,0.428-9.171,0.242c-4.826-0.292-9.695,0.072-14.547,0.191c-1.149,0.028-2.298,0.182-3.345,0.268
		c-1.006-4.653-2.033-9.004-2.855-13.395c-0.381-2.024-1.454-3.092-3.338-3.651c-1.113-0.329-2.134-0.972-3.246-1.298
		c-2.342-0.686-3.553,0.449-2.853,2.747c0.896,2.937,2.031,5.802,2.946,8.731c0.376,1.205,0.551,2.5,0.623,3.764
		c0.07,1.25-0.102,2.511-0.187,4.119c-0.856,0-1.892,0.01-2.927,0c-5.688-0.063-11.375-0.134-17.063-0.197
		c-0.949-0.01-1.91,0.109-2.842-0.004c-2.934-0.348-3.76-1.154-3.821-4.09c-0.099-4.72,0.034-9.445-0.075-14.164
		c-0.222-9.709-0.579-19.417-0.804-29.126c-0.138-5.92-0.2-11.844-0.152-17.766c0.014-1.653-0.046-3.701,2.729-3.932
		c0.776,2.237,2.658,3.921,2.421,6.62c-0.146,1.695,1.496,2.199,2.757,2.873c3.319,1.776,6.612,3.606,10.228,5.585
		c0.331-0.257,1.268-0.609,1.535-1.246c1.547-3.67,2.968-7.396,4.346-11.133c0.171-0.461-0.162-1.106-0.285-1.807
		c-1.16-0.087-2.168-0.162-3.844-0.288c0.844-0.769,1.254-1.47,1.672-1.475c9.933-0.119,19.867-0.163,29.799-0.213
		c0.105,0,0.211,0.092,0.59,0.269c0.066,0.618,0.277,1.404,0.215,2.167c-0.297,3.524-0.694,7.04-1.001,10.563
		c-0.08,0.924-0.108,1.895,0.093,2.788c0.242,1.085,0.867,1.988,2.216,1.85c1.434-0.148,2.528-0.718,2.585-2.364
		c0.029-0.828-0.113-1.67-0.021-2.486c0.414-3.64,0.889-7.272,1.328-10.908c0.195-1.619,1.168-2.138,2.697-2.145
		c5.557-0.018,11.113-0.106,16.67-0.139c1.775-0.01,3.551,0.057,5.326,0.116c2.436,0.08,4.154,1.232,4.451,3.63
		c0.462,3.739,0.553,7.526,0.76,11.294c0.088,1.569-1.107,2.323-2.238,2.93c-4.572,2.454-8.194,6.033-11.621,9.81
		c-0.787,0.866-1.297,2.259-1.342,3.434c-0.03,0.824,0.785,2.151,1.516,2.398c0.705,0.24,1.997-0.389,2.656-1.024
		c2.467-2.373,4.726-4.959,7.176-7.35C320.893,207.731,322.092,207.199,323.602,206.221z"/>
	<path fill-rule="evenodd" clip-rule="evenodd" fill="#FFFFFF" d="M172.733,178.575c1.263-0.29,2.712-0.858,4.185-0.923
		c6.975-0.312,13.957-0.483,20.937-0.709c4.973-0.163,9.946-0.351,14.918-0.496c4.724-0.137,9.45-0.201,14.173-0.372
		c1.51-0.053,2.923-0.169,4.053-1.681c1.142-1.527,3.675-1.51,5.058-0.178c1.858,1.787,3.552,3.743,5.615,5.946
		c-1.712,0.494-2.879,0.694-3.896-0.417c-0.948-1.038-1.882-2.651-3.447-1.514c-1.401,1.018-2.421,2.605-2.121,4.6
		c0.035,0.234,0.07,0.469,0.126,0.7c2.085,8.629,1.678,17.435,1.849,26.198c0.13,6.623,0.25,13.247,0.326,19.87
		c0.014,1.29-0.197,2.58-0.305,3.87c-0.107,1.292-0.287,2.583-0.313,3.878c-0.107,5.437-0.119,10.877-0.272,16.314
		c-0.072,2.602,0.757,3.471,3.297,3.234c4.946-0.463,9.889-1.02,14.849-1.238c4.722-0.211,9.459-0.049,14.476-0.049
		c0.949,3.178,1.083,6.215,1.154,9.229c0.103,4.253-0.652,8.357-1.74,12.51c-1.064,4.072-1.056,8.42-1.6,12.635
		c-0.177,1.372-0.604,2.713-1.084,4.047c-1.036-7.469-1.315-14.936-0.715-22.426c0.086-1.063,0.236-2.131,0.207-3.191
		c-0.088-3.102-1.373-4.21-4.543-3.852c-3.647,0.412-7.285,0.928-10.927,1.389c-0.704,0.088-1.416,0.154-2.126,0.189
		c-3.773,0.193-7.553,0.325-11.323,0.577c-2.047,0.136-3.95,0.029-5.865-0.935c-1.072-0.539-2.686-0.906-3.705-0.49
		c-4.448,1.813-9.092,1.444-13.682,1.627c-6.616,0.262-13.239,0.537-19.859,0.529c-6.386-0.008-12.786-0.18-19.151-0.652
		c-2.865-0.213-4.937,0.602-6.659,2.508c0.524,5.74,1.328,11.377,1.472,17.033c0.129,5.063-0.471,10.146-0.744,15.222
		c-0.143,2.661-0.999,5.396,0.735,8.052c2.739-0.313,5.409-0.809,8.092-0.896c9.715-0.313,19.433-0.486,29.15-0.715
		c13.495-0.318,26.989-0.666,40.484-0.932c4.479-0.088,8.973-0.137,13.434,0.174c1.467,0.102,2.851,1.398,4.324,2.175
		c-0.278,1.258-0.505,2.28-0.775,3.495c-5.275,0.637-10.401,1.671-15.778,1.197c-4.084-0.358-8.251,0.187-12.379,0.359
		c-6.501,0.272-12.999,0.666-19.502,0.83c-12.32,0.311-24.643,0.578-36.965,0.689c-4.848,0.043-9.7-0.375-14.547-0.612
		c-0.569-0.026-1.129-0.233-1.938-0.409c-0.089-1.08-0.313-2.124-0.238-3.146c0.466-6.368-0.102-12.719-0.207-19.076
		c-0.145-8.771-0.029-17.545-0.148-26.316c-0.164-12.092-0.491-24.185-0.658-36.275c-0.219-15.771-0.361-31.544-0.508-47.316
		c-0.037-4.053,0.677-4.723,4.718-4.836c1.895-0.053,3.793-0.27,5.683-0.202C169.656,177.842,170.97,178.247,172.733,178.575z
		 M166.23,197.734c-0.146,3.099,0.694,6.501-2.413,8.914c-0.248,0.193-0.02,1.384,0.322,1.881c0.814,1.182,1.986,1.294,3.442,1.117
		c3.979-0.484,7.987-0.911,11.992-0.995c13.221-0.276,26.445-0.409,39.668-0.53c1.002-0.01,2.04,0.425,3.006,0.797
		c2.329,0.898,4.79-0.673,4.557-3.056c-0.208-2.111-0.514-4.218-0.913-6.301c-0.891-4.665-1.693-9.269-0.307-14.031
		c0.727-2.498-0.345-3.271-3.107-2.974c-3.527,0.382-7.06,0.771-10.601,0.958c-14.404,0.759-28.785,0.5-43.123-1.22
		c-2.054-0.246-3.188,0.498-3.594,2.471c-0.186,0.9-0.124,1.878-0.023,2.806C165.511,190.963,166.388,194.371,166.23,197.734z
		 M164.196,250.327c2.371,4.585,2.367,4.535,7.056,4.217c2.472-0.168,4.968-0.295,7.437-0.143c2.928,0.18,5.835,0.703,8.755,1.043
		c3.254,0.375,5.593-1.581,5.858-4.909c0.095-1.173,0.113-2.357,0.082-3.535c-0.156-5.907-0.354-11.813-0.505-17.72
		c-0.042-1.655,0.109-3.317,0.015-4.967c-0.117-2.044-1.224-3.379-3.179-3.625c-3.008-0.38-5.955-1.137-9.102-0.173
		c-1.953,0.598-4.213,0.292-6.331,0.23c-3.016-0.09-6.026-0.328-9.564-0.533c-0.069,1.99-0.3,3.714-0.156,5.406
		c0.491,5.771,1.136,11.528,1.678,17.295C166.49,245.569,166.183,248.122,164.196,250.327z M200.288,249.964
		c0.163,4.096,1.135,4.902,5.295,4.656c3.658-0.218,7.329-0.315,10.994-0.299c2.284,0.01,4.647,1.148,6.703-0.88
		c0.251-0.246,1.094,0.085,1.659,0.175c2.329,0.355,2.804-0.135,3.233-2.32c0.788-4.002,0.304-7.979,0.058-11.961
		c-0.307-4.95-0.741-9.872,0.813-14.736c0.602-1.886-0.766-3.535-2.786-3.544c-3.074-0.012-6.148,0.097-9.22,0.209
		c-0.692,0.025-1.373,0.301-2.065,0.414c-1.257,0.206-2.538,0.608-3.775,0.513c-2.465-0.192-4.921-0.593-7.356-1.037
		c-3.509-0.641-5.341,1.137-4.168,4.486c1.995,5.708,2.181,11.578,2.063,17.501c-0.02,0.933-0.23,1.87-0.433,2.788
		C201.004,247.283,200.63,248.622,200.288,249.964z"/>
	<path fill-rule="evenodd" clip-rule="evenodd" fill="#FFFFFF" d="M169.192,304.917c0-3.123,0.061-5.929-0.016-8.732
		c-0.097-3.529-0.432-7.058-0.437-10.584c-0.004-3.788,0.163-7.582,0.431-11.357c0.201-2.828,0.736-3.248,3.52-3.324
		c16.209-0.444,32.42-0.855,48.63-1.304c8.154-0.226,16.306-0.585,24.463-0.729c3.999-0.072,8.005,0.203,12.332,0.332
		c0.544,3.57,1.4,7.022,1.518,10.498c0.139,4.115-0.373,8.252-0.578,12.381c-0.099,2.006-0.027,4.031-0.242,6.023
		c-0.367,3.392-1.313,4.414-4.598,4.727c-4.824,0.461-9.662,0.878-14.503,1.055c-9.335,0.342-18.68,0.431-28.017,0.765
		c-5.547,0.2-11.08,0.809-16.625,0.974c-4.724,0.139-9.46-0.078-14.192-0.158c-2.607-0.045-5.214-0.112-7.82-0.215
		C171.915,305.224,170.777,305.065,169.192,304.917z"/>
	<path fill-rule="evenodd" clip-rule="evenodd" fill="#FFFFFF" d="M320.683,302.839c-3.054,0.498-5.804,1.225-8.583,1.348
		c-9.793,0.442-19.594,0.682-29.394,0.984c-1.894,0.059-3.79,0.129-5.683,0.084c-3.864-0.092-4.293-0.563-4.436-4.504
		c-0.219-6.121-0.557-12.242-0.621-18.365c-0.038-3.66,0.403-7.323,0.526-10.99c0.063-1.898,0.964-2.859,2.786-2.968
		c2.938-0.177,5.88-0.281,8.816-0.437c6.127-0.326,12.251-0.715,18.379-0.979c3.189-0.139,6.389-0.047,9.585-0.087
		c1.058-0.013,2.13-0.002,3.167-0.177c3.471-0.58,5.137,0.459,5.646,3.977c0.441,3.036,0.881,6.121,0.812,9.173
		C321.518,287.332,321.057,294.757,320.683,302.839z"/>
	<path fill-rule="evenodd" clip-rule="evenodd" fill="#FFFFFF" d="M266.441,314.124c0.457-2.024,0.861-3.816,1.307-5.783
		c5.411,1.379,10.584,0.672,15.701,0.115c4.518-0.494,8.943-0.209,13.428,0.164c5.075,0.421,10.102,0.09,15.123-1.096
		c2.404-0.565,5.107-0.369,7.585,0.037c2.808,0.461,3.677-0.039,4.335-2.685c1.92-7.7,0.926-15.438,0.773-23.19
		c-0.102-5.193,0.383-10.4,0.561-15.602c0.033-1.024-0.134-2.059-0.232-3.408c-1.719-0.1-3.268-0.486-4.7-0.226
		c-12.526,2.269-25.21,2.04-37.849,2.521c-3.167,0.121-6.341,0.019-9.638,0.019c-0.271-1.093-0.61-2.101-0.759-3.138
		c-0.789-5.458,0.307-6.862,5.787-7.065c4.252-0.158,8.512-0.116,12.766-0.115c7.705,0.002,15.41,0.077,23.115,0.046
		c3.659-0.017,7.317-0.195,10.975-0.324c2.078-0.072,2.662-0.95,2.531-3.311c-0.246-4.487-0.423-8.979-0.584-13.471
		c-0.027-0.773,0.161-1.556,0.259-2.408c1.651,0.52,3.085,0.952,4.509,1.421c2.548,0.838,3.229,2.071,2.971,4.859
		c-0.172,1.853-0.036,3.737-0.24,5.583c-0.176,1.605-0.683,3.172-0.961,4.77c-0.236,1.371-0.812,2.9-0.444,4.121
		c1.408,4.673,0.708,9.416,0.826,14.121c0.142,5.688,0.239,11.385,0.015,17.066c-0.152,3.855,0.949,7.795-0.635,11.586
		c-0.206,0.492-0.25,1.318,0.027,1.703c2.396,3.334,0.637,7.123,1.683,10.701c-4.385-0.105-8.164,1.307-12.136,1.377
		c-8.035,0.143-16.066,0.549-24.102,0.674c-4.26,0.066-8.523-0.226-12.785-0.357c-0.118-0.006-0.259-0.055-0.352-0.009
		c-4.055,1.997-8.184,1.529-12.379,0.522c-0.665-0.159-1.506,0.658-2.295,0.745C269.374,314.224,268.097,314.124,266.441,314.124z"
		/>
	<path fill-rule="evenodd" clip-rule="evenodd" fill="#FFFFFF" d="M94.138,102.711c-0.803,5.454-2.625,10.485-6.686,14.499
		c-0.413,0.409-0.938,0.998-1.415,1.002c-3.868,0.031-7.529,2.18-11.512,1.041c-3.967-1.135-7.252-3.343-10.101-6.239
		c-0.547-0.557-0.925-1.367-1.158-2.129c-0.483-1.583-0.848-3.207-1.207-4.825c-0.881-3.968-0.918-7.726,2.39-10.817
		c0.844-0.789,1.374-1.924,1.999-2.931c3.287-5.298,10.365-8.471,17.368-6.544c1.556,0.428,3.265,1.697,4.1,3.068
		c2.142,3.516,3.874,7.285,5.667,11.002C93.979,100.656,93.951,101.681,94.138,102.711z"/>
	<path fill-rule="evenodd" clip-rule="evenodd" fill="#FFFFFF" d="M295.084,180.855c0.354-2.586,0.541-4.694,0.951-6.757
		c0.412-2.051,1.399-2.542,2.896-1.258c1.557,1.332,3.073,1.208,4.92,1.108c7.647-0.415,15.307-0.726,22.965-0.77
		c1.871-0.012,3.748,1.133,5.893,1.833c0,1.429,0.107,2.808-0.025,4.164c-0.23,2.327-0.719,4.632-0.873,6.961
		c-0.054,0.804,0.438,1.732,0.898,2.466c1.685,2.68,1.275,5.001-1.352,6.61c-1.366,0.837-2.811,1.545-4.863,2.659
		c0.277-4.361-0.756-8.021,1.16-11.649c0.727-1.373,0.783-3.223,0.746-4.845c-0.055-2.358-3.625-3.589-6.254-2.327
		c-1.367,0.656-2.774,1.69-4.184,1.724C310.547,180.948,303.121,180.855,295.084,180.855z"/>
	<path fill-rule="evenodd" clip-rule="evenodd" fill="#FFFFFF" d="M254.298,175.048c4.733-0.143,9.524-0.306,14.315-0.424
		c1.173-0.028,2.351,0.141,3.523,0.121c5.508-0.099,11.016-0.244,16.523-0.332c0.671-0.01,1.346,0.22,2.016,0.338
		c0.081,0.491,0.213,0.839,0.184,1.173c-0.429,4.886-0.576,4.905-5.596,4.911c-9.072,0.012-18.145,0.129-27.217,0.268
		C254.941,181.152,253.979,179.835,254.298,175.048z"/>
	<path fill-rule="evenodd" clip-rule="evenodd" fill="#FFFFFF" d="M334.268,232.178c-2.629-0.983-4.662-1.577-6.509-2.53
		c-0.606-0.313-0.989-1.541-1.032-2.372c-0.137-2.712-0.049-5.434-0.086-8.153c-0.05-3.782,0.011-7.573-0.253-11.341
		c-0.184-2.585,0.626-4.322,2.952-5.449c1.242-0.602,2.398-1.383,3.86-2.241c0.211,5.628,0.423,10.886,0.593,16.144
		c0.035,1.057,0.018,2.138-0.162,3.176c-0.422,2.462-0.637,4.771,0.524,7.231C334.782,227.972,334.268,229.838,334.268,232.178z"/>
	<path fill-rule="evenodd" clip-rule="evenodd" fill="#FFFFFF" d="M247.874,177.463c-1.035-1.193-1.598-1.839-2.159-2.485
		C246.706,175.318,248.512,174.804,247.874,177.463z"/>
	<path fill-rule="evenodd" clip-rule="evenodd" fill="#FFFFFF" d="M199.453,419.626c-1.25,6.404-0.874,12.615-4.342,17.943
		c-2.15,3.303-4.39,6.396-8.524,7.521c-3.03,0.823-5.983,0.955-8.463-1.047c-3.401-2.745-6.628-5.723-9.775-8.763
		c-1.892-1.828-2.624-4.136-1.782-6.837c0.809-2.597,1.17-5.359,2.191-7.859c2.749-6.719,8.27-10.582,14.765-13.017
		c4.636-1.74,12.39,2.122,14.266,6.76C198.53,416.161,198.985,418.11,199.453,419.626z"/>
	<path fill-rule="evenodd" clip-rule="evenodd" fill="#FFFFFF" d="M355.598,394.954c-7.742-0.448-10.664-3.264-13.248-10.307
		c-2.481-6.769-0.041-12.563,2.346-18.43c1.076-2.645,3.324-4.466,6.479-4.923c1.597-0.231,3.133-1.007,4.65-1.647
		c4.432-1.869,9.296-0.582,11.832,3.464c1.815,2.894,3.508,5.903,4.884,9.024c3.325,7.543,0.05,15.205-6.938,19.903
		C362.581,394.069,359.274,395.89,355.598,394.954z"/>
	<path fill-rule="evenodd" clip-rule="evenodd" fill="#FFFFFF" d="M414.881,228.567c0.523,4.402-1.301,8.313-4.663,11.674
		c-1.405,1.405-2.95,2.258-4.959,2.422c-3.062,0.252-6.103,0.736-9.165,0.943c-1.104,0.076-2.322-0.168-3.352-0.596
		c-6.01-2.502-10.175-10.884-8.684-17.755c0.423-1.943,0.729-4.026,1.668-5.725c3.227-5.833,9.439-7.921,15.727-5.525
		c2.533,0.964,4.992,2.146,7.562,2.993c4.247,1.4,5.856,4.449,5.866,8.652C414.881,226.479,414.881,227.307,414.881,228.567z"/>
	<path fill-rule="evenodd" clip-rule="evenodd" fill="#FFFFFF" d="M338.037,91.79c-1.67-7.958,7.855-14.623,14.621-14.966
		c2.012-0.102,4.035-0.187,6.045-0.08c2.522,0.133,4.723,0.975,6.766,2.678c4.279,3.568,7.293,7.714,7.576,13.462
		c0.181,3.718-0.18,7.288-2.531,10.419c-1.346,1.791-2.4,3.807-3.801,5.549c-2.077,2.589-4.707,4.196-8.236,3.667
		c-0.219-0.034-0.465,0.014-0.682,0.076c-5.218,1.468-8.566-1.18-11.408-5.089c-1.104-1.521-2.273-3.031-3.625-4.324
		C339.398,99.965,337.416,96.258,338.037,91.79z"/>
	<path fill-rule="evenodd" clip-rule="evenodd" d="M166.23,197.734c0.158-3.363-0.72-6.771-1.092-10.164
		c-0.101-0.927-0.163-1.906,0.023-2.806c0.405-1.973,1.54-2.717,3.594-2.471c14.337,1.72,28.718,1.979,43.123,1.22
		c3.541-0.187,7.074-0.576,10.601-0.958c2.762-0.298,3.834,0.476,3.107,2.974c-1.387,4.762-0.584,9.366,0.307,14.031
		c0.398,2.083,0.705,4.19,0.913,6.301c0.233,2.383-2.228,3.954-4.557,3.056c-0.966-0.372-2.004-0.807-3.006-0.797
		c-13.223,0.122-26.447,0.254-39.668,0.53c-4.004,0.083-8.012,0.51-11.992,0.995c-1.456,0.177-2.628,0.064-3.442-1.117
		c-0.342-0.497-0.57-1.688-0.322-1.881C166.924,204.235,166.085,200.833,166.23,197.734z M220.814,185.898
		c-17.141,0.198-34.296,0.083-51.483,1.305c0,2.186,0.006,3.926-0.001,5.665c-0.009,1.773-0.005,3.547-0.051,5.319
		c-0.155,6.116,0.62,7.144,6.667,7.26c6.611,0.127,13.231-0.063,19.846-0.179c7.311-0.129,14.619-0.359,21.929-0.489
		c4.614-0.081,5.313-0.896,4.699-5.127C221.794,195.338,221.398,190.99,220.814,185.898z"/>
	<path fill-rule="evenodd" clip-rule="evenodd" d="M164.196,250.327c1.987-2.205,2.294-4.758,2.044-7.414
		c-0.542-5.767-1.187-11.523-1.678-17.295c-0.144-1.692,0.087-3.417,0.156-5.406c3.538,0.205,6.548,0.443,9.564,0.533
		c2.118,0.062,4.378,0.367,6.331-0.23c3.147-0.963,6.093-0.207,9.102,0.173c1.956,0.246,3.063,1.581,3.179,3.625
		c0.094,1.65-0.057,3.313-0.015,4.967c0.151,5.906,0.349,11.813,0.505,17.72c0.031,1.178,0.013,2.362-0.082,3.535
		c-0.265,3.328-2.604,5.284-5.858,4.909c-2.92-0.34-5.827-0.863-8.755-1.043c-2.468-0.152-4.964-0.025-7.437,0.143
		C166.563,254.862,166.566,254.912,164.196,250.327z M168.657,224.96c0,6.788-0.018,13.284,0.018,19.78
		c0.005,1.058,0.183,2.127,0.385,3.169c0.501,2.584,0.825,2.979,3.458,3.148c2.591,0.164,5.235-0.201,7.789,0.151
		c2.38,0.329,4.162-0.14,5.263-2.1c1.173,0.233,2.048,0.409,3.17,0.632c1.821-8.443,1.66-16.5-0.955-24.317
		C181.501,224.462,175.449,223.754,168.657,224.96z"/>
	<path fill-rule="evenodd" clip-rule="evenodd" d="M200.288,249.964c0.343-1.342,0.716-2.681,1.015-4.035
		c0.203-0.918,0.414-1.855,0.433-2.788c0.118-5.924-0.068-11.794-2.063-17.501c-1.173-3.349,0.659-5.127,4.168-4.486
		c2.436,0.444,4.891,0.845,7.356,1.037c1.237,0.096,2.518-0.307,3.775-0.513c0.692-0.113,1.373-0.389,2.065-0.414
		c3.072-0.112,6.146-0.221,9.22-0.209c2.021,0.009,3.388,1.658,2.786,3.544c-1.554,4.865-1.12,9.787-0.813,14.736
		c0.246,3.981,0.729,7.959-0.058,11.961c-0.43,2.186-0.904,2.676-3.233,2.32c-0.565-0.09-1.407-0.421-1.659-0.175
		c-2.056,2.028-4.419,0.89-6.703,0.88c-3.665-0.017-7.336,0.081-10.994,0.299C201.423,254.866,200.45,254.06,200.288,249.964z
		 M223.295,225.354c-1.668-0.089-3.4-0.207-5.135-0.268c-3.188-0.115-6.377-0.243-9.566-0.259c-0.762-0.004-1.913,0.17-2.215,0.668
		c-0.89,1.47-1.957,3.118-2.042,4.742c-0.313,6.008-0.633,12.033,0.609,18.025c0.372,1.799,1.225,2.467,2.796,2.509
		c5.388,0.142,10.792,0.382,15.989-1.479C225.37,243.04,225.174,231.052,223.295,225.354z"/>
	<path fill-rule="evenodd" clip-rule="evenodd" fill="#FFFFFF" d="M220.814,185.898c0.583,5.091,0.98,9.439,1.605,13.754
		c0.614,4.232-0.085,5.047-4.699,5.127c-7.31,0.129-14.618,0.36-21.929,0.489c-6.614,0.116-13.234,0.306-19.846,0.179
		c-6.047-0.116-6.822-1.144-6.667-7.26c0.045-1.772,0.042-3.546,0.051-5.319c0.007-1.738,0.001-3.479,0.001-5.665
		C186.519,185.982,203.674,186.096,220.814,185.898z"/>
	<path fill-rule="evenodd" clip-rule="evenodd" fill="#FFFFFF" d="M168.657,224.96c6.792-1.207,12.844-0.498,19.128,0.463
		c2.614,7.817,2.776,15.874,0.955,24.317c-1.122-0.223-1.997-0.398-3.17-0.632c-1.102,1.96-2.883,2.429-5.263,2.1
		c-2.553-0.353-5.198,0.013-7.789-0.151c-2.633-0.17-2.958-0.564-3.458-3.148c-0.202-1.042-0.38-2.111-0.385-3.169
		C168.64,238.244,168.657,231.749,168.657,224.96z"/>
	<path fill-rule="evenodd" clip-rule="evenodd" fill="#FFFFFF" d="M223.295,225.354c1.879,5.698,2.074,17.686,0.437,23.938
		c-5.197,1.86-10.602,1.62-15.989,1.479c-1.571-0.042-2.424-0.71-2.796-2.509c-1.242-5.992-0.922-12.017-0.609-18.025
		c0.084-1.624,1.151-3.272,2.042-4.742c0.302-0.498,1.453-0.673,2.215-0.668c3.189,0.017,6.377,0.144,9.566,0.259
		C219.895,225.148,221.627,225.266,223.295,225.354z"/>
</g>
<path fill-rule="evenodd" clip-rule="evenodd" fill="#FFFFFF" d="M187.213,374.078c4.086-5.123,8.2-21.735,6.597-26.146
	c-0.527-1.453-2.282-3.418-3.528-3.459c-2.393-0.082-4.266,1.719-4.365,4.396c-0.155,4.133-0.271,8.28-0.063,12.399
	C186.058,365.297,186.686,369.295,187.213,374.078z"/>
<path fill-rule="evenodd" clip-rule="evenodd" fill="#FFFFFF" d="M191.008,391.217c0.404-1.205-1.412-3.158-2.903-6.049
	c-1.998,2.535-3.735,3.85-4.027,5.428"/>
<path fill-rule="evenodd" clip-rule="evenodd" d="M188.876,376.078c-0.527-4.783-1.155-8.781-1.36-12.809
	c-0.208-4.119-0.092-8.267,0.063-12.399c0.1-2.678,1.973-4.479,4.365-4.396c1.246,0.041,3.001,2.006,3.528,3.459
	C197.076,354.343,192.962,370.955,188.876,376.078z"/>
<path fill-rule="evenodd" clip-rule="evenodd" d="M187.048,389.287c-0.496,0.142-2.625-2.548-2.421-3.646
	c0.292-1.578,2.029-2.892,4.027-5.428c1.491,2.891,3.308,4.845,2.903,6.049C191.078,387.682,188.777,388.806,187.048,389.287"/>
<path fill-rule="evenodd" clip-rule="evenodd" fill="#FFFFFF" d="M355.258,47.937c4.086-5.123,8.201-21.735,6.598-26.146
	c-0.527-1.453-2.283-3.418-3.529-3.459c-2.393-0.082-4.266,1.72-4.365,4.396c-0.154,4.134-0.271,8.281-0.063,12.4
	C354.104,39.155,354.73,43.153,355.258,47.937z"/>
<path fill-rule="evenodd" clip-rule="evenodd" fill="#FFFFFF" d="M359.053,65.075c0.404-1.205-1.412-3.158-2.902-6.049
	c-1.998,2.535-3.736,3.85-4.027,5.428"/>
<path fill-rule="evenodd" clip-rule="evenodd" d="M356.922,49.937c-0.527-4.783-1.156-8.781-1.361-12.809
	c-0.207-4.119-0.092-8.266,0.064-12.4c0.1-2.677,1.973-4.479,4.365-4.396c1.246,0.041,3,2.006,3.527,3.459
	C365.121,28.202,361.008,44.813,356.922,49.937z"/>
<path fill-rule="evenodd" clip-rule="evenodd" d="M355.094,63.146c-0.496,0.142-2.625-2.548-2.422-3.646
	c0.293-1.578,2.029-2.892,4.027-5.428c1.492,2.891,3.309,4.845,2.904,6.049C359.123,61.54,356.822,62.664,355.094,63.146"/>
<path fill-rule="evenodd" clip-rule="evenodd" fill="#FFFFFF" d="M404.049,181.212c4.086-5.123,8.201-21.735,6.598-26.146
	c-0.527-1.453-2.283-3.418-3.529-3.459c-2.393-0.082-4.266,1.72-4.365,4.396c-0.154,4.134-0.271,8.281-0.063,12.4
	C402.895,172.431,403.521,176.429,404.049,181.212z"/>
<path fill-rule="evenodd" clip-rule="evenodd" fill="#FFFFFF" d="M407.844,198.351c0.404-1.205-1.412-3.158-2.902-6.049
	c-1.998,2.535-3.736,3.85-4.027,5.428"/>
<path fill-rule="evenodd" clip-rule="evenodd" d="M405.713,183.212c-0.527-4.783-1.156-8.781-1.361-12.809
	c-0.207-4.119-0.092-8.266,0.064-12.4c0.1-2.677,1.973-4.479,4.365-4.396c1.246,0.041,3,2.006,3.527,3.459
	C413.912,161.478,409.799,178.089,405.713,183.212z"/>
<path fill-rule="evenodd" clip-rule="evenodd" d="M403.885,196.421c-0.496,0.142-2.625-2.548-2.422-3.646
	c0.293-1.578,2.029-2.892,4.027-5.428c1.492,2.891,3.309,4.845,2.904,6.049C407.914,194.816,405.613,195.94,403.885,196.421"/>
<path fill-rule="evenodd" clip-rule="evenodd" fill="#FFFFFF" d="M359.471,332.356c4.086-5.123,8.201-21.735,6.598-26.146
	c-0.527-1.453-2.283-3.418-3.529-3.459c-2.393-0.082-4.266,1.719-4.365,4.396c-0.154,4.133-0.271,8.28-0.063,12.399
	C358.316,323.575,358.943,327.573,359.471,332.356z"/>
<path fill-rule="evenodd" clip-rule="evenodd" fill="#FFFFFF" d="M353.107,347.495c0.404-1.205,8.746-1.158,7.256-4.049
	c-1.998,2.535-3.736,3.85-4.027,5.428"/>
<path fill-rule="evenodd" clip-rule="evenodd" d="M361.135,334.356c-0.527-4.783-1.156-8.781-1.361-12.809
	c-0.207-4.119-0.092-8.267,0.064-12.399c0.1-2.678,1.973-4.479,4.365-4.396c1.246,0.041,3,2.006,3.527,3.459
	C369.334,312.621,365.221,329.233,361.135,334.356z"/>
<path fill-rule="evenodd" clip-rule="evenodd" d="M359.307,347.565c-0.496,0.142-2.625-2.548-2.422-3.646
	c0.293-1.578,2.029-2.892,4.027-5.428c1.492,2.891,3.309,4.845,2.904,6.049C363.336,345.96,361.035,347.084,359.307,347.565"/>
</svg>
