<?xml version="1.0" encoding="utf-8"?>
<!-- Generator: Adobe Illustrator 16.0.0, SVG Export Plug-In . SVG Version: 6.00 Build 0)  -->
<!DOCTYPE svg PUBLIC "-//W3C//DTD SVG 1.1//EN" "http://www.w3.org/Graphics/SVG/1.1/DTD/svg11.dtd">
<svg version="1.1" id="Layer_1" xmlns="http://www.w3.org/2000/svg" xmlns:xlink="http://www.w3.org/1999/xlink" x="0px" y="0px"
	 width="480px" height="480px" viewBox="0 0 480 480" enable-background="new 0 0 480 480" xml:space="preserve">
<g>
	<path fill-rule="evenodd" clip-rule="evenodd" fill="#FFFFFF" d="M460.646,448.068c1.921-13.697,0.525-27.431,0.433-41.137
		c-0.102-14.47-0.959-28.93-1.193-43.402c-0.218-13.341-0.329-26.699,0.063-40.034c0.252-8.594-2.142-17.537,2.715-25.723
		c0.861-1.448,0.055-2.896-1.892-2.921c-2.559-0.035-5.278-0.436-7.649,0.261c-11.475,3.371-23.26,5.32-35.058,6.285
		c-15.984,1.311-32.081,1.225-48.125,1.849c-10.154,0.396-20.318,0.797-30.45,1.562c-6.848,0.52-13.637,1.774-20.474,2.494
		c-3.176,0.333-6.06-0.316-8.585-2.84c-5.564-5.554-11.494-10.743-17.159-16.199c-12.062-11.62-24.912-22.471-34.975-36.252
		c0.216-0.479,0.502-1.133,0.801-1.779c2.093-4.551,4.319-9.045,6.217-13.678c0.794-1.938,1.428-4.224,1.199-6.244
		c-0.609-5.404-1.46-10.813-2.757-16.089c-0.581-2.357-2.216-4.594-3.798-6.536c-2.611-3.207-5.491-6.211-8.404-9.152
		c-3.547-3.58-7.314-6.837-12.377-8.246c-3.696-1.029-7.283-2.445-10.949-3.592c-1.761-0.552-3.575-0.968-5.395-1.285
		c-3.248-0.564-6.508-1.079-9.781-1.474c-2.152-0.259-2.998-1.413-2.916-3.452c0.102-2.579,0.104-5.169,0.336-7.736
		c1.383-15.269,0.354-30.734,3.834-45.838c0.92-3.995,0.74-4.162,4.961-4.237c10.464-0.188,20.93-0.266,31.394-0.357
		c6.877-0.062,13.76,0.008,20.633-0.127c7.235-0.142,14.448-0.335,21.949,2.867c0.469-1.298,1.065-2.307,1.171-3.362
		c0.345-3.418,0.803-6.865,0.682-10.283c-0.392-11.184-1.153-22.352-1.521-33.535c-0.671-20.357-1.16-40.722-1.752-61.083
		c-0.033-0.98-0.158-2.016-0.513-2.917c-1.652-4.198-3.379-4.783-7.584-3.065c-1.683,0.688-3.549,1.216-5.35,1.273
		c-9.455,0.295-18.916,0.442-28.376,0.591c-13.759,0.217-27.516,0.425-41.274,0.572c-21.22,0.227-42.438,0.518-63.658,0.533
		c-6.563,0.007-13.13-0.708-19.685-1.247c-3.201-0.265-5.026,1.687-4.276,4.886c2.062,8.807,3.578,17.659,3.208,26.783
		c-0.231,5.73,0.146,11.482-0.011,17.218c-0.119,4.438-0.437,8.89-1.028,13.284c-0.94,6.955-2.142,13.876-3.309,20.8
		c-0.922,5.47-0.96,10.81,1.236,16.065c0.937,2.247,1.126,4.515-0.243,6.985c-1.714,3.095,0.037,5.833,3.596,5.836
		c3.463,0.004,7.018,1.438,10.43-0.545c0.661-0.384,1.69-0.169,2.551-0.171c3.296-0.013,6.595,0.044,9.894-0.006
		c18.079-0.283,36.157-0.597,54.237-0.876c1.51-0.021,3.021,0.14,4.343,0.205c-0.284,7.218-0.46,13.938-0.838,20.647
		c-0.394,7.009-1.021,14.004-1.478,21.009c-0.413,6.345-1.847,12.682,0.071,19.406c-7.203,0.004-13.197,3.183-19.357,5.859
		c-0.526,0.228-1.071,0.406-1.605,0.616c-7.665,3.01-12.897,8.257-15.314,16.261c-1.485,4.925-3.218,9.776-4.897,14.641
		c-2.597,7.535-2.591,14.522,3.32,20.807c2.326,2.476,4.248,5.456,5.832,8.48c3.647,6.975,3.342,4.938-0.34,11.137
		c-1.01,1.701-2.365,3.243-3.76,4.669c-5.601,5.724-11.189,11.465-16.956,17.019c-4.537,4.368-9.225,8.598-14.04,12.658
		c-4.709,3.972-9.665,7.647-14.512,11.453c-2.795,2.194-5.39,4.737-8.443,6.474c-2.309,1.312-2.979,2.819-2.777,5.17
		c0.082,0.959,0.012,1.928,0.012,3.289c-1.5,0.182-2.872,0.464-4.25,0.495c-15.611,0.329-31.224,0.9-46.835,0.835
		c-13.023-0.05-26.112,1.182-39.074-1.266c-2.496-0.47-3.807,0.835-3.774,3.344c0.008,0.713,0.17,1.425,0.291,2.132
		c1.65,9.652,1.461,19.412,1.553,29.149c0.049,5.302-0.511,10.626-0.203,15.906c0.829,14.16,2.296,28.294,2.895,42.463
		c0.43,10.146-0.083,20.335-0.273,30.498c-0.069,3.715-0.384,7.43-0.657,11.138c-0.169,2.269-0.512,4.527-0.703,6.796
		c-0.115,1.399,0.487,2.34,1.758,3.141c2.187,1.378,4.091,3.255,6.98,1.454c0.559-0.347,1.619,0.102,2.444,0.204
		c0.987,0.125,2.066,0.605,2.94,0.355c7.321-2.11,14.838-0.753,22.241-1.206c12.445-0.753,24.951-0.383,37.432-0.638
		c12.902-0.265,25.802-0.791,38.705-1.046c10.743-0.213,21.492-0.322,32.234-0.234c6.84,0.056,13.68,0.472,20.51,0.896
		c4.256,0.263,6.015-1.217,5.99-5.531c-0.003-0.573-0.041-1.146-0.082-1.719c-0.126-1.787,0.564-2.761,2.322-3.57
		c1.697-0.783,3.137-2.294,4.411-3.733c0.498-0.563,0.574-1.967,0.219-2.68c-0.349-0.695-1.436-1.218-2.291-1.417
		c-0.908-0.21-1.927,0.053-3.156,0.123c-0.213-1.294-0.489-2.386-0.558-3.492c-0.247-4.131-0.44-8.265-0.628-12.399
		c-0.37-8.161-0.837-16.317-1.05-24.483c-0.152-5.853,0.167-11.714,0.06-17.568c-0.228-12.598-1.464-25.198,0.669-37.764
		c1.721-10.146,0.263-20.331-0.026-30.483c-0.135-4.72-4.855-6.812-9.196-4.68c-1.632,0.804-3.452,1.507-5.239,1.667
		c-8.686,0.775-17.38,1.479-26.085,1.962c-8.852,0.486-17.722,0.69-26.586,0.986c-0.491,0.014-0.996-0.313-2.129-0.698
		c1.163-1.975,1.883-3.867,3.157-5.249c6.031-6.522,12.023-13.1,18.387-19.29c9.559-9.298,19.399-18.301,29.158-27.388
		c2.143-1.997,4.449-3.818,6.652-5.696c0.712,0.362,1.388,0.493,1.705,0.904c2.875,3.685,7.112,5.198,11.154,6.936
		c5.672,2.44,11.403,5.021,17.724,4.853c6.151-0.168,12.327-0.567,18.417-1.407c5.77-0.797,10.882-3.248,15.008-7.658
		c2.396-2.561,5.254-4.685,8.244-7.298c6.049,4.58,12.235,8.712,17.746,13.606c5.422,4.809,10.063,10.485,15.231,15.595
		c2.721,2.689,5.744,5.092,8.786,7.421c3.534,2.706,6.183,6.072,9.19,10.519c-2.046-0.229-3.154-0.179-4.148-0.491
		c-3.911-1.231-3.879,3.754-6.756,4.246c-0.562,0.097-1.066,1.264-1.337,2.026c-0.158,0.439,0.039,1.229,0.372,1.576
		c1.799,1.878,1.594,4.248,1.641,6.503c0.229,10.616,0.409,21.232,0.532,31.85c0.151,12.761,0.398,25.529,0.302,38.291
		c-0.109,14.871-0.691,29.737-0.786,44.61c-0.067,10.163,0.334,20.331,0.556,30.495c0.059,2.705,1.331,3.946,4.087,3.539
		c4.246-0.626,8.581,0.886,12.78-0.675c0.574-0.214,1.375,0.221,2.077,0.303c0.987,0.123,2.171,0.597,2.933,0.227
		c3.455-1.685,7.067-0.716,10.595-0.886c12.599-0.6,25.205-1.173,37.807-1.615c7.17-0.249,14.351-0.174,21.524-0.337
		c12.457-0.284,24.918-0.599,37.375-0.99c4.28-0.134,8.606-0.188,12.813-0.888c5.393-0.902,10.726-1.798,16.225-1.381
		c5.163,0.395,9.089-1.321,11.285-6.44c0.955-2.227,1.269-3.91-0.444-5.873C461.038,450.623,460.494,449.147,460.646,448.068z
		 M246.959,242.387c-0.481,0.706-1.093,1.302-1.896,1.722c-1.709,0.892-3.529,1.224-5.329,1.138
		c-0.158,0.091-0.325,0.172-0.504,0.242c-3.052,1.193-6.074,1.275-8.753,0.48c-0.41,0.633-0.867,1.229-1.403,1.755
		c-2.939,2.887-10.648,4.26-13.931,1.306c-0.792-0.713-1.331-1.671-1.696-2.745c-3.712,0.862-8.109,0.191-10.707-1.788
		c-0.659-0.502-1.224-1.093-1.705-1.751c-2.428,0.257-4.993-0.062-6.917-0.984c-3.356-1.608-4.089-7.561-3.992-10.742
		c0.055-1.798,0.311-3.417,0.745-4.864c-1.634-4.055-3.16-10.276,1.438-12.216c0.057-0.024,0.126-0.041,0.184-0.064
		c-0.272-1.446-0.091-3.089,0.634-4.855c0.877-2.137,8.306-1.383,9.821-0.306c0.821,0.584,1.613,1.303,2.35,2.115
		c1.148-0.026,2.304,0.07,3.353,0.197c2.778,0.338,4.951,1.166,7.298,2.688c0.06,0.102,0.119,0.204,0.179,0.306
		c-0.06,0.105-0.128,0.196-0.19,0.298c0.698-0.148,1.432-0.261,2.23-0.31c2.881-0.177,5.253,0.195,7.198,1.061
		c0.234-0.149,0.453-0.312,0.707-0.444c4.687-2.446,13.316-2.919,17.412,1.046c3.904,3.78,5.578,9.811,6.041,15.076
		C249.808,233.994,250.248,240.209,246.959,242.387z"/>
	<path fill-rule="evenodd" clip-rule="evenodd" d="M460.646,448.068c1.921-13.697,0.525-27.431,0.433-41.137
		c-0.102-14.47-0.959-28.93-1.193-43.402c-0.218-13.341-0.329-26.699,0.063-40.034c0.252-8.594-2.142-17.537,2.715-25.723
		c0.861-1.448,0.055-2.896-1.892-2.921c-2.559-0.035-5.278-0.436-7.649,0.261c-11.475,3.371-23.26,5.32-35.058,6.285
		c-15.984,1.311-32.081,1.225-48.125,1.849c-10.154,0.396-20.318,0.797-30.45,1.562c-6.848,0.52-13.637,1.774-20.474,2.494
		c-3.176,0.333-6.06-0.316-8.585-2.84c-5.564-5.554-11.494-10.743-17.159-16.199c-12.062-11.62-24.912-22.471-34.975-36.252
		c0.216-0.479,0.502-1.133,0.801-1.779c2.093-4.551,4.319-9.045,6.217-13.678c0.794-1.938,1.428-4.224,1.199-6.244
		c-0.609-5.404-1.46-10.813-2.757-16.089c-0.581-2.357-2.216-4.594-3.798-6.536c-2.611-3.207-5.491-6.211-8.404-9.152
		c-3.547-3.58-7.314-6.837-12.377-8.246c-3.696-1.029-7.283-2.445-10.949-3.592c-1.761-0.552-3.575-0.968-5.395-1.285
		c-3.248-0.564-6.508-1.079-9.781-1.474c-2.152-0.259-2.998-1.413-2.916-3.452c0.102-2.579,0.104-5.169,0.336-7.736
		c1.383-15.269,0.354-30.734,3.834-45.838c0.92-3.995,0.74-4.162,4.961-4.237c10.464-0.188,20.93-0.266,31.394-0.357
		c6.877-0.062,13.76,0.008,20.633-0.127c7.235-0.142,14.448-0.335,21.949,2.867c0.469-1.298,1.065-2.307,1.171-3.362
		c0.345-3.418,0.803-6.865,0.682-10.283c-0.392-11.184-1.153-22.352-1.521-33.535c-0.671-20.357-1.16-40.722-1.752-61.083
		c-0.033-0.98-0.158-2.016-0.513-2.917c-1.652-4.198-3.379-4.783-7.584-3.065c-1.683,0.688-3.549,1.216-5.35,1.273
		c-9.455,0.295-18.916,0.442-28.376,0.591c-13.759,0.217-27.516,0.425-41.274,0.572c-21.22,0.227-42.438,0.518-63.658,0.533
		c-6.563,0.007-13.13-0.708-19.685-1.247c-3.201-0.265-5.026,1.687-4.276,4.886c2.062,8.807,3.578,17.659,3.208,26.783
		c-0.231,5.73,0.146,11.482-0.011,17.218c-0.119,4.438-0.437,8.89-1.028,13.284c-0.94,6.955-2.142,13.876-3.309,20.8
		c-0.922,5.47-0.96,10.81,1.236,16.065c0.937,2.247,1.126,4.515-0.243,6.985c-1.714,3.095,0.037,5.833,3.596,5.836
		c3.463,0.004,7.018,1.438,10.43-0.545c0.661-0.384,1.69-0.169,2.551-0.171c3.296-0.013,6.595,0.044,9.894-0.006
		c18.079-0.283,36.157-0.597,54.237-0.876c1.51-0.021,3.021,0.14,4.343,0.205c-0.284,7.218-0.46,13.938-0.838,20.647
		c-0.394,7.009-1.021,14.004-1.478,21.009c-0.413,6.345-1.847,12.682,0.071,19.406c-7.203,0.004-13.197,3.183-19.357,5.859
		c-0.526,0.228-1.071,0.406-1.605,0.616c-7.665,3.01-12.897,8.257-15.314,16.261c-1.485,4.925-3.218,9.776-4.897,14.641
		c-2.597,7.535-2.591,14.522,3.32,20.807c2.326,2.476,4.248,5.456,5.832,8.48c3.647,6.975,3.342,4.938-0.34,11.137
		c-1.01,1.701-2.365,3.243-3.76,4.669c-5.601,5.724-11.189,11.465-16.956,17.019c-4.537,4.368-9.225,8.598-14.04,12.658
		c-4.709,3.972-9.665,7.647-14.512,11.453c-2.795,2.194-5.39,4.737-8.443,6.474c-2.309,1.312-2.979,2.819-2.777,5.17
		c0.082,0.959,0.012,1.928,0.012,3.289c-1.5,0.182-2.872,0.464-4.25,0.495c-15.611,0.329-31.224,0.9-46.835,0.835
		c-13.023-0.05-26.112,1.182-39.074-1.266c-2.496-0.47-3.807,0.835-3.774,3.344c0.008,0.713,0.17,1.425,0.291,2.132
		c1.65,9.652,1.461,19.412,1.553,29.149c0.049,5.302-0.511,10.626-0.203,15.906c0.829,14.16,2.296,28.294,2.895,42.463
		c0.43,10.146-0.083,20.335-0.273,30.498c-0.069,3.715-0.384,7.43-0.657,11.138c-0.169,2.269-0.512,4.527-0.703,6.796
		c-0.115,1.399,0.487,2.34,1.758,3.141c2.187,1.378,4.091,3.255,6.98,1.454c0.559-0.347,1.619,0.102,2.444,0.204
		c0.987,0.125,2.066,0.605,2.94,0.355c7.321-2.11,14.838-0.753,22.241-1.206c12.445-0.753,24.951-0.383,37.432-0.638
		c12.902-0.265,25.802-0.791,38.705-1.046c10.743-0.213,21.492-0.322,32.234-0.234c6.84,0.056,13.68,0.472,20.51,0.896
		c4.256,0.263,6.015-1.217,5.99-5.531c-0.003-0.573-0.041-1.146-0.082-1.719c-0.126-1.787,0.564-2.761,2.322-3.57
		c1.697-0.783,3.137-2.294,4.411-3.733c0.498-0.563,0.574-1.967,0.219-2.68c-0.349-0.695-1.436-1.218-2.291-1.417
		c-0.908-0.21-1.927,0.053-3.156,0.123c-0.213-1.294-0.489-2.386-0.558-3.492c-0.247-4.131-0.44-8.265-0.628-12.399
		c-0.37-8.161-0.837-16.317-1.05-24.483c-0.152-5.853,0.167-11.714,0.06-17.568c-0.228-12.598-1.464-25.198,0.669-37.764
		c1.721-10.146,0.263-20.331-0.026-30.483c-0.135-4.72-4.855-6.812-9.196-4.68c-1.632,0.804-3.452,1.507-5.239,1.667
		c-8.686,0.775-17.38,1.479-26.085,1.962c-8.852,0.486-17.722,0.69-26.586,0.986c-0.491,0.014-0.996-0.313-2.129-0.698
		c1.163-1.975,1.883-3.867,3.157-5.249c6.031-6.522,12.023-13.1,18.387-19.29c9.559-9.298,19.399-18.301,29.158-27.388
		c2.143-1.997,4.449-3.818,6.652-5.696c0.712,0.362,1.388,0.493,1.705,0.904c2.875,3.685,7.112,5.198,11.154,6.936
		c5.672,2.44,11.403,5.021,17.724,4.853c6.151-0.168,12.327-0.567,18.417-1.407c5.77-0.797,10.882-3.248,15.008-7.658
		c2.396-2.561,5.254-4.685,8.244-7.298c6.049,4.58,12.235,8.712,17.746,13.606c5.422,4.809,10.063,10.485,15.231,15.595
		c2.721,2.689,5.744,5.092,8.786,7.421c3.534,2.706,6.183,6.072,9.19,10.519c-2.046-0.229-3.154-0.179-4.148-0.491
		c-3.911-1.231-3.879,3.754-6.756,4.246c-0.562,0.097-1.066,1.264-1.337,2.026c-0.158,0.439,0.039,1.229,0.372,1.576
		c1.799,1.878,1.594,4.248,1.641,6.503c0.229,10.616,0.409,21.232,0.532,31.85c0.151,12.761,0.398,25.529,0.302,38.291
		c-0.109,14.871-0.691,29.737-0.786,44.61c-0.067,10.163,0.334,20.331,0.556,30.495c0.059,2.705,1.331,3.946,4.087,3.539
		c4.246-0.626,8.581,0.886,12.78-0.675c0.574-0.214,1.375,0.221,2.077,0.303c0.987,0.123,2.171,0.597,2.933,0.227
		c3.455-1.685,7.067-0.716,10.595-0.886c12.599-0.6,25.205-1.173,37.807-1.615c7.17-0.249,14.351-0.174,21.524-0.337
		c12.457-0.284,24.918-0.599,37.375-0.99c4.28-0.134,8.606-0.188,12.813-0.888c5.393-0.902,10.726-1.798,16.225-1.381
		c5.163,0.395,9.089-1.321,11.285-6.44c0.955-2.227,1.269-3.91-0.444-5.873C461.038,450.623,460.494,449.147,460.646,448.068z
		 M160.362,326.811c5.566-0.154,11.134-0.439,16.7-0.456c4.743-0.014,5.417,0.721,5.629,5.474
		c0.673,15.155,1.396,30.31,1.911,45.469c0.28,8.308,0.226,16.629,0.248,24.945c0.041,15.036,0.026,30.072,0.032,45.111
		c0.003,3.556,0,7.11,0,11.051c-5.39,1.733-10.68,1.163-15.906,1.315c-0.713-2.077-1.719-0.383-2.661-0.256
		c-3.262,0.448-6.53,0.943-9.81,1.121c-5.555,0.302-11.118,0.368-16.676,0.552c-18.164,0.59-36.322,1.288-54.485,1.749
		c-14.185,0.363-28.376,0.474-42.565,0.589c-2.076,0.018-4.15-0.61-6.234-0.852c-0.812-0.096-1.649,0.074-2.478,0.084
		c-1.68,0.015-3.359,0.004-5.5,0.004c0.388-2.924,0.72-5.279,1.002-7.645c0.154-1.278,0.354-2.57,0.306-3.848
		c-0.596-15.454-1.446-30.9-1.813-46.359c-0.524-22.073-0.71-44.155-1.027-66.234c-0.038-2.695-0.006-5.391-0.006-8.438
		c4.242-0.225,7.922-0.52,11.604-0.599c25.964-0.556,51.928-1.034,77.888-1.604C131.137,327.661,145.748,327.209,160.362,326.811z
		 M202.134,117.497c-13.894,0.323-27.793,0.496-41.687,0.772c-6.883,0.134-13.764,0.342-20.645,0.555
		c-2.738,0.084-5.322-0.093-7.952-1.268c-2.213-0.989-3.041-2.211-3.006-4.525c0.105-7.168,0.003-14.342,0.133-21.512
		c0.251-13.768,0.562-27.538,0.938-41.306c0.208-7.597,0.606-15.191,0.898-22.788c0.048-1.279,0.009-2.563-0.02-3.845
		c-0.066-2.881,0.37-3.473,3.328-3.875c1.557-0.212,3.147-0.23,4.726-0.248c28.119-0.316,56.238-0.683,84.36-0.896
		c10.734-0.082,21.469,0.219,32.206,0.289c4.289,0.026,8.582-0.195,12.872-0.117c2.266,0.042,4.569,0.276,6.766,0.799
		c2.888,0.687,5.536,0.576,8.106-0.98c0.44-0.267,1.069-0.221,2.348-0.454c0.236,3.028,0.523,5.57,0.618,8.117
		c0.633,16.916,1.296,33.829,1.809,50.748c0.345,11.47,0.466,22.942,0.67,34.413c0.057,3.057-0.949,4.104-4.489,4.4
		c-3.416,0.289-6.844,0.458-10.268,0.549c-12.89,0.343-25.777,0.718-38.663,0.9c-4.858,0.067-9.723-0.567-14.58-0.51
		C214.444,116.786,208.293,117.354,202.134,117.497z M256.271,234.344c-2.634,8.047-6.837,15.194-12.525,21.355
		c-1.936,2.098-4.814,3.566-7.537,4.627c-2.759,1.073-5.845,1.329-8.803,1.868c-10.052,1.83-19.528,0.396-28.482-4.716
		c-0.779-0.446-1.433-0.947-1.994-1.5c-2.887-1.026-5.283-2.728-7.261-4.877c0.006,0.102,0.02,0.197,0.024,0.3
		c0.031,0.709,0.023,1.444-0.063,2.235c-5.426-2.339-8.355-6.144-9.436-10.992c-1.362-6.124-2.465-12.38-2.824-18.627
		c-0.259-4.491,0.597-9.128,1.553-13.57c0.364-1.688,2.3-3.112,3.684-4.491c2.617-2.602,5.521-4.805,9.85-5.996
		c-0.052,0.103-0.085,0.188-0.132,0.285c2.695-1.56,5.933-2.376,9.777-2.116c0.056,0.003,0.106,0.013,0.161,0.019
		c2.034-0.959,4.294-1.482,6.922-1.428c7.226,0.149,14.16,1.107,21.18,2.88c6.378,1.612,11.146,5.674,16.602,8.701
		c0.493,0.275,1.015,0.634,1.322,1.088c3.113,4.594,7.078,8.705,8.363,14.354C257.464,227.297,257.436,230.79,256.271,234.344z
		 M454.89,371.326c-0.197,16.759-0.719,33.51-1.095,50.267c-0.026,1.148-0.201,2.323-0.012,3.438
		c1.286,7.502,0.646,15.066,0.697,22.6c0.02,2.646-0.842,5.301-1.345,8.228c-8.576,0-16.794-0.139-25.004,0.038
		c-8.448,0.184-16.887,0.687-25.327,1.019c-7.306,0.289-14.611,0.518-21.913,0.812c-1.286,0.053-2.602,0.145-3.835,0.472
		c-9.391,2.481-18.994,2.705-28.603,2.689c-9.737-0.018-19.471-0.234-29.206-0.384c-5.822-0.086-11.646-0.201-18.033-0.313
		c-0.306-2.356-0.784-4.414-0.808-6.479c-0.171-16.149-0.224-32.302-0.384-48.456c-0.101-10.588-0.282-21.176-0.495-31.761
		c-0.336-16.726-0.743-33.448-1.081-50.169c-0.041-2.004,0.057-4.021,0.232-6.017c0.261-2.974,1.019-3.757,4.021-3.848
		c9.169-0.273,18.343-0.511,27.518-0.661c16.634-0.275,33.273-0.34,49.903-0.793c5.127-0.144,10.21-1.44,15.343-1.909
		c11.694-1.068,23.404-2.604,35.113-2.648c6.234-0.021,12.507-0.651,18.765-0.104c2.95,0.257,3.823,0.781,3.979,3.794
		c0.467,9.019,0.975,18.041,1.203,27.067C454.802,349.241,455.02,360.288,454.89,371.326z"/>
	<path fill-rule="evenodd" clip-rule="evenodd" fill="#FFFFFF" d="M184.883,458.404c-5.39,1.733-10.68,1.163-15.906,1.315
		c-0.713-2.077-1.719-0.383-2.661-0.256c-3.262,0.448-6.53,0.943-9.81,1.121c-5.555,0.302-11.118,0.368-16.676,0.552
		c-18.164,0.59-36.322,1.288-54.485,1.749c-14.185,0.363-28.376,0.474-42.565,0.589c-2.076,0.018-4.15-0.61-6.234-0.852
		c-0.812-0.096-1.649,0.074-2.478,0.084c-1.68,0.015-3.359,0.004-5.5,0.004c0.388-2.924,0.72-5.279,1.002-7.645
		c0.154-1.278,0.354-2.57,0.306-3.848c-0.596-15.454-1.446-30.9-1.813-46.359c-0.524-22.073-0.71-44.155-1.027-66.234
		c-0.038-2.695-0.006-5.391-0.006-8.438c4.242-0.225,7.922-0.52,11.604-0.599c25.964-0.556,51.928-1.034,77.888-1.604
		c14.615-0.323,29.227-0.775,43.841-1.174c5.566-0.154,11.134-0.439,16.7-0.456c4.743-0.014,5.417,0.721,5.629,5.474
		c0.673,15.155,1.396,30.31,1.911,45.469c0.28,8.308,0.226,16.629,0.248,24.945c0.041,15.036,0.026,30.072,0.032,45.111
		C184.886,450.909,184.883,454.464,184.883,458.404z M144.386,345.962c-9.249,0.715-18.2,1.723-27.176,2.033
		c-16.304,0.568-32.623,0.728-48.936,1.044c-1.001,0.02-2.003-0.086-3.006-0.131c-4.129-0.2-8.256-0.502-12.385-0.525
		c-0.909-0.003-2.361,0.775-2.645,1.537c-0.97,2.607-2.396,5.182-1.001,8.243c0.681,1.498,0.661,3.369,0.744,5.082
		c0.458,9.443,1.064,18.889,1.205,28.34c0.151,10.03-0.205,20.071-0.241,30.107c-0.009,2.652,0.132,5.068-2.745,6.637
		c-1.387,0.755-0.723,2.824,0.908,3.15c0.661,0.134,1.413-0.021,2.094-0.18c1.656-0.387,2.918-0.466,3.822,1.541
		c0.808,1.791,2.591,1.83,4.468,1.313c2.043-0.567,4.176-1.075,6.276-1.114c9.461-0.174,18.922-0.129,28.379-0.243
		c9.747-0.12,19.49-0.377,29.236-0.488c5.292-0.061,10.609-0.237,15.872,0.186c3.974,0.317,5.473-0.838,5.094-4.923
		c-0.597-6.392-1.266-12.789-1.517-19.2c-0.406-10.451-0.412-20.919-0.781-31.373c-0.101-2.782,0.887-4.563,3.045-6.147
		c3.81-2.798,7.464-5.804,11.193-8.708c2.024-1.577,3.906-3.435,6.142-4.623c4.556-2.421,4.638-2.271,3.776-7.072
		c-0.172-0.951-0.373-1.897-0.566-2.883c-1.936-0.438-3.517-0.523-5.072,0.668c-4.764,3.644-9.578,7.222-14.4,10.792
		c-1.203,0.89-2.508,1.639-4.301,2.8c0-2.678-0.203-4.553,0.075-6.356c0.177-1.159,0.837-2.434,1.67-3.271
		C146.058,349.736,146.133,349.813,144.386,345.962z"/>
	<path fill-rule="evenodd" clip-rule="evenodd" fill="#FFFFFF" d="M453.136,455.857c-8.576,0-16.794-0.139-25.004,0.038
		c-8.448,0.184-16.887,0.687-25.327,1.019c-7.306,0.289-14.611,0.518-21.913,0.812c-1.286,0.053-2.602,0.145-3.835,0.472
		c-9.391,2.481-18.994,2.705-28.603,2.689c-9.737-0.018-19.471-0.234-29.206-0.384c-5.822-0.086-11.646-0.201-18.033-0.313
		c-0.306-2.356-0.784-4.414-0.808-6.479c-0.171-16.149-0.224-32.302-0.384-48.456c-0.101-10.588-0.282-21.176-0.495-31.761
		c-0.336-16.726-0.743-33.448-1.081-50.169c-0.041-2.004,0.057-4.021,0.232-6.017c0.261-2.974,1.019-3.757,4.021-3.848
		c9.169-0.273,18.343-0.511,27.518-0.661c16.634-0.275,33.273-0.34,49.903-0.793c5.127-0.144,10.21-1.44,15.343-1.909
		c11.694-1.068,23.404-2.604,35.113-2.648c6.234-0.021,12.507-0.651,18.765-0.104c2.95,0.257,3.823,0.781,3.979,3.794
		c0.467,9.019,0.975,18.041,1.203,27.067c0.277,11.035,0.495,22.082,0.365,33.12c-0.197,16.759-0.719,33.51-1.095,50.267
		c-0.026,1.148-0.201,2.323-0.012,3.438c1.286,7.502,0.646,15.066,0.697,22.6C454.5,450.275,453.639,452.931,453.136,455.857z
		 M363.385,428.947c1.435-0.102,3.121-0.3,4.809-0.321c3.011-0.035,6.025,0.095,9.038,0.055c17.933-0.25,35.866-0.511,53.796-0.84
		c1.17-0.021,2.781-0.285,3.406-1.063c1.526-1.899,3.058-1.598,4.978-0.988c3.363,1.064,6.787,1.93,10.389,2.936
		c1.124-2.01,1.966-3.67-0.226-5.716c-2.153-2.017-3.125-4.733-2.9-7.805c0.146-2.001,0.174-4.017,0.133-6.021
		c-0.047-2.429-0.121-4.864-0.363-7.28c-0.439-4.408-1.43-8.803-1.434-13.2c-0.012-7.861,0.581-15.725,0.828-23.592
		c0.045-1.399-0.411-2.81-0.57-4.223c-0.366-3.251-0.937-6.507-0.972-9.763c-0.036-3.574,0.416-7.155,0.687-10.731
		c0.145-1.894,0.39-3.931-1.55-5.007c-2.087-1.159-4.292-1.471-6.41,0.293c-0.802,0.665-1.936,0.932-3.415,1.609
		c0.168-1.401,0.209-2.228,0.377-3.024c1.063-4.966,1.185-9.909-0.146-14.858c-0.709-2.638-2.487-4.216-4.897-3.658
		c-3.049,0.704-6.057,1.649-8.987,2.746c-0.969,0.36-1.779,1.408-2.428,2.311c-3.395,4.734-5.585,9.984-6.464,15.764
		c-0.243,1.613-0.583,3.176-2.674,3.314c-5.121,0.34-10.237,0.805-15.359,0.977c-2.836,0.098-6.063,0.485-8.446-0.651
		c-3.426-1.631-5.562,1.229-8.498,1.203c-8.016-0.07-16.036,0.575-24.058,0.886c-1.083,0.041-2.172-0.216-3.411-0.356
		c0.813-5.109,1.641-9.881,2.311-14.679c0.767-5.471-0.892-7.071-6.405-6.432c-1.831,0.211-3.774,0.851-5.479,0.463
		c-3.246-0.739-5.639,0.502-7.807,2.485c-4.813,4.402-7.995,9.689-8.06,16.761c-1.486,0.098-2.727,0.162-3.966,0.264
		c-4.168,0.344-6.158,2.799-4.842,6.675c1.741,5.136,2.082,10.361,2.034,15.692c-0.082,9.603-0.104,19.202-0.131,28.804
		c-0.004,2.247-0.041,4.5,0.121,6.74c0.183,2.543,0.871,5.077,0.812,7.603c-0.134,5.581-0.65,11.152-0.911,16.733
		c-0.215,4.628,2.985,7.347,7.564,6.596c1.127-0.185,2.276-0.333,3.418-0.354c8.169-0.162,16.339-0.313,24.507-0.407
		c1.537-0.018,3.079,0.227,4.552,0.347c1.031,2.595,0.069,6.219,4.686,6.248C361.737,433.501,362.487,431.43,363.385,428.947z"/>
	<path fill-rule="evenodd" clip-rule="evenodd" fill="#FFFFFF" d="M285.506,18.098c0.236,3.028,0.523,5.57,0.618,8.117
		c0.633,16.916,1.296,33.829,1.809,50.748c0.345,11.47,0.466,22.942,0.67,34.413c0.057,3.057-0.949,4.104-4.489,4.4
		c-3.416,0.289-6.844,0.458-10.268,0.549c-12.89,0.343-25.777,0.718-38.663,0.9c-4.858,0.067-9.723-0.567-14.58-0.51
		c-6.158,0.07-12.31,0.638-18.469,0.781c-13.894,0.323-27.793,0.496-41.687,0.772c-6.883,0.134-13.764,0.342-20.645,0.555
		c-2.738,0.084-5.322-0.093-7.952-1.268c-2.213-0.989-3.041-2.211-3.006-4.525c0.105-7.168,0.003-14.342,0.133-21.512
		c0.251-13.768,0.562-27.538,0.938-41.306c0.208-7.597,0.606-15.191,0.898-22.788c0.048-1.279,0.009-2.563-0.02-3.845
		c-0.066-2.881,0.37-3.473,3.328-3.875c1.557-0.212,3.147-0.23,4.726-0.248c28.119-0.316,56.238-0.683,84.36-0.896
		c10.734-0.082,21.469,0.219,32.206,0.289c4.289,0.026,8.582-0.195,12.872-0.117c2.266,0.042,4.569,0.276,6.766,0.799
		c2.888,0.687,5.536,0.576,8.106-0.98C283.599,18.285,284.228,18.331,285.506,18.098z M149.552,38.239
		c-1.956,0.042-3.537,0.401-3.548,2.507c-0.016,2.985-0.001,5.986,0.295,8.951c0.927,9.273,1.923,18.544,3.032,27.798
		c0.748,6.247,1.779,12.461,2.588,18.702c0.248,1.918,0.712,3.832-1.67,5.242c-1.607,0.949-1.429,2.871,0.361,4.363
		c2.177,1.815,4.588,3.426,7.093,4.759c3.229,1.72,6.349,1.982,9.087-1.36c0.72-0.877,2.583-1.03,3.948-1.123
		c3.288-0.226,6.593-0.19,9.891-0.313c10.595-0.392,21.186-0.898,31.784-1.173c5.868-0.151,11.749,0.239,17.614,0.101
		c9.59-0.227,19.172-0.772,28.76-0.997c3.42-0.078,6.881,0.162,10.264,0.654c3.639,0.526,5.243-0.855,4.974-4.636
		c-0.433-6.149-0.879-12.304-1.076-18.464c-0.308-9.611-0.349-19.229-0.627-28.84c-0.143-4.865-0.532-9.707,1.126-14.436
		c0.248-0.709,0.039-1.704-0.251-2.453c-1.235-3.174-3.069-4.062-6.838-3.488c-1.966,0.299-3.937,0.869-5.892,0.815
		c-3.417-0.093-6.823-0.759-10.238-0.823c-2.098-0.04-4.211,0.556-6.302,0.936c-2.208,0.402-4.399,1.264-6.603,1.273
		c-9.169,0.036-18.35-0.503-27.508-0.211c-12.743,0.406-25.468,1.356-38.198,2.095C164.183,38.55,156.755,39.655,149.552,38.239z"/>
	<path fill-rule="evenodd" clip-rule="evenodd" fill="none" d="M181.385,224.835c-0.055-9.34,3.161-20.088,10.939-24.59
		c0.047-0.098,0.08-0.183,0.132-0.285c-4.328,1.191-7.232,3.395-9.85,5.996c-1.384,1.379-3.319,2.804-3.684,4.491
		c-0.956,4.442-1.812,9.079-1.553,13.57c0.359,6.247,1.462,12.503,2.824,18.627c1.08,4.849,4.01,8.653,9.436,10.992
		c0.099-0.907,0.093-1.739,0.038-2.535C183.53,244.432,181.435,233.445,181.385,224.835z"/>
	<path fill-rule="evenodd" clip-rule="evenodd" d="M144.386,345.962c1.747,3.851,1.672,3.774-0.771,6.234
		c-0.833,0.838-1.493,2.112-1.67,3.271c-0.278,1.804-0.075,3.679-0.075,6.356c1.793-1.161,3.098-1.91,4.301-2.8
		c4.822-3.57,9.637-7.148,14.4-10.792c1.556-1.191,3.137-1.105,5.072-0.668c0.193,0.985,0.395,1.932,0.566,2.883
		c0.861,4.802,0.779,4.651-3.776,7.072c-2.235,1.188-4.117,3.046-6.142,4.623c-3.729,2.904-7.384,5.91-11.193,8.708
		c-2.158,1.585-3.146,3.365-3.045,6.147c0.369,10.454,0.375,20.922,0.781,31.373c0.251,6.411,0.92,12.809,1.517,19.2
		c0.379,4.085-1.12,5.24-5.094,4.923c-5.263-0.423-10.58-0.246-15.872-0.186c-9.746,0.111-19.489,0.368-29.236,0.488
		c-9.457,0.114-18.918,0.069-28.379,0.243c-2.101,0.039-4.233,0.547-6.276,1.114c-1.877,0.517-3.66,0.478-4.468-1.313
		c-0.904-2.007-2.166-1.928-3.822-1.541c-0.681,0.158-1.433,0.313-2.094,0.18c-1.631-0.326-2.295-2.396-0.908-3.15
		c2.877-1.568,2.736-3.984,2.745-6.637c0.036-10.036,0.393-20.077,0.241-30.107c-0.141-9.451-0.747-18.896-1.205-28.34
		c-0.083-1.713-0.063-3.584-0.744-5.082c-1.395-3.062,0.031-5.636,1.001-8.243c0.283-0.762,1.735-1.54,2.645-1.537
		c4.129,0.023,8.256,0.325,12.385,0.525c1.003,0.045,2.005,0.15,3.006,0.131c16.313-0.316,32.632-0.476,48.936-1.044
		C126.186,347.685,135.137,346.677,144.386,345.962z M138.229,377.118c-1.23,0.557-1.802,0.693-2.226,1.023
		c-7.205,5.646-14.418,11.286-21.568,17c-2.566,2.054-5.096,4.184-7.421,6.501c-3.446,3.431-7.015,6.82-8.217,11.865
		c-0.24,1.006-1.046,1.88-1.909,3.359c-1.487-1.376-2.629-2.337-3.663-3.402c-2.284-2.355-4.168-5.287-6.832-7.046
		c-7.407-4.886-13.039-11.635-19.423-17.588c-1.753-1.631-1.414-2.571,0.597-3.945c0.886-0.604,1.51-1.583,2.354-2.268
		c1.13-0.915,2.359-1.714,3.399-2.457c8.466,6.964,14.201,15.568,20.478,23.308c2.63-1.963,4.677-3.699,6.919-5.125
		c7.652-4.873,14.636-10.536,20.955-17.039c4.199-4.319,8.401-8.64,12.76-12.791c3.859-3.675,4.481-7.003,1.551-12.654
		c-7.231-0.173-14.742-0.341-22.253-0.534c-0.713-0.02-1.418-0.22-2.132-0.267c-7.284-0.468-14.564-1.232-21.854-1.304
		c-9.889-0.094-19.78,0.353-29.673,0.55c-3.547,0.07-5.559,1.899-5.834,5.491c-0.086,1.141,0.042,2.293,0.069,3.442
		c0.368,15.059,0.769,30.114,1.082,45.174c0.112,5.436,0.02,10.875,0.02,16.02c1.719,0.919,2.949,1.36,3.911,2.131
		c2.493,2.001,5.263,2.589,8.419,2.565c8.007-0.067,16.015,0.109,24.023,0.189c2.144,0.02,4.289,0.127,6.426,0.045
		c11.034-0.435,22.063-1.112,33.101-1.313c7.51-0.138,8.074-0.437,7.973-7.902c-0.174-12.759-0.279-25.521-0.455-38.279
		C138.784,380.481,138.478,379.098,138.229,377.118z M82.809,396.518c-2.331-3.315-4.603-6.653-8.506-8.301
		C76.235,391.889,79.48,394.268,82.809,396.518z"/>
	<path fill-rule="evenodd" clip-rule="evenodd" d="M363.385,428.947c-0.897,2.482-1.647,4.554-2.366,6.532
		c-4.616-0.029-3.654-3.653-4.686-6.248c-1.473-0.12-3.015-0.364-4.552-0.347c-8.168,0.094-16.338,0.245-24.507,0.407
		c-1.142,0.021-2.291,0.17-3.418,0.354c-4.579,0.751-7.779-1.968-7.564-6.596c0.261-5.581,0.777-11.152,0.911-16.733
		c0.06-2.525-0.629-5.06-0.812-7.603c-0.162-2.24-0.125-4.493-0.121-6.74c0.027-9.602,0.049-19.201,0.131-28.804
		c0.048-5.331-0.293-10.557-2.034-15.692c-1.316-3.876,0.674-6.331,4.842-6.675c1.239-0.102,2.479-0.166,3.966-0.264
		c0.064-7.071,3.246-12.358,8.06-16.761c2.168-1.983,4.561-3.225,7.807-2.485c1.705,0.388,3.648-0.252,5.479-0.463
		c5.514-0.64,7.172,0.961,6.405,6.432c-0.67,4.798-1.498,9.569-2.311,14.679c1.239,0.141,2.328,0.397,3.411,0.356
		c8.021-0.311,16.042-0.956,24.058-0.886c2.937,0.026,5.072-2.834,8.498-1.203c2.384,1.137,5.61,0.749,8.446,0.651
		c5.122-0.172,10.238-0.637,15.359-0.977c2.091-0.139,2.431-1.701,2.674-3.314c0.879-5.779,3.069-11.029,6.464-15.764
		c0.648-0.902,1.459-1.95,2.428-2.311c2.931-1.097,5.938-2.042,8.987-2.746c2.41-0.558,4.188,1.021,4.897,3.658
		c1.331,4.949,1.21,9.893,0.146,14.858c-0.168,0.797-0.209,1.623-0.377,3.024c1.479-0.678,2.613-0.944,3.415-1.609
		c2.118-1.764,4.323-1.452,6.41-0.293c1.939,1.076,1.694,3.113,1.55,5.007c-0.271,3.576-0.723,7.157-0.687,10.731
		c0.035,3.256,0.605,6.512,0.972,9.763c0.159,1.413,0.615,2.823,0.57,4.223c-0.247,7.867-0.84,15.73-0.828,23.592
		c0.004,4.397,0.994,8.792,1.434,13.2c0.242,2.416,0.316,4.852,0.363,7.28c0.041,2.005,0.014,4.021-0.133,6.021
		c-0.225,3.071,0.747,5.788,2.9,7.805c2.191,2.046,1.35,3.706,0.226,5.716c-3.602-1.006-7.025-1.871-10.389-2.936
		c-1.92-0.609-3.451-0.911-4.978,0.988c-0.625,0.777-2.236,1.041-3.406,1.063c-17.93,0.329-35.863,0.59-53.796,0.84
		c-3.013,0.04-6.027-0.09-9.038-0.055C366.506,428.647,364.819,428.846,363.385,428.947z M380.33,407.067
		c0.424,4.416,0.848,8.233,1.132,12.059c0.141,1.854,0.024,3.723,0.024,5.796c0.441,0.052,1.285,0.245,2.127,0.231
		c9.752-0.16,19.503-0.33,29.255-0.546c3.441-0.075,6.88-0.247,10.314-0.433c1.817-0.099,3.441-0.474,3.51-2.854
		c0.114-3.715,0.337-7.429,0.482-11.145c0.069-1.807-0.717-3.001-2.556-3.44c-6.336-1.518-12.702-1.714-19.135-0.88
		c-1.392,4.525-0.232,8.471,1.286,12.392c1.151,2.972,1.072,3.138-1.852,5.804c-3.613-2.153-3.625-5.528-2.804-8.984
		c0.742-3.133,0.732-6.158-0.033-9.616C394.925,405.241,388.025,406.161,380.33,407.067z M406.038,364.052
		c-6.578,0-12.441-0.004-18.307,0.008c-0.427,0.004-0.852,0.117-1.276,0.19c-1.729,0.302-2.775,1.094-2.935,3.071
		c-0.361,4.569-0.949,9.124-1.374,13.69c-0.086,0.924,0.155,1.878,0.259,2.982c7.38-0.314,14.462-0.615,21.937-0.933
		C405.704,376.987,406.266,370.842,406.038,364.052z M383.949,362.134c2.864,0,5.263,0.021,7.662-0.004
		c4.005-0.046,8.01-0.033,12.008-0.212c3.173-0.142,3.668-0.462,3.876-3.378c0.276-3.838,0.143-7.705,0.151-11.56
		c0.007-2.172-1.274-3.092-3.292-3.055c-5.868,0.103-11.731,0.288-17.6,0.385c-2.065,0.034-2.777,1.23-2.792,3.02
		C383.926,352.173,383.949,357.015,383.949,362.134z M402.218,403.497c0.885-6.271,1.685-11.979,1.637-18.045
		c-6.929-0.484-13.432,0.297-19.935,0.898c-2.081,0.189-2.312,1.896-2.473,3.471c-0.295,2.842-0.538,5.692-0.681,8.547
		c-0.107,2.093-0.021,4.198-0.021,6.571C387.968,404.455,394.905,403.99,402.218,403.497z M341.65,364.543
		c7.213,1.751,13.648-0.297,20.047-0.893c1.418-6.304,1.486-14.302,0.165-18.444c-4.297,0-8.735-0.39-13.066,0.132
		c-3.079,0.372-5.785,2.108-6.026,5.969C342.504,355.562,342.062,359.804,341.65,364.543z M339.701,385.515
		c1.125,0.323,1.528,0.549,1.924,0.534c5.268-0.188,10.53-0.493,15.796-0.589c2.374-0.043,2.805-1.496,3.051-3.307
		c0.512-3.813,1.083-7.621,1.508-11.443c0.148-1.339-0.063-2.718-0.104-3.858c-0.784-0.308-1.062-0.523-1.313-0.495
		c-5.81,0.585-11.628,1.115-17.412,1.896c-0.814,0.11-1.991,1.394-2.095,2.245C340.459,375.422,340.136,380.378,339.701,385.515z
		 M339.292,365.013c0-6.653,0-12.536,0-18.822c-5.413-0.618-10.931-0.581-16.437-0.03c-2.039,0.205-2.814,2.031-2.861,3.769
		c-0.147,5.091-0.053,10.187-0.053,15.084C326.307,365.013,332.362,365.013,339.292,365.013z M404.512,403.603
		c7.241-1.099,13.66-1.985,20.03-3.12c1.016-0.179,2.575-1.424,2.616-2.239c0.22-4.206,0.396-8.457-0.136-13.054
		c-7.104,0-13.728,0-20.78,0C405.696,391.037,405.148,396.8,404.512,403.603z M359.483,388.733c-0.808-0.342-1.32-0.754-1.828-0.742
		c-5.414,0.104-10.829,0.191-16.231,0.524c-0.758,0.045-2.03,1.364-2.06,2.132c-0.187,4.958-0.097,9.923-0.097,14.938
		c6.269,1.36,12.28,1.666,18.668,0.858C358.468,400.359,358.973,394.557,359.483,388.733z M378.204,405.097
		c0.401-6.298,0.777-12.202,1.169-18.396c-6.001-0.618-11.305,0.322-17.143,0.838c-0.447,6.252-1.502,12.205-1.378,18.869
		C366.932,405.947,372.429,405.532,378.204,405.097z M379.326,384.11c1.342-6.397,2.063-12.532,1.296-18.751
		c-4.82,0-9.354-0.08-13.882,0.039c-2.057,0.054-2.312,1.8-2.487,3.412c-0.407,3.687-0.808,7.374-1.197,11.063
		c-0.161,1.514-0.287,3.034-0.467,4.952C368.195,384.587,373.411,384.362,379.326,384.11z M338.915,368.807
		c-2.729,0-4.729,0.146-6.699-0.031c-3.56-0.319-6.762,0.598-9.902,2.167c-1.304,0.653-2.096,1.407-2.081,2.897
		c0.041,3.727,0.073,7.454,0.097,11.182c0.014,2.011,1.133,2.818,3.007,2.777c3.828-0.078,7.655-0.172,11.485-0.277
		c1.369-0.039,2.698-0.339,2.834-1.993C338.111,380.14,338.474,374.744,338.915,368.807z M406.626,383.044
		c6.781-0.742,13.34-1.462,20.45-2.239c0.034-4.089,0.161-7.773,0.061-11.451c-0.098-3.485-0.393-4.002-4.029-4.139
		c-3.683-0.138-7.391,0.521-11.09,0.661c-2.35,0.086-3.227,1.255-3.49,3.431C407.998,373.701,407.323,378.081,406.626,383.044z
		 M338.885,409.01c0.396,5.193,0.693,10.019,1.215,14.816c0.073,0.704,1.214,1.828,1.882,1.846
		c5.39,0.134,10.779,0.052,16.677,0.032c-0.361-6.006-0.682-11.339-1.003-16.694C351.32,409.01,345.507,409.01,338.885,409.01z
		 M361.365,425.531c4.24,0,7.653-0.023,11.063,0.012c2.057,0.015,3.184-0.945,3.511-2.964c0.728-4.489,1.563-8.962,2.196-13.462
		c0.316-2.231-0.442-2.929-2.621-2.67c-4.111,0.484-8.213,1.066-12.315,1.619c-1.818,0.243-2.853,1.217-2.734,3.146
		C360.75,415.894,361.056,420.574,361.365,425.531z M426.363,361.528c1.032-5.536,0.185-10.299-1.01-14.993
		c-0.225-0.892-1.406-1.977-2.315-2.169c-1.9-0.394-3.972-0.573-5.871-0.247c-2.037,0.354-3.958,1.389-6.166,2.215
		c-0.327,4.622-0.685,9.672-1.039,14.689C415.605,362.945,420.824,361.201,426.363,361.528z M366.83,344.884
		c-0.554,6.287-1.047,11.907-1.562,17.771c5.252,0,10.146,0,15.568,0c-0.285-5.023-0.524-9.614-0.82-14.2
		c-0.08-1.237-0.331-2.461-0.571-4.189C375.186,344.473,371.263,344.666,366.83,344.884z M336.59,389.78
		c-4.621-0.002-8.764,1.238-12.766,3.034c-0.504,0.226-0.963,1.126-0.994,1.74c-0.184,3.264-0.305,6.534-0.27,9.802
		c0.008,1.035,0.56,2.064,0.783,2.816c4.537-0.693,8.627-1.313,13.246-2.021C336.59,400.49,336.59,395.568,336.59,389.78z
		 M334.77,426.192c2.315-6.061,2.514-11.473,1.278-17.116c-3.811-0.403-6.806,1.15-9.935,2.593
		c-4.518,2.084-4.616,1.925-4.367,6.787c0.1,1.956,0.343,3.904,0.546,6.101C326.585,425.12,330.515,425.635,334.77,426.192z
		 M430.769,361.076c3.334,0,6.394,0,9.888,0c0-2.005,0.192-3.688-0.035-5.32c-0.591-4.221-1.304-8.426-2.114-12.608
		c-0.164-0.85-0.805-1.925-1.532-2.284c-1.671-0.835-6.192,1.394-6.313,3.165C430.28,349.543,429.171,355.082,430.769,361.076z
		 M431.254,421.559c2.897,1.269,5.548,1.093,8.219,0.666c1.507-0.241,2.175-1.148,2.117-2.691c-0.123-3.14-0.117-6.286-0.309-9.422
		c-0.054-0.922-0.363-2.052-0.976-2.67c-2.233-2.257-4.843-3.798-8.432-3.251C430.125,409.857,432.662,415.577,431.254,421.559z
		 M440.609,399.843c2.395-4.24,0.659-8.159,0.438-12.052c-0.102-1.773-1.445-2.419-2.967-2.446
		c-2.206-0.035-4.412,0.094-6.606,0.297c-0.231,0.021-0.528,0.988-0.532,1.52c-0.048,4.092-0.026,8.183-0.026,12.682
		C434.505,399.843,437.552,399.843,440.609,399.843z M439.735,366.042c-2.689-0.411-4.785-0.753-6.888-1.047
		c-1.525-0.211-2.608,0.351-2.58,2.022c0.082,4.537,0.254,9.073,0.397,13.895c3.282,0,6.068,0,9.247,0
		C440.73,376.026,439.594,371.279,439.735,366.042z M338.105,326.944c-4.211-1.171-4.205-1.165-6.587,1.423
		c-2.543,2.771-4.863,5.653-4.501,9.751c0.232,2.604,1.257,3.856,3.383,4.289c2.407,0.489,4.094-0.2,5.193-2.535
		C337.489,335.861,338.538,331.645,338.105,326.944z M423.241,321.591c-2.134-0.366-2.984,0.827-3.997,2.13
		c-3.473,4.457-4.625,9.576-5.077,14.914c3.674,1.41,5.794-0.17,7.423-2.791C424.391,331.333,424.769,326.557,423.241,321.591z
		 M340.59,341.657c1.363,0.787,2.272,0.509,3.025-0.656c2.621-4.048,3.402-8.682,3.859-13.301c0.383-3.829-1.484-4.774-4.858-3.258
		C341.934,330.247,341.272,335.838,340.59,341.657z M429.467,318.587c-2.925,0.489-3.015,0.515-2.346,2.851
		c1.387,4.824,1.14,9.568-0.375,14.306c-0.218,0.682-0.208,1.439-0.374,2.654C431.172,333.195,432.366,324.528,429.467,318.587z"/>
	<path fill-rule="evenodd" clip-rule="evenodd" d="M149.552,38.239c7.203,1.416,14.631,0.311,22.066-0.12
		c12.73-0.738,25.455-1.688,38.198-2.095c9.158-0.292,18.339,0.247,27.508,0.211c2.203-0.01,4.395-0.871,6.603-1.273
		c2.091-0.38,4.204-0.976,6.302-0.936c3.415,0.064,6.821,0.73,10.238,0.823c1.955,0.054,3.926-0.517,5.892-0.815
		c3.769-0.573,5.603,0.314,6.838,3.488c0.29,0.749,0.499,1.744,0.251,2.453c-1.658,4.729-1.269,9.57-1.126,14.436
		c0.278,9.61,0.319,19.229,0.627,28.84c0.197,6.16,0.644,12.314,1.076,18.464c0.27,3.78-1.335,5.162-4.974,4.636
		c-3.383-0.492-6.844-0.732-10.264-0.654c-9.588,0.225-19.17,0.771-28.76,0.997c-5.865,0.139-11.746-0.252-17.614-0.101
		c-10.599,0.274-21.189,0.781-31.784,1.173c-3.298,0.122-6.603,0.087-9.891,0.313c-1.365,0.093-3.229,0.246-3.948,1.123
		c-2.738,3.343-5.857,3.08-9.087,1.36c-2.505-1.333-4.916-2.943-7.093-4.759c-1.79-1.492-1.969-3.414-0.361-4.363
		c2.382-1.41,1.918-3.324,1.67-5.242c-0.809-6.241-1.84-12.455-2.588-18.702c-1.109-9.254-2.105-18.524-3.032-27.798
		c-0.296-2.965-0.311-5.966-0.295-8.951C146.015,38.641,147.596,38.281,149.552,38.239z M151.462,45.973
		c-0.184,1.688-0.427,2.799-0.403,3.905c0.097,4.015,0.084,8.049,0.479,12.039c0.566,5.703,1.209,11.417,2.262,17.045
		c1.364,7.323,3.241,14.548,4.727,21.849c0.432,2.122,1.433,2.868,3.478,2.906c2.14,0.04,4.273,0.363,6.411,0.532
		c2.105,0.165,4.219,0.465,6.321,0.401c4.868-0.142,9.732-0.534,14.602-0.704c7.414-0.261,14.838-0.294,22.246-0.645
		c11.876-0.564,23.746-1.334,35.617-1.967c6.017-0.321,12.044-0.431,18.054-0.833c3.036-0.203,3.299-0.641,3.654-3.682
		c0.318-2.706,0.872-5.435,0.753-8.128c-0.606-13.891-1.382-27.776-2.153-41.66c-0.051-0.891-0.548-1.757-0.994-3.105
		c-17.399,9.969-33.36,21.236-49.034,32.858C196.402,65.069,175.098,53.899,151.462,45.973z M161.433,42.603
		c-0.042,0.407-0.083,0.814-0.126,1.219c2.565,1.514,5.043,3.207,7.713,4.506c9.521,4.631,19.106,9.131,28.671,13.671
		c3.097,1.469,6.206,2.911,9.313,4.354c3.228,1.501,7.075,0.703,10.188,2.754c0.42,0.277,1.411-0.046,2.009-0.348
		c4.828-2.439,9.819-4.635,14.395-7.49c8.247-5.149,16.273-10.659,24.321-16.126c1.821-1.237,3.339-2.914,5.488-4.827
		c-3.103-1.156-5.484-1.113-7.902-1.057c-6.848,0.159-13.695,0.329-20.545,0.337c-11.589,0.011-23.184-0.333-34.768-0.086
		c-8.861,0.186-17.714,0.98-26.56,1.646C169.551,41.463,165.498,42.11,161.433,42.603z"/>
	<path fill-rule="evenodd" clip-rule="evenodd" fill="#FFFFFF" d="M138.229,377.118c0.249,1.979,0.556,3.363,0.576,4.749
		c0.176,12.758,0.281,25.521,0.455,38.279c0.102,7.466-0.463,7.765-7.973,7.902c-11.037,0.201-22.066,0.879-33.101,1.313
		c-2.137,0.082-4.282-0.025-6.426-0.045c-8.009-0.08-16.017-0.257-24.023-0.189c-3.156,0.023-5.926-0.564-8.419-2.565
		c-0.962-0.771-2.192-1.212-3.911-2.131c0-5.145,0.093-10.584-0.02-16.02c-0.313-15.06-0.714-30.115-1.082-45.174
		c-0.027-1.149-0.155-2.302-0.069-3.442c0.275-3.592,2.287-5.421,5.834-5.491c9.893-0.197,19.784-0.644,29.673-0.55
		c7.289,0.071,14.569,0.836,21.854,1.304c0.714,0.047,1.419,0.247,2.132,0.267c7.511,0.193,15.021,0.361,22.253,0.534
		c2.931,5.651,2.309,8.979-1.551,12.654c-4.358,4.151-8.561,8.472-12.76,12.791c-6.319,6.503-13.303,12.166-20.955,17.039
		c-2.242,1.426-4.289,3.162-6.919,5.125c-6.276-7.739-12.012-16.344-20.478-23.308c-1.04,0.743-2.27,1.542-3.399,2.457
		c-0.844,0.685-1.468,1.663-2.354,2.268c-2.011,1.374-2.35,2.314-0.597,3.945c6.384,5.953,12.016,12.702,19.423,17.588
		c2.664,1.759,4.548,4.69,6.832,7.046c1.034,1.065,2.176,2.026,3.663,3.402c0.863-1.479,1.669-2.354,1.909-3.359
		c1.202-5.045,4.771-8.435,8.217-11.865c2.325-2.317,4.854-4.447,7.421-6.501c7.15-5.714,14.363-11.354,21.568-17
		C136.427,377.812,136.998,377.675,138.229,377.118z"/>
	<path fill-rule="evenodd" clip-rule="evenodd" fill="#FFFFFF" d="M82.809,396.518c-3.328-2.25-6.573-4.629-8.506-8.301
		C78.206,389.864,80.478,393.202,82.809,396.518z"/>
	<path fill-rule="evenodd" clip-rule="evenodd" fill="#FFFFFF" d="M380.33,407.067c7.695-0.906,14.595-1.826,21.752-1.617
		c0.766,3.458,0.775,6.483,0.033,9.616c-0.821,3.456-0.81,6.831,2.804,8.984c2.924-2.666,3.003-2.832,1.852-5.804
		c-1.519-3.921-2.678-7.866-1.286-12.392c6.433-0.834,12.799-0.638,19.135,0.88c1.839,0.439,2.625,1.634,2.556,3.44
		c-0.146,3.716-0.368,7.43-0.482,11.145c-0.068,2.381-1.692,2.756-3.51,2.854c-3.435,0.186-6.873,0.357-10.314,0.433
		c-9.752,0.216-19.503,0.386-29.255,0.546c-0.842,0.014-1.686-0.18-2.127-0.231c0-2.073,0.116-3.942-0.024-5.796
		C381.178,415.301,380.754,411.483,380.33,407.067z"/>
	<path fill-rule="evenodd" clip-rule="evenodd" fill="#FFFFFF" d="M406.038,364.052c0.228,6.79-0.334,12.936-1.696,19.01
		c-7.475,0.317-14.557,0.618-21.937,0.933c-0.104-1.104-0.345-2.059-0.259-2.982c0.425-4.566,1.013-9.121,1.374-13.69
		c0.159-1.978,1.206-2.77,2.935-3.071c0.425-0.073,0.85-0.187,1.276-0.19C393.597,364.048,399.46,364.052,406.038,364.052z"/>
	<path fill-rule="evenodd" clip-rule="evenodd" fill="#FFFFFF" d="M383.949,362.134c0-5.119-0.023-9.961,0.014-14.804
		c0.015-1.789,0.727-2.985,2.792-3.02c5.868-0.097,11.731-0.282,17.6-0.385c2.018-0.037,3.299,0.883,3.292,3.055
		c-0.009,3.854,0.125,7.722-0.151,11.56c-0.208,2.916-0.703,3.236-3.876,3.378c-3.998,0.179-8.003,0.166-12.008,0.212
		C389.212,362.155,386.813,362.134,383.949,362.134z"/>
	<path fill-rule="evenodd" clip-rule="evenodd" fill="#FFFFFF" d="M402.218,403.497c-7.313,0.493-14.25,0.958-21.473,1.442
		c0-2.373-0.086-4.479,0.021-6.571c0.143-2.854,0.386-5.705,0.681-8.547c0.161-1.574,0.392-3.281,2.473-3.471
		c6.503-0.602,13.006-1.383,19.935-0.898C403.902,391.519,403.103,397.227,402.218,403.497z"/>
	<path fill-rule="evenodd" clip-rule="evenodd" fill="#FFFFFF" d="M341.65,364.543c0.411-4.739,0.854-8.981,1.119-13.236
		c0.241-3.86,2.947-5.597,6.026-5.969c4.331-0.521,8.77-0.132,13.066-0.132c1.321,4.143,1.253,12.141-0.165,18.444
		C355.299,364.246,348.863,366.294,341.65,364.543z"/>
	<path fill-rule="evenodd" clip-rule="evenodd" fill="#FFFFFF" d="M339.701,385.515c0.435-5.137,0.758-10.093,1.354-15.017
		c0.104-0.852,1.28-2.135,2.095-2.245c5.784-0.781,11.603-1.312,17.412-1.896c0.252-0.028,0.529,0.188,1.313,0.495
		c0.041,1.141,0.252,2.52,0.104,3.858c-0.425,3.822-0.996,7.63-1.508,11.443c-0.246,1.811-0.677,3.264-3.051,3.307
		c-5.266,0.096-10.528,0.401-15.796,0.589C341.229,386.063,340.826,385.838,339.701,385.515z"/>
	<path fill-rule="evenodd" clip-rule="evenodd" fill="#FFFFFF" d="M339.292,365.013c-6.93,0-12.985,0-19.351,0
		c0-4.897-0.095-9.993,0.053-15.084c0.047-1.737,0.822-3.563,2.861-3.769c5.506-0.551,11.023-0.588,16.437,0.03
		C339.292,352.477,339.292,358.359,339.292,365.013z"/>
	<path fill-rule="evenodd" clip-rule="evenodd" fill="#FFFFFF" d="M404.512,403.603c0.637-6.803,1.185-12.565,1.73-18.413
		c7.053,0,13.676,0,20.78,0c0.531,4.597,0.355,8.848,0.136,13.054c-0.041,0.815-1.601,2.061-2.616,2.239
		C418.172,401.617,411.753,402.504,404.512,403.603z"/>
	<path fill-rule="evenodd" clip-rule="evenodd" fill="#FFFFFF" d="M359.483,388.733c-0.511,5.823-1.016,11.626-1.548,17.711
		c-6.388,0.808-12.399,0.502-18.668-0.858c0-5.016-0.09-9.98,0.097-14.938c0.029-0.768,1.302-2.087,2.06-2.132
		c5.402-0.333,10.817-0.421,16.231-0.524C358.163,387.979,358.676,388.392,359.483,388.733z"/>
	<path fill-rule="evenodd" clip-rule="evenodd" fill="#FFFFFF" d="M378.204,405.097c-5.775,0.436-11.272,0.851-17.352,1.312
		c-0.124-6.664,0.931-12.617,1.378-18.869c5.838-0.516,11.142-1.456,17.143-0.838C378.981,392.895,378.605,398.799,378.204,405.097z
		"/>
	<path fill-rule="evenodd" clip-rule="evenodd" fill="#FFFFFF" d="M379.326,384.11c-5.915,0.252-11.131,0.477-16.737,0.715
		c0.18-1.918,0.306-3.438,0.467-4.952c0.39-3.688,0.79-7.376,1.197-11.063c0.176-1.612,0.431-3.358,2.487-3.412
		c4.528-0.119,9.062-0.039,13.882-0.039C381.389,371.578,380.668,377.713,379.326,384.11z"/>
	<path fill-rule="evenodd" clip-rule="evenodd" fill="#FFFFFF" d="M338.915,368.807c-0.441,5.938-0.804,11.333-1.26,16.722
		c-0.136,1.654-1.465,1.954-2.834,1.993c-3.83,0.105-7.657,0.199-11.485,0.277c-1.874,0.041-2.993-0.767-3.007-2.777
		c-0.023-3.728-0.056-7.455-0.097-11.182c-0.015-1.49,0.777-2.244,2.081-2.897c3.141-1.569,6.343-2.486,9.902-2.167
		C334.187,368.953,336.187,368.807,338.915,368.807z"/>
	<path fill-rule="evenodd" clip-rule="evenodd" fill="#FFFFFF" d="M406.626,383.044c0.697-4.963,1.372-9.343,1.901-13.737
		c0.264-2.176,1.141-3.345,3.49-3.431c3.699-0.141,7.407-0.799,11.09-0.661c3.637,0.137,3.932,0.653,4.029,4.139
		c0.101,3.678-0.026,7.362-0.061,11.451C419.966,381.582,413.407,382.302,406.626,383.044z"/>
	<path fill-rule="evenodd" clip-rule="evenodd" fill="#FFFFFF" d="M338.885,409.01c6.622,0,12.436,0,18.771,0
		c0.321,5.355,0.642,10.688,1.003,16.694c-5.897,0.02-11.287,0.102-16.677-0.032c-0.668-0.018-1.809-1.142-1.882-1.846
		C339.578,419.028,339.281,414.203,338.885,409.01z"/>
	<path fill-rule="evenodd" clip-rule="evenodd" fill="#FFFFFF" d="M361.365,425.531c-0.31-4.957-0.615-9.638-0.9-14.319
		c-0.118-1.929,0.916-2.902,2.734-3.146c4.103-0.553,8.204-1.135,12.315-1.619c2.179-0.259,2.938,0.438,2.621,2.67
		c-0.633,4.5-1.469,8.973-2.196,13.462c-0.327,2.019-1.454,2.979-3.511,2.964C369.019,425.508,365.605,425.531,361.365,425.531z"/>
	<path fill-rule="evenodd" clip-rule="evenodd" fill="#FFFFFF" d="M426.363,361.528c-5.539-0.327-10.758,1.417-16.401-0.505
		c0.354-5.018,0.712-10.067,1.039-14.689c2.208-0.826,4.129-1.861,6.166-2.215c1.899-0.326,3.971-0.146,5.871,0.247
		c0.909,0.192,2.091,1.277,2.315,2.169C426.548,351.229,427.396,355.992,426.363,361.528z"/>
	<path fill-rule="evenodd" clip-rule="evenodd" fill="#FFFFFF" d="M366.83,344.884c4.433-0.218,8.355-0.411,12.615-0.619
		c0.24,1.729,0.491,2.952,0.571,4.189c0.296,4.586,0.535,9.177,0.82,14.2c-5.423,0-10.316,0-15.568,0
		C365.783,356.791,366.276,351.171,366.83,344.884z"/>
	<path fill-rule="evenodd" clip-rule="evenodd" fill="#FFFFFF" d="M336.59,389.78c0,5.788,0,10.71,0,15.372
		c-4.619,0.707-8.709,1.327-13.246,2.021c-0.224-0.752-0.775-1.781-0.783-2.816c-0.035-3.268,0.086-6.538,0.27-9.802
		c0.031-0.614,0.49-1.515,0.994-1.74C327.826,391.019,331.969,389.778,336.59,389.78z"/>
	<path fill-rule="evenodd" clip-rule="evenodd" fill="#FFFFFF" d="M334.77,426.192c-4.255-0.558-8.185-1.072-12.478-1.636
		c-0.203-2.196-0.446-4.145-0.546-6.101c-0.249-4.862-0.15-4.703,4.367-6.787c3.129-1.442,6.124-2.996,9.935-2.593
		C337.283,414.72,337.085,420.132,334.77,426.192z"/>
	<path fill-rule="evenodd" clip-rule="evenodd" fill="#FFFFFF" d="M430.769,361.076c-1.598-5.994-0.488-11.533-0.107-17.048
		c0.121-1.771,4.643-4,6.313-3.165c0.728,0.359,1.368,1.435,1.532,2.284c0.811,4.183,1.523,8.388,2.114,12.608
		c0.228,1.632,0.035,3.315,0.035,5.32C437.162,361.076,434.103,361.076,430.769,361.076z"/>
	<path fill-rule="evenodd" clip-rule="evenodd" fill="#FFFFFF" d="M431.254,421.559c1.408-5.981-1.129-11.701,0.62-17.368
		c3.589-0.547,6.198,0.994,8.432,3.251c0.612,0.618,0.922,1.748,0.976,2.67c0.191,3.136,0.186,6.282,0.309,9.422
		c0.058,1.543-0.61,2.45-2.117,2.691C436.802,422.651,434.151,422.827,431.254,421.559z"/>
	<path fill-rule="evenodd" clip-rule="evenodd" fill="#FFFFFF" d="M440.609,399.843c-3.058,0-6.104,0-9.694,0
		c0-4.499-0.021-8.59,0.026-12.682c0.004-0.531,0.301-1.498,0.532-1.52c2.194-0.203,4.4-0.332,6.606-0.297
		c1.521,0.027,2.865,0.673,2.967,2.446C441.269,391.684,443.004,395.603,440.609,399.843z"/>
	<path fill-rule="evenodd" clip-rule="evenodd" fill="#FFFFFF" d="M439.735,366.042c-0.142,5.237,0.995,9.984,0.177,14.87
		c-3.179,0-5.965,0-9.247,0c-0.144-4.821-0.315-9.357-0.397-13.895c-0.028-1.672,1.055-2.233,2.58-2.022
		C434.95,365.289,437.046,365.631,439.735,366.042z"/>
	<path fill-rule="evenodd" clip-rule="evenodd" fill="#FFFFFF" d="M338.105,326.944c0.433,4.7-0.616,8.917-2.512,12.928
		c-1.1,2.335-2.786,3.024-5.193,2.535c-2.126-0.433-3.15-1.686-3.383-4.289c-0.362-4.098,1.958-6.979,4.501-9.751
		C333.9,325.779,333.895,325.773,338.105,326.944z"/>
	<path fill-rule="evenodd" clip-rule="evenodd" fill="#FFFFFF" d="M423.241,321.591c1.527,4.966,1.149,9.742-1.651,14.253
		c-1.629,2.621-3.749,4.201-7.423,2.791c0.452-5.338,1.604-10.457,5.077-14.914C420.257,322.418,421.107,321.225,423.241,321.591z"
		/>
	<path fill-rule="evenodd" clip-rule="evenodd" fill="#FFFFFF" d="M340.59,341.657c0.683-5.819,1.344-11.41,2.026-17.215
		c3.374-1.517,5.241-0.571,4.858,3.258c-0.457,4.619-1.238,9.253-3.859,13.301C342.862,342.166,341.953,342.444,340.59,341.657z"/>
	<path fill-rule="evenodd" clip-rule="evenodd" fill="#FFFFFF" d="M429.467,318.587c2.899,5.941,1.705,14.608-3.095,19.811
		c0.166-1.215,0.156-1.973,0.374-2.654c1.515-4.737,1.762-9.481,0.375-14.306C426.452,319.102,426.542,319.076,429.467,318.587z"/>
	<path fill-rule="evenodd" clip-rule="evenodd" fill="#FFFFFF" d="M151.462,45.973c23.636,7.927,44.94,19.097,66.018,30.813
		c15.674-11.622,31.635-22.89,49.034-32.858c0.446,1.349,0.943,2.215,0.994,3.105c0.771,13.884,1.547,27.77,2.153,41.66
		c0.119,2.693-0.435,5.422-0.753,8.128c-0.355,3.041-0.618,3.479-3.654,3.682c-6.01,0.402-12.037,0.512-18.054,0.833
		c-11.871,0.633-23.741,1.402-35.617,1.967c-7.408,0.351-14.832,0.384-22.246,0.645c-4.869,0.17-9.733,0.563-14.602,0.704
		c-2.103,0.063-4.216-0.236-6.321-0.401c-2.138-0.169-4.271-0.492-6.411-0.532c-2.045-0.038-3.046-0.784-3.478-2.906
		c-1.485-7.301-3.362-14.525-4.727-21.849c-1.053-5.628-1.695-11.342-2.262-17.045c-0.395-3.99-0.382-8.024-0.479-12.039
		C151.035,48.771,151.278,47.661,151.462,45.973z"/>
	<path fill-rule="evenodd" clip-rule="evenodd" fill="#FFFFFF" d="M161.433,42.603c4.065-0.492,8.118-1.14,12.197-1.446
		c8.846-0.666,17.698-1.461,26.56-1.646c11.584-0.247,23.179,0.097,34.768,0.086c6.85-0.008,13.697-0.178,20.545-0.337
		c2.418-0.057,4.8-0.1,7.902,1.057c-2.149,1.913-3.667,3.59-5.488,4.827c-8.048,5.467-16.074,10.977-24.321,16.126
		c-4.575,2.855-9.566,5.051-14.395,7.49c-0.598,0.302-1.589,0.625-2.009,0.348c-3.113-2.051-6.961-1.253-10.188-2.754
		c-3.106-1.443-6.216-2.886-9.313-4.354c-9.564-4.54-19.15-9.04-28.671-13.671c-2.67-1.299-5.147-2.992-7.713-4.506
		C161.35,43.417,161.391,43.01,161.433,42.603z"/>
</g>
<g>
	<g>
		<g>
			<g>
				<g>
					<path fill="#FFFFFF" d="M88.726,90.988c0.048,0.071,0.167,0.226,0.154,0.188l-0.192-0.27L88.726,90.988z"/>
					<path fill="#FFFFFF" d="M89.159,91.427c-0.085-0.137-0.241-0.373-0.431-0.61c0.176,0.265,0.103,0.155,0.313,0.471
						c0.014,0.039-0.081-0.072-0.152-0.17c0.047,0.071-0.059-0.046,0.061,0.124c0.167,0.195,0.189,0.19,0.078,0.008
						C89.075,91.306,89.123,91.378,89.159,91.427z"/>
					<path fill="#FFFFFF" d="M90.423,91.087l-0.03-0.026C90.408,91.077,90.417,91.085,90.423,91.087z"/>
					<path fill="#FFFFFF" d="M91.127,90.764c0,0.01,0.019,0.037,0.037,0.061C91.155,90.804,91.146,90.786,91.127,90.764z"/>
					<path fill="#FFFFFF" d="M91.455,90.97c-0.009-0.006-0.013-0.008-0.02-0.013C91.456,90.979,91.469,90.991,91.455,90.97z"/>
					<path fill="#FFFFFF" d="M90.423,91.087l0.08,0.07C90.438,91.071,90.445,91.1,90.423,91.087z"/>
					<path fill="#FFFFFF" d="M88.809,90.687c0.006,0.015,0.022,0.042,0.044,0.076c-0.005-0.014-0.01-0.025-0.013-0.034
						L88.809,90.687z"/>
					<path fill="#FFFFFF" d="M90.326,91.506l-0.004,0.004c0.021,0.031,0.048,0.068,0.078,0.11L90.326,91.506z"/>
					<path fill="#FFFFFF" d="M90.156,91.704c0.012,0.006-0.157-0.218-0.23-0.317c0.068,0.094,0.098,0.141,0.107,0.161
						C90.066,91.59,90.106,91.64,90.156,91.704z"/>
					<path fill="#FFFFFF" d="M89.54,91.561l0.018,0.035C89.552,91.585,89.546,91.575,89.54,91.561z"/>
					<path fill="#FFFFFF" d="M90.507,91.44c0.026,0.033,0.049,0.061,0.063,0.078L90.507,91.44z"/>
					<path fill="#FFFFFF" d="M94.48,85.279c0.014,0.014,0.023,0.023,0.035,0.036C94.496,85.293,94.482,85.279,94.48,85.279z"/>
					<polygon fill="#FFFFFF" points="95.676,86.072 95.684,86.085 95.795,86.197 					"/>
					<path fill="#FFFFFF" d="M91.865,91.105l-0.004-0.004C91.876,91.13,91.875,91.124,91.865,91.105z"/>
					<path fill="#FFFFFF" d="M93.431,89.57c-0.181-0.175-0.179-0.273-0.387-0.461C93.118,89.19,93.303,89.466,93.431,89.57z"/>
					<path fill="#FFFFFF" d="M88.836,90.712c0-0.005,0.002-0.009,0.006-0.009C88.833,90.699,88.831,90.702,88.836,90.712z"/>
					<polygon fill="#FFFFFF" points="93.044,89.109 93.043,89.107 93.023,89.09 					"/>
					<path fill="#FFFFFF" d="M92.189,90.634c-0.033-0.037-0.058-0.065-0.082-0.092C92.127,90.563,92.15,90.59,92.189,90.634z"/>
					<path fill="#FFFFFF" d="M91.62,90.574l0.031,0.023C91.632,90.58,91.624,90.575,91.62,90.574z"/>
					<path fill="#FFFFFF" d="M92.105,90.195c0.018,0.013,0.043,0.042,0.025,0.008c-0.009-0.011-0.016-0.018-0.023-0.025
						C92.13,90.21,92.138,90.226,92.105,90.195z"/>
					<path fill="#FFFFFF" d="M92.276,90.058c-0.015-0.016-0.026-0.027-0.039-0.042l0.004,0.016L92.276,90.058z"/>
					<path fill="#FFFFFF" d="M94.097,85.806c0.057,0.055,0.12,0.116,0.183,0.176C94.139,85.839,94.112,85.767,94.097,85.806z"/>
					<path fill="#FFFFFF" d="M88.904,90.813c-0.042-0.058-0.062-0.086-0.068-0.101l0.003,0.017
						C88.865,90.762,88.889,90.793,88.904,90.813z"/>
					<path fill="#FFFFFF" d="M90.713,88.469l0.053,0.011C90.742,88.465,90.723,88.461,90.713,88.469z"/>
					<path fill="#FFFFFF" d="M92.997,86.854l-0.017-0.03C92.974,86.82,92.978,86.828,92.997,86.854z"/>
					<path fill="#FFFFFF" d="M90.819,88.386c0.067,0.073,0.109,0.114,0.138,0.139c-0.013-0.018-0.024-0.032-0.043-0.059
						L90.819,88.386z"/>
					<path fill="#FFFFFF" d="M94.282,85.983l-0.002-0.002L94.282,85.983z"/>
					<path fill="#FFFFFF" d="M93.982,85.355c-0.029,0.016,0.241,0.27,0.383,0.426c0.044,0.101-0.202-0.183-0.344-0.311
						c0.051,0.086,0.273,0.342,0.25,0.344c-0.043-0.043-0.061-0.057-0.111-0.114c0.186,0.229-0.045,0.061,0.188,0.346
						c-0.024-0.022-0.046-0.044-0.066-0.063c0.129,0.132,0.261,0.267,0.355,0.362c-0.006,0.014,0.142,0.187-0.03,0.016
						c0.011-0.001-0.056-0.072-0.104-0.129l0.061,0.086c-0.25-0.241-0.067-0.101-0.246-0.286c0.056,0.101,0.229,0.332,0.145,0.276
						c-0.238-0.242-0.04-0.118-0.271-0.315l0.116,0.07c-0.391-0.369,0.042,0.013-0.374-0.384c-0.102-0.041,0.082,0.159-0.021,0.118
						c0.128,0.139,0.189,0.205,0.318,0.343c0.186,0.289-0.627-0.584-0.351-0.225c0.146,0.172,0.439,0.487,0.257,0.345l-0.256-0.286
						c-0.059,0.002,0.361,0.417,0.148,0.261c-0.098-0.115-0.062-0.116-0.098-0.145c-0.231-0.2,0.134,0.172,0.117,0.188l-0.238-0.244
						c0.002,0.07,0.132,0.284,0.135,0.365c-0.067-0.076-0.133-0.159-0.214-0.227c0.067,0.168-0.133,0.064-0.317-0.041l0.182,0.231
						c-0.006,0.001-0.098-0.09-0.132-0.136c-0.094-0.065,0.126,0.137,0.195,0.229c0.003,0.024-0.128-0.111-0.182-0.182
						c0.137,0.211,0.272,0.477,0.024,0.277l-0.052-0.07c-0.107-0.063,0.377,0.47,0.167,0.291l-0.03-0.043
						c-0.144-0.041-0.027,0.215-0.37-0.072c0.276,0.32-0.184-0.087,0.209,0.352c-0.23-0.187-0.292-0.273-0.47-0.376
						c-0.03-0.009,0.229,0.29,0.254,0.349l-0.207-0.228l0.196,0.259l-0.258-0.264l0.039,0.072c0.018,0.008,0.105,0.092,0.164,0.158
						c0.071,0.124-0.199-0.11-0.305-0.227l0.121,0.242c-0.082-0.094-0.101-0.133-0.146-0.199c0.181,0.26-0.222-0.237-0.056,0.001
						c0.05,0.049,0.121,0.139,0.162,0.186c-0.137-0.127-0.168-0.102-0.137-0.023l-0.137-0.162c-0.075-0.005-0.015,0.151-0.062,0.188
						c0.082,0.06,0.322,0.338,0.333,0.377l-0.221-0.239c0.125,0.158,0.095,0.08,0.241,0.28c-0.042-0.013-0.256-0.267-0.317-0.355
						l0.055,0.103c-0.063-0.074-0.096-0.113-0.176-0.208c0.126,0.159-0.25-0.214-0.03,0.061l-0.065-0.072
						c-0.046,0.038,0.008,0.14-0.017,0.185c0.185,0.212,0.13,0.178,0.269,0.359c-0.086-0.043-0.261-0.184-0.277-0.137
						c0.07,0.126,0.15,0.186,0.25,0.321c-0.169-0.191-0.186-0.145-0.29-0.299c-0.011,0.066-0.015,0.083,0.072,0.284
						c0.074,0.075,0.109,0.104,0.164,0.173c0.019,0.04-0.09-0.063-0.169-0.157l-0.015-0.022c0.196,0.341-0.612-0.452-0.308-0.008
						l-0.015-0.022L92.2,87.86c-0.049-0.015-0.112-0.158-0.23-0.264c0.229,0.369-0.117,0.022,0.028,0.275
						c-0.519-0.549-0.075,0.14-0.428-0.191l0.117,0.134c0.102,0.143-0.078-0.066-0.112-0.09c0.09,0.105,0.114,0.112,0.17,0.192
						c0.049,0.25-0.356-0.031-0.561-0.078c-0.066-0.008,0.567,0.725,0.25,0.434l-0.197-0.265c0.179,0.363-0.159,0.108-0.018,0.425
						c-0.044-0.063-0.106-0.139-0.099-0.144c-0.168-0.174-0.064,0.035,0.06,0.187c-0.025-0.008-0.115-0.135-0.185-0.206
						c-0.105-0.098,0.156,0.267-0.004,0.089c-0.026-0.029-0.045-0.063-0.054-0.08c0.063,0.098-0.065,0.014,0.12,0.22
						c-0.111-0.081,0.026,0.136-0.099,0.026c0.181,0.251-0.141-0.079,0.131,0.264c-0.284-0.352-0.278-0.246-0.161-0.067
						c-0.081-0.11-0.104-0.098-0.217-0.25c-0.016,0.021,0.02,0.1,0.169,0.277c-0.377-0.392,0.202,0.396-0.255-0.127
						c0.095,0.235,0.145,0.406,0.158,0.529c-0.281-0.353,0.03-0.081-0.27-0.447c0.067,0.184,0.281,0.508,0.164,0.462
						c-0.052-0.038-0.116-0.158-0.16-0.222c0.067,0.184-0.122,0.043-0.012,0.27c-0.026-0.033-0.05-0.072-0.067-0.103
						c0,0.018-0.062-0.036,0.067,0.124l-0.026-0.05c0.2,0.221,0.353,0.513,0.45,0.637c-0.352-0.471-0.136-0.081-0.576-0.68
						c0.018,0.035,0.072,0.116,0.158,0.222c-0.033-0.024-0.086-0.085-0.174-0.213c0.038,0.112,0.185,0.273,0.154,0.292
						c-0.058-0.08-0.081-0.111-0.149-0.206c0.106,0.162,0.212,0.325,0.136,0.279c-0.036-0.048-0.087-0.107-0.079-0.111
						c-0.022,0.056,0.25,0.459,0.089,0.348c-0.254-0.349-0.104-0.099-0.338-0.39l0.045,0.106l0.122,0.135
						c-0.025,0.012,0.125,0.24,0.031,0.158l-0.08-0.133l0.004,0.087l0.11,0.093c0.098,0.168,0.295,0.369,0.202,0.31
						c-0.018-0.035-0.024,0.013-0.171-0.151l0,0c0.063,0.102,0.129,0.208,0.056,0.148c-0.074-0.094-0.255-0.325-0.304-0.387
						c0.183,0.253,0.003,0.107,0.196,0.379c-0.047-0.063-0.167-0.218-0.191-0.25l0.148,0.206c-0.06-0.056-0.086-0.085-0.181-0.21
						c-0.058-0.013,0.302,0.365,0.141,0.232c-0.011-0.018-0.031-0.049-0.053-0.082c-0.101-0.056,0.031,0.181-0.079,0.108
						c-0.241-0.289-0.028-0.095-0.235-0.336c-0.004,0.091,0.181,0.431,0.081,0.397l0.034,0.026c0.319,0.423-0.195-0.18-0.064,0.036
						c-0.019-0.036-0.173-0.238-0.139-0.19c-0.083-0.042,0.017,0.153,0.072,0.322l-0.078-0.112
						c-0.093-0.082-0.091-0.017-0.149-0.051c0.077,0.112,0.052,0.104,0.181,0.255c-0.536-0.565,0.137,0.421-0.312-0.048
						c0.005-0.006-0.057-0.106-0.063-0.103l0.031,0.136c0.145,0.18,0.091,0.106,0.21,0.241c0.078,0.113,0.129,0.208,0.118,0.217
						c-0.072-0.138-0.226-0.294-0.313-0.39c0.043,0.057,0.09,0.119,0.134,0.176c-0.274-0.307,0.279,0.372,0.077,0.178l-0.072-0.098
						c0.025,0.059,0.111,0.195,0.077,0.178c-0.168-0.208-0.063-0.109-0.196-0.285c-0.009,0.027,0.271,0.431,0.092,0.233
						c-0.037-0.065-0.026-0.075-0.063-0.14c-0.209-0.235-0.163-0.17-0.207-0.199l0.005,0.005l-0.118-0.088l0.06,0.062
						c0.4,0.572,0.03,0.139,0.275,0.526c-0.231-0.368-0.147-0.203-0.328-0.445c-0.059-0.061-0.128-0.126-0.176-0.197
						c0.133,0.207-0.142-0.133,0.054,0.167c-0.06-0.077-0.022,0.005-0.167-0.193c0.027,0.076,0.107,0.131,0.18,0.23
						c0.171,0.289-0.314-0.267-0.081,0.131c0.077,0.179,0.269,0.447,0.333,0.604c-0.106-0.115-0.205-0.291-0.205-0.291
						c-0.105-0.1-0.104-0.067-0.054,0.036c-0.048-0.071-0.095-0.125-0.167-0.208c0.001,0.032,0.205,0.291,0.099,0.191
						c-0.062-0.09-0.16-0.233-0.222-0.324c0.042,0.083,0.125,0.246,0.167,0.327c-0.107-0.132-0.145-0.214-0.206-0.308
						c0.027,0.077,0.042,0.163,0.198,0.382l0.07,0.067c0,0.016-0.143-0.182-0.167-0.225c-0.11-0.182,0.08,0.056,0.14,0.133
						l0.025,0.06c0.357,0.447-0.005-0.112,0.039-0.105l0.24,0.34l-0.183-0.295c0.071,0.082,0.214,0.264,0.24,0.324
						c0.142,0.15-0.073-0.13,0.08,0.041c0.023,0.027,0.035,0.043,0.043,0.058l-0.057-0.113c0.049,0.072,0.18,0.232,0.133,0.192
						c0.176,0.167-0.138-0.289,0.064-0.047l0.013,0.022c-0.042-0.146-0.181-0.247-0.364-0.558l0.477,0.583l-0.18-0.247
						c0.011,0.005,0.034,0.017,0.106,0.115c-0.11-0.18-0.083-0.104-0.193-0.268c0.19,0.204-0.02-0.15,0.28,0.232
						c-0.133-0.19-0.129-0.126-0.204-0.272c0.324,0.411-0.027-0.092,0.138,0.083c0.158,0.22,0.052,0.121,0.218,0.296
						c-0.265-0.372,0.1,0.049,0.063-0.033c-0.22-0.29-0.056-0.149-0.101-0.268c0.072,0.099,0.174,0.117,0.28,0.201l0.037,0.049
						c-0.218-0.295-0.149-0.262-0.176-0.337c0.133,0.175,0.183,0.247,0.232,0.333l0.018-0.016c-0.067-0.097-0.1-0.15-0.113-0.193
						l0.163,0.221c0.016-0.032-0.148-0.295-0.004-0.175c-0.155-0.204-0.46-0.545-0.532-0.707c0.086,0.108,0.232,0.295,0.258,0.347
						c-0.008-0.017-0.06-0.099-0.019-0.057l0.129,0.195c0.077,0.07-0.111-0.16-0.087-0.152c0.125,0.153,0.089,0.109,0.189,0.23
						c0.008,0.017-0.06-0.057-0.017,0.008c0.035,0.018,0.122,0.098,0.218,0.212c-0.07-0.088-0.163-0.21-0.168-0.238
						c0.016-0.03,0.153,0.182,0.23,0.25c-0.078-0.113,0.024-0.013-0.156-0.247c0.008-0.004,0.094,0.104,0.146,0.165
						c-0.067-0.113,0.037-0.076-0.17-0.313l-0.016-0.014c-0.003-0.006-0.003-0.006-0.006-0.012l0,0l0,0
						c-0.139-0.264,0.188,0.064,0.152-0.068l0.061,0.078c-0.044-0.108,0.014-0.096-0.099-0.277c0.007-0.005,0.128,0.128,0.197,0.224
						c-0.027-0.073-0.093-0.162,0.034-0.055c0.087,0.15,0.101,0.115,0.059,0.115c0.077,0.048,0.18,0.168,0.04-0.065
						c0.147,0.206,0.215,0.236,0.18,0.167l-0.129-0.129c-0.009-0.04,0.016-0.031,0.041-0.023l0.199,0.267
						c0.3,0.278-0.335-0.613,0.122-0.111c-0.13-0.193-0.128-0.107-0.285-0.331c0.05,0.017,0.378,0.369,0.378,0.369
						c0.146,0.12-0.271-0.405-0.16-0.333c-0.078-0.089-0.278-0.335-0.323-0.442c0.05,0.017,0.337,0.368,0.381,0.455
						c0,0.012-0.025-0.015-0.05-0.047c0.02,0.04,0.041,0.087,0.13,0.181l-0.07-0.096c0.086,0.086,0.11,0.051,0.224,0.209
						c-0.053-0.103-0.113-0.158-0.164-0.196c0.136,0.111,0.049-0.033,0.152,0.034c-0.046-0.047-0.137-0.153-0.131-0.156
						c0.136,0.08-0.12-0.192-0.122-0.256c0.129,0.128,0.262,0.343,0.199,0.201c0.095,0.081,0.2,0.243,0.252,0.325
						c-0.114-0.201,0.146,0.077,0.188,0.097l0.045,0.087c-0.027-0.052-0.019-0.056-0.011-0.062l-0.156-0.179
						c0.035,0.026,0.042,0.021,0.104,0.098c-0.088-0.128-0.252-0.303-0.368-0.483c0.087,0.085-0.045-0.129,0.155,0.114
						c-0.103-0.055,0.201,0.244,0.202,0.308c-0.018-0.034-0.009-0.039,0.025-0.013c0.023,0.026,0.04,0.052,0.048,0.068
						c0.21,0.192-0.206-0.291-0.166-0.314c0.106,0.143,0.218,0.257,0.201,0.223c-0.017,0.008-0.192-0.226-0.264-0.343
						c0.109,0.09-0.039-0.1-0.017-0.097l-0.054-0.04c-0.106-0.142-0.081-0.133-0.1-0.189c0.088,0.107,0.045,0.086,0.089,0.129
						c-0.177-0.257,0.242,0.22,0.135,0.037c0.087,0.084,0.21,0.259,0.271,0.314c-0.116-0.201,0.183,0.166,0.093-0.005
						c-0.158-0.179-0.123-0.133-0.248-0.33l0.057,0.168l-0.187-0.294c-0.017,0.009,0.063,0.141,0.029,0.116
						c-0.107-0.164-0.071-0.116-0.202-0.265c0.244,0.264-0.092-0.193,0.083-0.022l0.37,0.46c0.2,0.178-0.129-0.284,0.009-0.204
						l-0.079-0.068c-0.142-0.187,0.007-0.047-0.039-0.133c0.123,0.155,0.177,0.204,0.26,0.294c-0.093-0.113,0.042-0.016-0.203-0.325
						l0.184,0.186c0.104,0.054-0.313-0.469-0.236-0.444c0.125,0.175,0.229,0.271,0.302,0.409c0.013-0.008,0.046,0.012-0.04-0.094
						c0.084,0.091-0.136-0.232-0.007-0.095c-0.05-0.071-0.179-0.233-0.156-0.23c0.025,0.031,0.062,0.075,0.062,0.075
						c-0.062-0.075-0.063-0.119-0.212-0.279c0.424,0.45,0.07-0.113,0.436,0.272c-0.017-0.071-0.026-0.144-0.013-0.173
						c0.036,0.047,0.062,0.076,0.045,0.064c0.148,0.117-0.34-0.454-0.174-0.324c0.221,0.232,0.09,0.148,0.179,0.233
						c0.417,0.499-0.013-0.103,0.252,0.171l0.019,0.034c0.159,0.156-0.111-0.226-0.052-0.214c0,0,0.037,0.044,0.063,0.076
						c-0.19-0.272-0.221-0.387-0.25-0.481c0.153,0.203,0.072,0.114,0.242,0.309c-0.01-0.039-0.268-0.317-0.288-0.393
						c0.097,0.101,0.193,0.179,0.372,0.39l-0.015,0.031c0.24,0.265,0.024-0.034,0.077,0.003l0.098,0.121
						c0.005-0.069-0.245-0.372-0.187-0.382l-0.08-0.087c-0.227-0.316,0.158,0.154-0.004-0.086l0.259,0.298
						c-0.046-0.085-0.193-0.333-0.214-0.411c0.172,0.236,0.238,0.375,0.33,0.524c0.017-0.009,0.031-0.061-0.086-0.217
						c0.019,0.034,0.073,0.114,0.028,0.072c-0.18-0.252-0.255-0.388-0.224-0.408c0.486,0.592,0.195,0.084,0.597,0.521
						c-0.133-0.26,0.174,0.005,0.202-0.081c-0.405-0.437,0.006-0.028-0.393-0.491c-0.013-0.042-0.001-0.039,0.026-0.009l0.276,0.243
						c0.125,0.127,0.074,0.114,0.165,0.217c0.06,0.009,0.18,0.187,0.305,0.293c-0.146-0.163-0.193-0.248-0.122-0.199l-0.207-0.194
						c-0.17-0.284,0.368,0.359,0.2,0.077l0.112,0.158c-0.053-0.105,0.081-0.067-0.219-0.459c0.05,0.05,0.164,0.173,0.183,0.215
						c0.099,0.01-0.229-0.497,0.007-0.303l0.094,0.116c-0.019-0.041-0.167-0.227-0.057-0.124c0.04,0.047,0.094,0.116,0.104,0.119
						c-0.029-0.043-0.147-0.22-0.077-0.166l0.1,0.136c0.178,0.104-0.194-0.377-0.221-0.491c0.289,0.332,0.422,0.405,0.488,0.441
						l0.041,0.047c0.093-0.011-0.144-0.362-0.206-0.539c0.349,0.329,0.243,0.05,0.474,0.202c-0.061-0.052-0.227-0.257-0.247-0.298
						c0.072,0.055-0.169-0.258,0.098,0.044l-0.009-0.002c0.273,0.287,0.228,0.185,0.255,0.175l-0.349-0.396
						c0.565,0.524-0.054-0.332,0.435,0.154c-0.076-0.109-0.06-0.122-0.136-0.231l0.189,0.21c0.083,0.022,0.125,0.033,0.122-0.056
						l0.127,0.157c0.037-0.009-0.519-0.631-0.508-0.663l0.292,0.306c0.038-0.043,0.331,0.192,0.114-0.128
						c0.041,0.046,0.123,0.137,0.127,0.156c0.027-0.01,0.271,0.141-0.13-0.279c0.257,0.277,0.068-0.012-0.022-0.155l0.186,0.208
						c-0.223-0.278-0.289-0.351-0.329-0.447c0.031,0.021,0.158,0.159,0.101,0.114c0.121,0.088-0.163-0.208-0.037-0.122l0.111,0.139
						c0.037-0.004-0.03-0.072-0.16-0.234c-0.063-0.094,0.088,0.014,0.264,0.195c-0.102-0.115-0.23-0.275-0.168-0.234
						c0.067,0.068,0.103,0.115,0.12,0.139c0.166,0.105-0.168-0.285,0.044-0.108c0.065,0.065,0.098,0.098,0.118,0.118
						c-0.033,0.021-0.067,0.031-0.079,0.014c0.176,0.188,0.23,0.199,0.454,0.475c-0.114-0.158-0.37-0.494-0.264-0.426
						c0.018,0.017,0.035,0.034,0.064,0.062l0.017,0.023c0.023,0.014,0.011-0.008-0.014-0.043c0.036,0.024,0.063,0.042,0.072,0.039
						c0.148,0.152,0.105,0.059,0.124,0.056c-0.194-0.204-0.148-0.185-0.321-0.34c0.016,0.013,0.021,0.026,0.021,0.042
						c0.004,0.007,0.005,0.012,0.015,0.025l-0.016-0.019c-0.002,0.013-0.008,0.026-0.016,0.04c-0.089-0.112-0.162-0.208-0.042-0.106
						c-0.118-0.137-0.239-0.278-0.295-0.345c0.285,0.271,0.461,0.397,0.631,0.569c-0.073-0.146,0.012-0.151-0.33-0.554
						c-0.037-0.058,0.116,0.099,0.177,0.156c0.031,0.044,0.019,0.044,0.067,0.102c-0.073-0.116,0.023-0.092-0.227-0.363
						c0.14,0.098,0.22,0.258,0.213,0.184l0.073,0.085c0.477,0.363-0.542-0.779,0.059-0.302c-0.038-0.028-0.055-0.042-0.099-0.085
						c0.319,0.162-0.042-0.384,0.414-0.083c0.099,0.054-0.063-0.117-0.174-0.258l0.217,0.211l-0.219-0.271
						c-0.144-0.213,0.583,0.472,0.289,0.087l-0.149-0.139c0.043,0.013-0.033-0.131,0.129,0.037
						c-0.024-0.028-0.144-0.155-0.063-0.085l0.112,0.111l-0.151-0.228c0.111,0.053,0.438,0.449,0.505,0.43
						c-0.026-0.059-0.277-0.369-0.358-0.438c-0.012,0-0.087-0.054-0.199-0.166l-0.043-0.072c-0.326-0.332-0.652-0.679-0.918-0.876
						l0.176,0.225l-0.168-0.153l0.011-0.029c-0.162-0.139-0.037,0,0.045,0.1c-0.086-0.083-0.149-0.139-0.186-0.167l0.289,0.338
						c-0.131-0.126-0.244-0.267-0.331-0.323c0.134,0.157,0.299,0.279,0.375,0.393c-0.161-0.139-0.279-0.265-0.166-0.124
						c-0.086-0.083-0.137-0.14-0.168-0.183c0.088,0.113,0.009,0.073,0.177,0.255c-0.196-0.174,0.005,0.087-0.304-0.228
						c0.07,0.079,0.221,0.266,0.222,0.29c-0.349-0.395-0.065,0.018-0.457-0.391c0.317,0.352,0.091,0.201,0.248,0.415
						c-0.025-0.028-0.075-0.086-0.056-0.071c-0.043-0.014-0.148-0.112-0.221-0.167c0.272,0.282,0.31,0.368,0.465,0.553
						c-0.283-0.253-0.31-0.34-0.569-0.594c0.223,0.226,0.188,0.257,0.379,0.44c-0.178-0.154-0.092-0.07-0.326-0.296
						c0.339,0.354,0.044,0.072,0.242,0.299c-0.189-0.154-0.325-0.324-0.245-0.197C94.082,85.499,93.982,85.355,93.982,85.355z
						 M94.012,86.469l-0.004-0.004c0-0.009,0-0.017,0-0.022C94.009,86.448,94.01,86.455,94.012,86.469z M93.967,86.515
						c0.013,0.002,0.022-0.002,0.028-0.011c0.068,0.069,0.135,0.144,0.126,0.145C94.08,86.599,94.031,86.568,93.967,86.515z
						 M95.404,87.842c0.02,0.036-0.021-0.001-0.062-0.042c0-0.007-0.002-0.018-0.01-0.037l-0.022-0.026
						C95.346,87.777,95.379,87.814,95.404,87.842z"/>
					<path fill="#FFFFFF" d="M95.165,87.562c-0.003-0.006-0.011-0.015-0.011-0.018c-0.019-0.017-0.035-0.03-0.048-0.042l0.058,0.066
						L95.165,87.562z"/>
					<path fill="#FFFFFF" d="M90.388,91.057l0.005,0.004c-0.007-0.008-0.015-0.017-0.027-0.03
						C90.375,91.042,90.381,91.048,90.388,91.057z"/>
					<polygon fill="#FFFFFF" points="92.956,86.704 93.004,86.756 92.966,86.707 					"/>
					<path fill="#FFFFFF" d="M89.52,90.513c-0.016-0.019-0.033-0.038-0.047-0.054C89.485,90.473,89.501,90.492,89.52,90.513z"/>
					<path fill="#FFFFFF" d="M89.362,90.557l-0.078-0.066C89.326,90.53,89.348,90.548,89.362,90.557z"/>
					<path fill="#FFFFFF" d="M89.186,90.519c0.029,0.04,0.051,0.069,0.071,0.097l0.001,0.001L89.186,90.519z"/>
					<path fill="#FFFFFF" d="M90.438,89.111c0-0.002-0.001-0.006-0.004-0.013C90.408,89.049,90.416,89.07,90.438,89.111z"/>
					<path fill="#FFFFFF" d="M90.413,89.967c-0.026-0.044-0.052-0.088-0.068-0.116C90.323,89.841,90.313,89.841,90.413,89.967z"/>
					<polygon fill="#FFFFFF" points="90.708,88.467 90.71,88.471 90.713,88.469 					"/>
					<path fill="#FFFFFF" d="M90.367,89.84c-0.042-0.038-0.041-0.023-0.023,0.012C90.362,89.861,90.388,89.878,90.367,89.84z"/>
					<path fill="#FFFFFF" d="M88.711,90.73L88.7,90.725c0.011,0.015,0.02,0.027,0.027,0.037L88.711,90.73z"/>
					<path fill="#FFFFFF" d="M88.727,90.761l0.015,0.03C88.744,90.79,88.745,90.787,88.727,90.761z"/>
					<path fill="#FFFFFF" d="M88.774,90.856l-0.032-0.065C88.738,90.794,88.728,90.791,88.774,90.856z"/>
					<path fill="#FFFFFF" d="M88.911,90.739l-0.061-0.083C88.863,90.673,88.883,90.7,88.911,90.739z"/>
					<path fill="#FFFFFF" d="M88.93,90.686c-0.023-0.012-0.153-0.156-0.127-0.096l0.047,0.066
						C88.765,90.531,89.025,90.83,88.93,90.686z"/>
					<path fill="#FFFFFF" d="M89.847,91.567l-0.081-0.04c0.071,0.082,0.167,0.192,0.168,0.225
						C90.17,91.979,89.779,91.565,89.847,91.567z"/>
					<path fill="#FFFFFF" d="M90.04,91.616c0.014,0.054,0.096,0.125,0.132,0.175C90.123,91.703,90.11,91.682,90.04,91.616z"/>
					<path fill="#FFFFFF" d="M90.746,91.061l0.156,0.203C90.892,91.224,90.84,91.186,90.746,91.061z"/>
					<polygon fill="#FFFFFF" points="90.064,89.914 89.954,89.799 90.093,89.988 					"/>
					<polygon fill="#FFFFFF" points="91.269,91.285 91.286,91.318 91.25,91.228 					"/>
					<path fill="#FFFFFF" d="M92.403,90.275L92.2,90.034C92.227,90.084,92.449,90.36,92.403,90.275z"/>
					<path fill="#FFFFFF" d="M92.712,89.623c0.106,0.117,0.185,0.184,0.095,0.057C92.782,89.672,92.691,89.587,92.712,89.623z"/>
					<polygon fill="#FFFFFF" points="94.52,88.696 94.581,88.783 94.541,88.701 					"/>
				</g>
			</g>
		</g>
	</g>
</g>
<g>
	<g>
		<path fill="none" stroke="#FFFFFF" stroke-miterlimit="10" d="M550.625,255.021"/>
	</g>
</g>
<g>
	<g>
		<path fill="none" stroke="#FFFFFF" stroke-miterlimit="10" d="M-81.875,299.521"/>
	</g>
</g>
</svg>
