<?xml version="1.0" encoding="utf-8"?>
<!-- Generator: Adobe Illustrator 16.0.0, SVG Export Plug-In . SVG Version: 6.00 Build 0)  -->
<!DOCTYPE svg PUBLIC "-//W3C//DTD SVG 1.1//EN" "http://www.w3.org/Graphics/SVG/1.1/DTD/svg11.dtd">
<svg version="1.1" id="Layer_1" xmlns="http://www.w3.org/2000/svg" xmlns:xlink="http://www.w3.org/1999/xlink" x="0px" y="0px"
	 width="480px" height="480px" viewBox="0 0 480 480" enable-background="new 0 0 480 480" xml:space="preserve">
<g>
	<path fill-rule="evenodd" clip-rule="evenodd" fill="none" d="M126.793,159.386c0.254,1.533,1.003,2.865,2.644,3.237
		c1.569,0.355,3.19,0.482,4.356,0.649c6.262-0.301,11.798-2.317,17.596-2.734c1.483-0.106,1.731-1.544,1.707-2.81
		c-0.024-1.308-0.555-2.76-1.94-2.62c-2.406,0.243-4.834-0.466-7.022-0.186c-2.842,0.365-5.811,1.012-8.572,2.036
		c-1.776,0.659-3.33,1.106-4.736-0.601c-0.789-0.958-1.601-0.63-2.47-0.027C127.264,157.089,126.572,158.06,126.793,159.386z"/>
	<path fill-rule="evenodd" clip-rule="evenodd" fill="none" d="M219.138,145.866c3.512-1.42,7.35-1.93,10.691-3.791
		c9.817-5.468,19.921-10.375,30.012-15.307c5.74-2.806,5.77-2.747,8.179,3.371c1.033,2.625,1.931,3.162,4.927,2.95
		c4.56-0.323,4.891-0.626,5.49-5.157c0.143-1.073,0.17-2.162,0.337-3.23c0.626-3.989,0.815-8.101,3.804-11.348
		c0.675-0.732,0.919-1.958,1.121-3.003c0.61-3.163-0.728-4.64-3.992-4.171c-2.799,0.402-5.604,0.765-8.394,1.311
		c-3.826,0.751-7.85,1.259-11.597-0.105c-2.1-0.764-3.055-0.053-4.002,1.412c-1.076,1.667-0.681,3.07,0.938,4.168
		c1.952,1.327,3.248,3.237,4.531,5.15c0.863,1.289,0.545,2.174-0.873,2.907c-3.237,1.675-6.376,3.535-9.61,5.211
		c-7.564,3.916-15.153,7.782-23.051,11c-1.512,0.616-2.648,0.798-3.556-1.188c-1.067-2.335-2.551-2.301-4.217-0.343
		c-0.859,1.011-1.171,2.141-0.813,3.4c0.527,1.856,0.549,3.078-2.047,3.09c-1.587,0.007-1.971,1.716-0.854,2.889
		C216.993,145.954,218.101,146.285,219.138,145.866z"/>
	<path fill-rule="evenodd" clip-rule="evenodd" fill="none" d="M74.99,173.279c1.937,1.639,4.003,2.703,6.662,2.297
		c1.187-0.182,2.477-0.367,3.601,0.232c4.289,2.288,8.982,1.521,13.529,1.592c2.162,0,4.325-0.029,6.487,0.007
		c3.142,0.052,5.775-1.025,8.079-3.188c2.067-1.94,4.35-3.651,6.474-5.534c3.26-2.888,5.301-6.459,5.756-10.845
		c0.126-1.208,0.135-2.408,0.497-3.604c2.931-9.644-0.389-18.24-9.062-23.666c-1.146-0.718-2.237-1.521-3.355-2.284
		c-6.562-4.475-13.757-6.623-21.754-6.616c-10.585,0.009-17.289,5.867-22.568,14.142c-0.346,0.543-0.408,1.277-0.562,1.933
		c-1.425,6.1-1.917,12.283-1.9,18.543C66.893,163.283,69.729,168.827,74.99,173.279z"/>
	<path fill-rule="evenodd" clip-rule="evenodd" fill="none" d="M109.162,247.145c1.457-1.844,1.544-3.891,0.174-5.151
		c-1.47-1.356-3.066-2.806-5.215-2.886c-2.829-0.105-5.677-0.394-8.495,0.087c-1.052,0.179-2.137,0.441-3.08,0.918
		c-1.436,0.722-1.766,2.017-1.057,3.432c0.703,1.4,1.921,1.445,3.074,0.664c1.874-1.271,3.936-1.706,6.137-1.682
		c0.405,0,0.813-0.035,1.216,0.006c3.69,0.376,4.595,2.176,2.365,5.039c-1.558,1.999-3.048,4.132-5.442,5.315
		c-1.317,0.652-2.136,1.774-2.132,3.22c0.013,3.82,0.851,7.494,2.398,10.992c0.222,0.503,0.599,0.9,1.244,0.765
		c0.639-0.133,0.892-0.688,0.911-1.197c0.097-2.562,0.231-5.131,0.127-7.688c-0.083-2.04,0.537-3.63,1.93-5.108
		C105.354,251.71,107.321,249.475,109.162,247.145z"/>
	<path fill-rule="evenodd" clip-rule="evenodd" fill="none" d="M132.093,331.206c-2.289-3.328-2.973-7.233-3.921-11.027
		c-0.938-3.753-2.712-7.063-4.957-10.153c-1.555-2.139-3.561-3.669-6.106-4.479c-5.457-1.735-11.01-2.776-16.219-2.362
		c-8.103-0.939-19.676,2.575-25.734,9.044c-2.378,2.541-5.532,4.405-6.949,7.825c-1.087,2.625-2.175,5.263-3.484,7.781
		c-2.021,3.886-2.017,7.778-0.533,11.781c1.65,4.448,3.486,8.822,5.692,13.019c1.705,3.248,3.657,6.512,6.807,8.451
		c8.26,5.088,17,8.38,26.946,5.517c1.822-0.524,3.683-0.91,5.505-1.43c7.729-2.202,14.425-5.938,19.483-12.434
		c3.505-4.499,5.729-14.967,3.919-20.403C132.413,331.95,132.316,331.532,132.093,331.206z"/>
	<path fill-rule="evenodd" clip-rule="evenodd" fill="none" d="M98.255,284.834c-0.003,1.154,0.528,2.102,1.716,2.375
		c0.974,0.224,2.241-1.542,2.164-2.88c-0.098-1.191-0.892-1.548-1.923-1.521C98.934,282.845,98.257,283.596,98.255,284.834z"/>
	<path fill-rule="evenodd" clip-rule="evenodd" fill="none" d="M259.798,356.781c-1.227-0.108-1.635,0.673-1.621,1.764
		c0.015,1.225,0.539,2.137,1.818,2.228c1.357,0.099,1.775-0.919,1.981-2.049C261.82,357.424,260.955,356.88,259.798,356.781z"/>
	<path fill-rule="evenodd" clip-rule="evenodd" fill="none" d="M255.431,328.561c-0.007,0.404,0.248,0.732,0.727,0.665
		c0.712-0.105,1.103-0.552,1.202-1.258c0-0.429-0.216-0.798-0.604-0.841C255.729,327.011,255.446,327.722,255.431,328.561z"/>
	<path fill-rule="evenodd" clip-rule="evenodd" fill="none" d="M416.393,279.904c-1.202-7.791-3.964-14.78-10.116-20.03
		c-1.948-1.661-4.061-3.294-6.641-3.704c-2.344-0.371-4.4-1.236-6.419-2.36c-7.655-4.262-15.787-4.325-24.052-2.517
		c-2.061,0.451-3.894,1.598-5.739,2.833c-6.839,4.573-10.201,11.718-14.28,18.35c-1.088,1.771-1.455,3.729-1.583,5.806
		c-0.217,3.507-0.706,6.996-0.956,10.5c-0.112,1.616-0.224,2.896-2.333,3.027c-1.596,0.101-2.201,1.361-2.302,2.867
		c-0.11,1.614-0.129,3.146,0.391,4.78c1.046,3.304,3.221,5.898,4.846,8.833c2.046,3.689,4.361,7.148,6.898,10.489
		c1.749,2.306,3.958,4.674,6.504,5.272c6.116,1.439,11.994,4.608,18.605,3.411c0.673-0.07,1.36-0.265,2.014-0.189
		c7.91,0.891,13.84-3.121,19.615-7.704c5.06-4.016,7.622-9.799,10.815-15.082C416.214,296.962,417.744,288.677,416.393,279.904z"/>
	<path fill-rule="evenodd" clip-rule="evenodd" fill="none" d="M266.092,336.485c2.425-1.452,4.937-2.986,6.356-5.533
		c1.357-2.431,3.095-5.002,1.309-7.945c-1.708-2.812-4.669-2.854-7.296-3.082c-2.884,0.416-5.64,0.236-8.226,1.136
		c-1.667,0.581-2.338,2.026-1.713,3.514c0.697,1.65,1.974,1.723,3.328,0.941c1.92-1.107,3.971-1.678,6.162-1.764
		c1.335-0.054,2.8-0.285,3.621,1.16c0.849,1.497,0.313,2.939-0.574,4.176c-1.754,2.442-4.047,4.532-6.729,5.636
		c-2.479,1.017-3.238,2.489-3.386,4.844c-0.083,1.339-0.467,2.655-0.688,3.986c-0.269,1.62-0.208,3.23,0.214,4.823
		c0.226,0.855,0.71,1.516,1.646,1.504c0.921-0.013,1.517-0.684,1.693-1.504c0.483-2.237,1.174-4.495,1.183-6.749
		C263.003,339.112,264.053,337.703,266.092,336.485z"/>
	<path fill-rule="evenodd" clip-rule="evenodd" fill="none" d="M292.887,387.64c-0.63-2.344-1.479-4.646-2.407-6.895
		c-1.604-3.891-4.582-5.972-8.811-6.009c-1.405-0.013-2.716-0.175-3.881-0.923c-2.194-1.415-4.678-2.16-7.089-3.017
		c-5.857-2.084-11.978-3.14-17.889-0.833c-7.819,3.058-15.172,7.075-21.224,13.123c-2.671,2.672-5.532,5.149-8.258,7.767
		c-5.871,5.642-10.39,11.98-10.484,20.583c-0.014,1.212-0.092,2.474-0.437,3.624c-1.39,4.657-0.64,9.093,1.024,13.515
		c0.616,1.641,0.871,3.412,1.421,5.082c1.276,3.88,2.594,8.022,5.661,10.653c4.686,4.02,9.708,7.729,15.324,10.498
		c7.873,3.878,16.271,4.806,24.891,4.666c1.354,0,2.711,0.053,4.063-0.013c3.781-0.183,7.649-0.049,11.212-1.532
		c7.894-3.285,13.178-9.632,16.72-16.886c5.607-11.472,6.5-23.94,4.371-36.476C296.125,398.854,294.396,393.259,292.887,387.64z"/>
	<path fill-rule="evenodd" clip-rule="evenodd" d="M210.266,195.913c0.109-0.23,0.204-0.458,0.286-0.686 M210.551,195.227
		c1.083-3.031-0.198-5.867-0.522-8.781c-0.962-8.646-0.615-17.33-0.652-25.996c-0.023-5.244-0.88-10.552,0.725-15.756
		c0.431-1.398-0.234-3.235-1.628-3.274c-3.57-0.099-7.264-1.755-10.733,0.288c-1.87,1.101-3.847,1.292-5.885,1.111
		c-5.723-0.506-11.358,0.325-16.977,1.146c-3.638,0.532-7.235,0.871-10.917,0.675c-2.26-0.12-4.631-0.189-6.691,1.068
		c-2.375,1.449-2.652,4.248-0.249,5.522c2.036,1.084,2.19,2.523,2.13,4.317c-0.184,5.405-0.352,10.812-0.611,16.213
		c-0.173,3.561-0.494,7.113-0.749,10.669c-1.155-1.495-2.317-2.401-4-2.816c-6.765-1.667-12.364-5.923-18.702-8.553
		c-0.238-0.1-0.462-0.305-0.623-0.514c-1.83-2.38-4.913-1.993-7.265-3.256c-0.993-0.533-2.116,0.144-2.707,1.223
		c-0.56,1.02-0.639,2.054,0.065,3.063c0.498,0.714,1.315,0.904,2.02,1.295c4.99,2.776,10.502,4.351,15.623,6.846
		c4.212,2.052,8.257,4.536,12.949,5.546c1.35,0.291,2.303,1.356,2.308,2.981c0.003,1.075,0.036,2.178,0.273,3.22
		c0.372,1.632,1.53,2.799,3.192,2.526c6.608-1.081,13.216-0.265,19.823-0.228c1.2,0.007,2.497-0.28,3.581,0.396
		c1.198,0.747,0.197,2.019,0.512,3.01c0.296,0.932,0.596,1.832,1.715,2.031c1.008,0.18,1.899-0.09,2.542-0.908
		c0.674-0.856,0.64-1.787-0.039-2.604c-0.306-0.368-0.82-0.563-1.24-0.837c5.533-0.798,10.765-0.843,15.994-0.247
		c0.265,0.029,0.516,0.159,0.776,0.238c0.242,0.074,0.47,0.16,0.674,0.262 M203.45,168.763c0,4.332,0.079,8.667-0.027,12.997
		c-0.074,3.045-0.36,3.355-3.21,3.513c-3.265,0.181-6.426,0.843-9.621,1.459c-6.798,1.313-13.72,1.073-20.601,1.272
		c-1.489,0.045-2.451-0.399-2.899-2.118c-2.705-10.359-3.5-20.813-1.862-31.416c0.571-3.691,0.596-3.862,4.283-3.887
		c9.498-0.061,18.911-1.261,28.364-1.914c3.853-0.267,4.472,0.066,5.301,3.895C204.335,157.9,203.681,163.361,203.45,168.763z"/>
	<path fill-rule="evenodd" clip-rule="evenodd" d="M246.479,222.26c-5.21-1.313-9.711-4.114-14.554-6.129
		c-8.088-3.364-15.878-7.378-23.813-11.072c-1.959-0.911-4.009-1.659-5.87-2.761c-2.085-1.232-4.049-2.669-6.12-3.924
		c-1.674-1.015-3.133-0.491-3.828,1.232c-0.634,1.571-0.028,3.046,1.97,3.819c5.943,2.302,11.6,5.233,17.425,7.788
		c24.691,10.835,48.973,22.561,73.54,33.669c7.461,3.373,13.934,8.32,20.717,12.768c1.666,1.092,1.713,1.854,0.141,3.122
		c-1.681,1.355-3.489,2.569-5.316,3.726c-1.325,0.841-2.219,2.004-2.856,3.354c-1.107,2.34-0.458,3.788,1.974,4.836
		c0.771,0.33,1.543,0.344,2.36,0.397c4.838,0.324,9.655,0.902,14.513,0.947c3.146,0.027,6.146,0.775,9.042,2.058
		c3.336,1.474,6.788,2.651,10.05,4.331c2.434,1.253,3.102,0.685,4.014-1.971c0.975-2.839,1.189-5.591-0.487-8.181
		c-0.716-1.102-0.447-1.959-0.061-3.025c1.188-3.281,1.012-3.138-1.73-5.502c-2.094-1.809-5.444-2.767-5.166-6.573
		c0.05-0.666-0.881-0.99-1.601-0.899c-1.84,0.233-2.601-0.997-3.433-2.3c-1.236-1.932-2.199-4.676-3.989-5.463
		c-2.897-1.275-5.688-2.998-8.844-3.677c-2.297-0.499-3.356,0.258-3.451,2.642c-0.072,1.848,0.187,3.712,0.291,5.459
		c-0.713,0.44-1.197,0.162-1.7-0.004c-5.125-1.674-9.845-4.303-14.928-6.146c-13.176-4.774-25.165-12.053-36.939-19.482"/>
	<path fill-rule="evenodd" clip-rule="evenodd" d="M260.729,459.475c-8.619,0.14-17.018-0.788-24.891-4.666
		c-5.616-2.769-10.639-6.479-15.324-10.498c-3.067-2.631-4.385-6.773-5.661-10.653c-0.55-1.67-0.805-3.441-1.421-5.082
		c-1.664-4.422-2.414-8.857-1.024-13.515c0.345-1.15,0.423-2.412,0.437-3.624c0.095-8.603,4.613-14.941,10.484-20.583
		c2.726-2.617,5.587-5.095,8.258-7.767c6.052-6.048,13.404-10.065,21.224-13.123c5.911-2.307,12.031-1.251,17.889,0.833
		c2.411,0.856,4.895,1.602,7.089,3.017c1.165,0.748,2.476,0.91,3.881,0.923c4.229,0.037,7.206,2.118,8.811,6.009
		c0.929,2.249,1.777,4.551,2.407,6.895c1.509,5.619,3.238,11.214,4.208,16.929c2.129,12.535,1.236,25.004-4.371,36.476
		c-3.542,7.254-8.826,13.601-16.72,16.886c-3.563,1.483-7.431,1.35-11.212,1.532C263.44,459.527,262.084,459.475,260.729,459.475z
		 M287.481,416.943c0.146-2.433,0.135-4.885,0.477-7.293c0.479-3.361-0.533-6.171-2.76-8.56c-1.906-2.047-3.89-4.172-5.473-6.325
		c-2.207-3.006-4.985-4.518-8.137-5.422c-8.491-2.44-17.044-2.409-25.503,0.367c-1.81,0.593-3.68,0.89-5.521,1.325
		c-3.173,0.748-6.514,1.716-8.471,4.411c-4.052,5.586-7.593,11.535-9.759,18.147c-1.208,3.688-1.407,7.487,0.463,11.062
		c1.694,3.238,3.472,6.441,5.402,9.54c3.36,5.39,7.751,9.618,13.724,12.174c3.378,1.443,7.07,1.839,10.362,3.462
		c4.48,2.208,8.872,1.308,13.354-0.128c4.03-1.294,7.431-3.687,11.12-5.58c5.112-2.621,7.993-6.486,9.575-11.857
		C287.829,427.195,287.398,422.07,287.481,416.943z"/>
	<path fill-rule="evenodd" clip-rule="evenodd" d="M379.216,327.462c-6.611,1.197-12.489-1.972-18.605-3.411
		c-2.546-0.599-4.755-2.967-6.504-5.272c-2.537-3.341-4.853-6.8-6.898-10.489c-1.625-2.935-3.8-5.529-4.846-8.833
		c-0.52-1.635-0.501-3.166-0.391-4.78c0.101-1.506,0.706-2.767,2.302-2.867c2.109-0.131,2.221-1.411,2.333-3.027
		c0.25-3.504,0.739-6.993,0.956-10.5c0.128-2.077,0.495-4.035,1.583-5.806c4.079-6.632,7.441-13.776,14.28-18.35
		c1.846-1.235,3.679-2.382,5.739-2.833c8.265-1.809,16.396-1.745,24.052,2.517c2.019,1.124,4.075,1.989,6.419,2.36
		c2.58,0.41,4.692,2.043,6.641,3.704c6.152,5.25,8.914,12.239,10.116,20.03c1.352,8.772-0.179,17.058-4.732,24.582
		c-3.193,5.283-5.756,11.066-10.815,15.082c-5.775,4.583-11.705,8.595-19.615,7.704
		C380.576,327.197,379.889,327.392,379.216,327.462z M409.267,286.646c0.728-3.396-1.345-6.427-1.633-9.801
		c-0.279-3.289-2.049-6.111-4.044-8.724c-2.03-2.662-4.57-4.135-7.953-5.024c-4.225-1.113-8.495-2.229-12.598-4.009
		c-7.711-3.355-17.268-0.499-21.915,6.658c-3.719,5.724-7.487,11.605-7.424,18.947c0.036,4.456-0.392,9.007,1.181,13.228
		c2.859,7.687,7.113,14.175,15.494,17.092c2.639,0.918,5.353,1.954,7.802,3.36c3.062,1.76,5.956,1.288,8.935,0.056
		c1.124-0.468,2.183-1.148,3.344-1.458c3.289-0.88,5.721-2.968,7.813-5.461c3.407-4.063,6.086-8.656,8.181-13.47
		C407.986,294.514,409.843,290.886,409.267,286.646z"/>
	<path fill-rule="evenodd" clip-rule="evenodd" d="M100.89,303.185c5.209-0.414,10.762,0.627,16.219,2.362
		c2.546,0.81,4.552,2.34,6.106,4.479c2.245,3.091,4.019,6.4,4.957,10.153c0.948,3.794,1.632,7.699,3.921,11.027
		c0.224,0.326,0.32,0.744,0.448,1.13c1.811,5.437-0.414,15.904-3.919,20.403c-5.059,6.495-11.754,10.231-19.483,12.434
		c-1.822,0.52-3.683,0.905-5.505,1.43c-9.946,2.863-18.687-0.429-26.946-5.517c-3.149-1.939-5.102-5.203-6.807-8.451
		c-2.206-4.196-4.042-8.57-5.692-13.019c-1.483-4.003-1.488-7.896,0.533-11.781c1.31-2.519,2.397-5.156,3.484-7.781
		c1.417-3.42,4.571-5.284,6.949-7.825C81.214,305.76,92.787,302.245,100.89,303.185z M122.106,331.924
		c0-3.065,0.105-5.239-0.043-7.397c-0.077-1.109-0.244-2.989-1.801-2.528c-2.568,0.765-3.033-0.914-3.862-2.446
		c-0.886-1.639-1.186-3.677-3.072-4.647c-5.063-2.603-10.604-4.227-16.086-3.183c-6.58,1.251-13.005,3.417-18.193,8.326
		c-3.708,3.511-5.316,7.323-4.431,12.327c0.755,4.27,1.623,8.554,1.899,12.864c0.591,9.258,10.157,14.748,17.415,14.124
		c4.301-0.369,8.625-0.738,12.93-1.179c4.823-0.497,8.2-3.087,10.296-6.975C120.512,344.981,122.694,338.302,122.106,331.924z"/>
	<path fill-rule="evenodd" clip-rule="evenodd" d="M98.782,177.4c-4.547-0.071-9.24,0.696-13.529-1.592
		c-1.124-0.6-2.414-0.414-3.601-0.232c-2.659,0.406-4.726-0.658-6.662-2.297c-5.261-4.452-8.098-9.996-8.116-16.992
		c-0.017-6.26,0.476-12.443,1.9-18.543c0.153-0.655,0.216-1.39,0.562-1.933c5.279-8.274,11.983-14.133,22.568-14.142
		c7.997-0.007,15.192,2.142,21.754,6.616c1.118,0.763,2.209,1.566,3.355,2.284c8.673,5.426,11.992,14.022,9.062,23.666
		c-0.362,1.195-0.371,2.396-0.497,3.604c-0.455,4.386-2.496,7.957-5.756,10.845c-2.124,1.883-4.406,3.594-6.474,5.534
		c-2.304,2.163-4.938,3.24-8.079,3.188C103.107,177.371,100.944,177.4,98.782,177.4z M102.5,169.938
		c2.073,0.072,4.221,0.241,5.963-0.926c4.64-3.106,8.668-6.624,10.521-12.342c3.208-9.895-0.409-18.002-10.046-21.343
		c-1.394-0.484-2.772-1.284-3.733,0.789c-0.524,1.132-1.313,0.316-1.979-0.113c-3.927-2.535-8.164-3.451-12.788-2.51
		c-11.043,2.246-16.979,12.262-13.811,23.409c0.83,2.918,2.579,5.644,5.072,7.105C88.066,167.742,95.139,169.492,102.5,169.938z"/>
	<path fill-rule="evenodd" clip-rule="evenodd" d="M272.946,133.09c-2.996,0.212-3.894-0.325-4.927-2.95
		c-2.409-6.118-2.438-6.177-8.179-3.371c-10.091,4.932-20.194,9.839-30.012,15.307c-3.342,1.861-7.18,2.371-10.691,3.791
		c-1.037,0.419-2.145,0.088-2.976-0.784c-1.116-1.173-0.732-2.882,0.854-2.889c2.596-0.012,2.574-1.233,2.047-3.09
		c-0.357-1.26-0.046-2.39,0.813-3.4c1.666-1.958,3.149-1.992,4.217,0.343c0.907,1.986,2.044,1.805,3.556,1.188
		c7.897-3.218,15.486-7.084,23.051-11c3.234-1.676,6.373-3.536,9.61-5.211c1.418-0.733,1.736-1.618,0.873-2.907
		c-1.283-1.913-2.579-3.823-4.531-5.15c-1.619-1.098-2.015-2.501-0.938-4.168c0.947-1.465,1.902-2.176,4.002-1.412
		c3.747,1.364,7.771,0.856,11.597,0.105c2.789-0.546,5.595-0.908,8.394-1.311c3.265-0.469,4.603,1.008,3.992,4.171
		c-0.202,1.045-0.446,2.271-1.121,3.003c-2.988,3.247-3.178,7.358-3.804,11.348c-0.167,1.068-0.194,2.157-0.337,3.23
		C277.837,132.464,277.506,132.767,272.946,133.09z"/>
	<path fill-rule="evenodd" clip-rule="evenodd" d="M266.461,319.925c2.627,0.228,5.588,0.271,7.296,3.082
		c1.786,2.943,0.049,5.515-1.309,7.945c-1.42,2.547-3.932,4.081-6.356,5.533c-2.039,1.218-3.089,2.627-3.099,5.143
		c-0.009,2.254-0.699,4.512-1.183,6.749c-0.177,0.82-0.772,1.491-1.693,1.504c-0.937,0.012-1.421-0.648-1.646-1.504
		c-0.422-1.593-0.482-3.203-0.214-4.823c0.222-1.331,0.605-2.647,0.688-3.986c0.147-2.354,0.906-3.827,3.386-4.844
		c2.682-1.104,4.975-3.193,6.729-5.636c0.888-1.236,1.423-2.679,0.574-4.176c-0.821-1.445-2.286-1.214-3.621-1.16
		c-2.191,0.086-4.242,0.656-6.162,1.764c-1.354,0.781-2.631,0.709-3.328-0.941c-0.625-1.487,0.046-2.933,1.713-3.514
		C260.821,320.161,263.577,320.341,266.461,319.925z"/>
	<path fill-rule="evenodd" clip-rule="evenodd" d="M100.7,242.526c-2.201-0.024-4.263,0.41-6.137,1.682
		c-1.153,0.781-2.371,0.736-3.074-0.664c-0.709-1.415-0.379-2.71,1.057-3.432c0.943-0.477,2.028-0.739,3.08-0.918
		c2.818-0.48,5.666-0.192,8.495-0.087c2.148,0.08,3.745,1.529,5.215,2.886c1.37,1.261,1.283,3.308-0.174,5.151
		c-1.841,2.33-3.809,4.565-5.845,6.725c-1.393,1.479-2.013,3.068-1.93,5.108c0.104,2.558-0.03,5.127-0.127,7.688
		c-0.02,0.509-0.272,1.064-0.911,1.197c-0.646,0.136-1.022-0.262-1.244-0.765c-1.548-3.498-2.386-7.172-2.398-10.992
		c-0.004-1.445,0.814-2.567,2.132-3.22c2.395-1.184,3.885-3.316,5.442-5.315c2.229-2.863,1.325-4.663-2.365-5.039
		C101.514,242.491,101.105,242.526,100.7,242.526z"/>
	<path fill-rule="evenodd" clip-rule="evenodd" d="M133.793,163.272c-1.166-0.167-2.787-0.294-4.356-0.649
		c-1.641-0.372-2.39-1.704-2.644-3.237c-0.221-1.326,0.471-2.297,1.562-3.055c0.869-0.603,1.681-0.931,2.47,0.027
		c1.406,1.707,2.96,1.26,4.736,0.601c2.762-1.024,5.73-1.671,8.572-2.036c2.188-0.28,4.616,0.429,7.022,0.186
		c1.386-0.14,1.916,1.313,1.94,2.62c0.024,1.266-0.224,2.703-1.707,2.81C145.591,160.955,140.055,162.972,133.793,163.272z"/>
	<path fill-rule="evenodd" clip-rule="evenodd" d="M102.134,284.329c0.078,1.338-1.189,3.104-2.163,2.88
		c-1.188-0.273-1.719-1.221-1.716-2.375c0.002-1.238,0.679-1.989,1.957-2.026C101.243,282.781,102.037,283.138,102.134,284.329z"/>
	<path fill-rule="evenodd" clip-rule="evenodd" d="M261.977,358.724c-0.206,1.13-0.624,2.147-1.981,2.049
		c-1.279-0.091-1.804-1.003-1.818-2.228c-0.014-1.091,0.395-1.872,1.621-1.764C260.955,356.88,261.82,357.424,261.977,358.724z"/>
	<path fill-rule="evenodd" clip-rule="evenodd" d="M257.361,327.966c-0.102,0.708-0.492,1.154-1.204,1.26
		c-0.479,0.067-0.733-0.261-0.727-0.665c0.016-0.839,0.298-1.55,1.325-1.434C257.144,327.17,257.359,327.539,257.361,327.966z"/>
	<path fill-rule="evenodd" clip-rule="evenodd" fill="none" d="M203.45,168.763c0,4.332,0.079,8.667-0.027,12.997
		c-0.074,3.045-0.36,3.355-3.21,3.513c-3.265,0.181-6.426,0.843-9.621,1.459c-6.798,1.313-13.72,1.073-20.601,1.272
		c-1.489,0.045-2.451-0.399-2.899-2.118c-2.705-10.359-3.5-20.813-1.862-31.416c0.571-3.691,0.596-3.862,4.283-3.887
		c9.498-0.061,18.911-1.261,28.364-1.914c3.853-0.267,4.472,0.066,5.301,3.895C204.335,157.9,203.681,163.361,203.45,168.763z
		 M185.445,159.306c1.739-0.596,3.783-1.224,5.98-0.761c0.495,0.104,1.028-0.273,1.236-0.852c0.269-0.748-0.047-1.381-0.642-1.727
		c-1.555-0.909-3.273-1.116-5.059-0.996c-1.866,0.126-3.791,0.465-5.332-1.085c-1.26-1.264-2.399-0.745-3.528,0.248
		c-0.687,0.604-1.298,1.496-2.399,1.175c-1.122-0.326-2.301-1.252-3.177,0.284c-0.69,1.213-0.782,2.566-0.408,3.919
		c0.545,1.971,2.266,2.815,3.605,1.38c2.576-2.762,5.274-3.395,8.604-1.757C184.556,159.248,184.854,159.221,185.445,159.306z
		 M188.011,171.855c0.145-2.12-3.641-5.133-5.637-4.178c-2.042,0.977-4.098,1.221-6.249,1.373c-1.383,0.1-2.633,0.599-3.663,1.551
		c-0.536,0.497-0.707,1.158-0.447,1.842c0.269,0.704,0.871,1.07,1.602,0.928c1.981-0.387,4.082-0.149,5.96-1.029
		c2.056-0.963,3.986-2.501,5.898,0.414C186.051,173.636,187.945,172.826,188.011,171.855z"/>
	<path fill-rule="evenodd" clip-rule="evenodd" fill="none" d="M287.481,416.943c-0.083,5.127,0.348,10.252-1.145,15.323
		c-1.582,5.371-4.463,9.236-9.575,11.857c-3.689,1.894-7.09,4.286-11.12,5.58c-4.482,1.436-8.874,2.336-13.354,0.128
		c-3.292-1.623-6.984-2.019-10.362-3.462c-5.973-2.556-10.363-6.784-13.724-12.174c-1.931-3.099-3.708-6.302-5.402-9.54
		c-1.87-3.574-1.671-7.373-0.463-11.062c2.166-6.612,5.707-12.562,9.759-18.147c1.957-2.695,5.298-3.663,8.471-4.411
		c1.841-0.436,3.711-0.732,5.521-1.325c8.459-2.776,17.012-2.808,25.503-0.367c3.151,0.904,5.93,2.416,8.137,5.422
		c1.583,2.153,3.566,4.278,5.473,6.325c2.227,2.389,3.238,5.198,2.76,8.56C287.616,412.059,287.628,414.511,287.481,416.943z"/>
	<path fill-rule="evenodd" clip-rule="evenodd" fill="none" d="M409.267,286.646c0.576,4.239-1.28,7.867-2.818,11.395
		c-2.095,4.813-4.773,9.407-8.181,13.47c-2.092,2.493-4.523,4.581-7.813,5.461c-1.161,0.31-2.22,0.99-3.344,1.458
		c-2.979,1.232-5.873,1.704-8.935-0.056c-2.449-1.406-5.163-2.442-7.802-3.36c-8.381-2.917-12.635-9.405-15.494-17.092
		c-1.572-4.221-1.145-8.771-1.181-13.228c-0.063-7.342,3.705-13.224,7.424-18.947c4.647-7.157,14.204-10.014,21.915-6.658
		c4.103,1.779,8.373,2.896,12.598,4.009c3.383,0.89,5.923,2.362,7.953,5.024c1.995,2.612,3.765,5.435,4.044,8.724
		C407.922,280.22,409.994,283.251,409.267,286.646z"/>
	<path fill-rule="evenodd" clip-rule="evenodd" fill="none" d="M122.106,331.924c0.588,6.378-1.595,13.058-4.948,19.286
		c-2.096,3.888-5.473,6.478-10.296,6.975c-4.305,0.44-8.629,0.81-12.93,1.179c-7.258,0.624-16.824-4.866-17.415-14.124
		c-0.276-4.311-1.145-8.595-1.899-12.864c-0.886-5.004,0.723-8.816,4.431-12.327c5.188-4.909,11.613-7.075,18.193-8.326
		c5.481-1.044,11.023,0.58,16.086,3.183c1.887,0.971,2.187,3.009,3.072,4.647c0.829,1.532,1.294,3.211,3.862,2.446
		c1.557-0.461,1.724,1.419,1.801,2.528C122.212,326.685,122.106,328.858,122.106,331.924z"/>
	<path fill-rule="evenodd" clip-rule="evenodd" fill="none" d="M102.5,169.938c-7.361-0.445-14.434-2.195-20.801-5.93
		c-2.493-1.462-4.242-4.188-5.072-7.105c-3.169-11.147,2.768-21.163,13.811-23.409c4.624-0.941,8.861-0.025,12.788,2.51
		c0.666,0.43,1.455,1.245,1.979,0.113c0.961-2.073,2.34-1.273,3.733-0.789c9.637,3.341,13.254,11.448,10.046,21.343
		c-1.854,5.718-5.882,9.235-10.521,12.342C106.721,170.179,104.573,170.01,102.5,169.938z"/>
	<path fill-rule="evenodd" clip-rule="evenodd" d="M185.445,159.306c-0.591-0.085-0.89-0.058-1.118-0.171
		c-3.33-1.638-6.028-1.005-8.604,1.757c-1.34,1.436-3.061,0.591-3.605-1.38c-0.374-1.353-0.282-2.706,0.408-3.919
		c0.876-1.536,2.055-0.61,3.177-0.284c1.102,0.321,1.713-0.571,2.399-1.175c1.129-0.993,2.269-1.512,3.528-0.248
		c1.541,1.55,3.466,1.211,5.332,1.085c1.785-0.12,3.504,0.087,5.059,0.996c0.595,0.346,0.91,0.979,0.642,1.727
		c-0.208,0.578-0.741,0.955-1.236,0.852C189.229,158.082,187.185,158.71,185.445,159.306z"/>
	<path fill-rule="evenodd" clip-rule="evenodd" d="M188.011,171.855c-0.065,0.971-1.96,1.78-2.536,0.9
		c-1.912-2.915-3.843-1.377-5.898-0.414c-1.878,0.88-3.979,0.643-5.96,1.029c-0.73,0.143-1.333-0.224-1.602-0.928
		c-0.26-0.684-0.089-1.345,0.447-1.842c1.03-0.952,2.28-1.451,3.663-1.551c2.151-0.152,4.207-0.396,6.249-1.373
		C184.37,166.723,188.155,169.735,188.011,171.855z"/>
</g>
<path fill-rule="evenodd" clip-rule="evenodd" fill="none" d="M367.114,98.706c-2.289-3.328-2.973-7.233-3.921-11.027
	c-0.938-3.753-2.712-7.063-4.957-10.153c-1.555-2.139-3.561-3.669-6.106-4.479c-5.457-1.735-11.01-2.776-16.219-2.362
	c-8.103-0.939-19.676,2.575-25.734,9.044c-2.378,2.541-5.532,4.405-6.949,7.825c-1.087,2.625-2.175,5.263-3.484,7.781
	c-2.021,3.886-2.017,7.778-0.533,11.781c1.65,4.448,3.486,8.822,5.692,13.019c1.705,3.248,3.657,6.512,6.807,8.451
	c8.26,5.088,17,8.38,26.946,5.517c1.822-0.524,3.683-0.91,5.505-1.43c7.729-2.202,14.425-5.938,19.483-12.434
	c3.505-4.499,5.729-14.967,3.919-20.403C367.435,99.45,367.338,99.032,367.114,98.706z"/>
<path fill-rule="evenodd" clip-rule="evenodd" d="M335.911,70.685c5.209-0.414,10.762,0.627,16.219,2.362
	c2.546,0.81,4.552,2.34,6.106,4.479c2.245,3.091,4.019,6.4,4.957,10.153c0.948,3.794,1.632,7.699,3.921,11.027
	c0.224,0.326,0.32,0.744,0.448,1.13c1.811,5.437-0.414,15.904-3.919,20.403c-5.059,6.495-11.754,10.231-19.483,12.434
	c-1.822,0.52-3.683,0.905-5.505,1.43c-9.946,2.863-18.687-0.429-26.946-5.517c-3.149-1.939-5.102-5.203-6.807-8.451
	c-2.206-4.196-4.042-8.57-5.692-13.019c-1.483-4.003-1.488-7.896,0.533-11.781c1.31-2.519,2.397-5.156,3.484-7.781
	c1.417-3.42,4.571-5.284,6.949-7.825C316.235,73.26,327.809,69.745,335.911,70.685z M357.128,99.424
	c0-3.065,0.105-5.239-0.043-7.397c-0.077-1.109-0.244-2.989-1.801-2.528c-2.568,0.765-3.033-0.914-3.862-2.446
	c-0.886-1.639-1.186-3.677-3.072-4.647c-5.063-2.603-10.604-4.227-16.086-3.183c-6.58,1.251-13.005,3.417-18.193,8.326
	c-3.708,3.511-5.316,7.323-4.431,12.327c0.755,4.27,1.623,8.554,1.899,12.864c0.591,9.258,10.157,14.748,17.415,14.124
	c4.301-0.369,8.625-0.738,12.93-1.179c4.823-0.497,8.2-3.087,10.296-6.975C355.533,112.481,357.716,105.802,357.128,99.424z"/>
<path fill-rule="evenodd" clip-rule="evenodd" fill="none" d="M357.128,99.424c0.588,6.378-1.595,13.058-4.948,19.286
	c-2.096,3.888-5.473,6.478-10.296,6.975c-4.305,0.44-8.629,0.81-12.93,1.179c-7.258,0.624-16.824-4.866-17.415-14.124
	c-0.276-4.311-1.145-8.595-1.899-12.864c-0.886-5.004,0.723-8.816,4.431-12.327c5.188-4.909,11.613-7.075,18.193-8.326
	c5.481-1.044,11.023,0.58,16.086,3.183c1.887,0.971,2.187,3.009,3.072,4.647c0.829,1.532,1.294,3.211,3.862,2.446
	c1.557-0.461,1.724,1.419,1.801,2.528C357.233,94.185,357.128,96.358,357.128,99.424z"/>
<path fill-rule="evenodd" clip-rule="evenodd" fill="#FFFFFF" d="M333.658,44.957c4.086-5.123,8.2-21.734,6.597-26.146
	c-0.527-1.453-2.282-3.418-3.528-3.459c-2.393-0.082-4.266,1.72-4.365,4.396c-0.155,4.134-0.271,8.28-0.063,12.4
	C332.503,36.175,333.131,40.173,333.658,44.957z"/>
<path fill-rule="evenodd" clip-rule="evenodd" fill="#FFFFFF" d="M334.55,56.046c-1.998,2.536-3.735,3.85-4.027,5.428
	c-0.204,1.098,1.925,3.787,2.421,3.646c1.729-0.481,4.03-1.605,4.51-3.024C337.857,60.891,336.041,58.937,334.55,56.046z"/>
<path fill-rule="evenodd" clip-rule="evenodd" d="M335.321,46.957c-0.527-4.783-1.155-8.781-1.36-12.808
	c-0.208-4.12-0.092-8.267,0.063-12.4c0.1-2.677,1.973-4.479,4.365-4.396c1.246,0.041,3.001,2.006,3.528,3.459
	C343.521,25.222,339.407,41.833,335.321,46.957z"/>
<path fill-rule="evenodd" clip-rule="evenodd" d="M335.1,51.093c1.491,2.891,3.308,4.845,2.903,6.049
	c-0.479,1.419-2.78,2.543-4.51,3.024c-0.496,0.142-2.625-2.548-2.421-3.646C331.364,54.942,333.102,53.629,335.1,51.093z"/>
<path fill-rule="evenodd" clip-rule="evenodd" fill="#FFFFFF" d="M382.523,223.584c4.086-5.123,8.2-21.735,6.597-26.146
	c-0.527-1.453-2.282-3.418-3.528-3.459c-2.393-0.082-4.266,1.72-4.365,4.396c-0.155,4.134-0.271,8.28-0.063,12.4
	C381.368,214.802,381.996,218.801,382.523,223.584z"/>
<path fill-rule="evenodd" clip-rule="evenodd" fill="#FFFFFF" d="M386.318,240.723c0.404-1.205-1.412-3.158-2.903-6.049
	c-1.998,2.535-3.735,3.85-4.027,5.428"/>
<path fill-rule="evenodd" clip-rule="evenodd" d="M384.187,225.584c-0.527-4.783-1.155-8.782-1.36-12.808
	c-0.208-4.12-0.092-8.267,0.063-12.4c0.1-2.677,1.973-4.479,4.365-4.396c1.246,0.041,3.001,2.006,3.528,3.459
	C392.387,203.849,388.272,220.461,384.187,225.584z"/>
<path fill-rule="evenodd" clip-rule="evenodd" d="M382.358,238.793c-0.496,0.142-2.625-2.548-2.421-3.646
	c0.292-1.578,2.029-2.892,4.027-5.428c1.491,2.891,3.308,4.845,2.903,6.049C386.389,237.188,384.088,238.312,382.358,238.793"/>
</svg>
