<?xml version="1.0" encoding="utf-8"?>
<!-- Generator: Adobe Illustrator 16.0.0, SVG Export Plug-In . SVG Version: 6.00 Build 0)  -->
<!DOCTYPE svg PUBLIC "-//W3C//DTD SVG 1.1//EN" "http://www.w3.org/Graphics/SVG/1.1/DTD/svg11.dtd">
<svg version="1.1" id="Layer_1" xmlns="http://www.w3.org/2000/svg" xmlns:xlink="http://www.w3.org/1999/xlink" x="0px" y="0px"
	 width="480px" height="480px" viewBox="0 0 480 480" enable-background="new 0 0 480 480" xml:space="preserve">
<g>
	<path fill="none" d="M108.404,318.271c0.918-0.471,1.417-1.547,2.514-1.738c5.185-0.9,9.506-3.829,14.138-6.021
		c3.026-1.434,3.098-2.421,0.434-4.518c-0.39-0.307-0.914-0.459-1.049-1.451c3.277-2.908,6.385-6.434,10.422-8.732
		c6.175-3.52,11.669-8.063,17.881-11.508c1.507-0.836,2.576-5.003,1.435-6.044c-1.652-1.507-3.083,0.062-4.431,0.886
		c-0.868,0.529-1.561,1.34-2.349,2.004c-3.149,2.66-6.16,5.513-9.493,7.92c-4.776,3.451-9.831,6.517-14.675,9.879
		c-1.43,0.992-2.064,1.377-3.712-0.115c-3.358-3.039-6.264-1.884-7.683,2.524c-0.04,0.122-0.049,0.256-0.094,0.376
		c-0.979,2.635-1.631,5.371-3.309,7.76c-1.308,1.863-2.192,4.035-3.178,6.109c-0.388,0.818-0.566,1.754,0.285,2.488
		C106.444,318.872,107.396,318.788,108.404,318.271z"/>
	<path fill="none" d="M130.783,20.264c-0.385,1.372-1.008,2.733-0.642,4.154c1.438,5.589,0.874,11.287,0.977,16.94
		c0.191,10.698,0.32,21.399,0.277,32.099c-0.018,4.386,0.304,8.763,0.264,13.13c-0.09,9.917-0.246,19.832-0.086,29.75
		c0.008,0.515-0.037,1.042,0.059,1.542c0.336,1.774,1.811,2.645,3.407,1.843c0.909-0.454,1.644-1.13,2.769-1.179
		c3.992-0.177,7.977-0.573,11.969-0.646c8.639-0.157,17.282-0.147,25.921-0.24c14.326-0.155,28.651-0.352,42.978-0.495
		c3.022-0.03,3.278,0.18,3.051,3.378c-0.274,3.856-0.452,7.685-0.36,11.567c0.064,2.705,0.059,5.604-0.913,8.374
		c-1.497-0.043-1.784-1.568-2.85-1.961c-1.071-0.395-2.176-1.173-3.213-0.136c-0.866,0.866-0.384,1.868-0.008,2.871
		c1.854,4.952,4.697,9.476,6.256,14.552c0.273,0.892,0.743,1.663,1.768,1.861c1.393,0.27,1.77-0.884,2.22-1.738
		c2.113-4.002,4.41-7.886,7.396-11.297c1.12-1.279,0.702-2.665,0.778-4.034c0.063-1.118-0.297-2.057-1.505-2.39
		c-1.09-0.3-2.054-0.083-2.75,0.874c-0.884,1.216-1.75,2.444-2.623,3.667c0.451-4.415,0.275-8.745,0.367-13.062
		c0.044-2.05-0.496-4.105,0.173-6.149c0.446-1.365,0.519-2.608-0.267-4.049c-0.89-1.633-0.358-2.236,1.572-2.501
		c0.634-0.087,1.288-0.042,1.932-0.052c10.439-0.166,20.881-0.311,31.32-0.504c7.468-0.138,14.946-0.679,22.397-0.418
		c6.83,0.239,13.655-0.556,20.479,0.162c1.264,0.132,2.331-0.09,3.529,0.848c1.065,0.832,3.372,1.686,4.001,1.165
		c2.089-1.732,3.86-1.102,5.991-0.456c2.102,0.638,2.898-0.18,2.752-2.338c-0.077-1.143-0.648-2.27-0.147-3.426
		c0.685-1.576,0.396-3.143,0.376-4.8c-0.061-5.154-0.833-10.247-0.939-15.39c-0.266-12.628-0.381-25.257-0.389-37.889
		c-0.011-12.633-0.829-25.273,0.578-37.883c0.06-0.513,0.133-1.03,0.123-1.543c-0.025-1.273-2.818-5.479-3.797-5.316
		c-2.816,0.473-5.548-2.379-8.393-0.12c-0.418,0.333-1.256,0.152-1.899,0.183c-5.54,0.274-11.079,0.669-16.62,0.781
		c-9.533,0.194-19.072,0.152-28.605,0.316c-8.365,0.144-16.732,0.717-25.092,0.588c-9.53-0.146-19.045,0.525-28.562,0.281
		c-9.398-0.241-18.79,0.521-28.192-0.082c-3.973-0.255-7.993-0.027-11.979,0.193c-10.567,0.584-21.127,1.1-31.667-0.306
		c-1.397-0.186-2.521,0.307-3.687,0.847c-1.551,0.719-2.292,1.775-1.056,3.314C131.526,16.766,131.272,18.515,130.783,20.264z"/>
	<path fill="none" d="M158.521,421.442c-0.239-12.258-0.054-24.523-0.054-34.764c-0.552-6.271-0.494-10.559-0.367-14.778
		c0.275-9.162-0.334-18.343,0.38-27.47c0.294-3.751-3.346-4.927-3.858-7.924c-0.029-0.168-0.938-0.26-1.438-0.26
		c-7.563-0.017-15.128-0.051-22.691-0.002c-9.801,0.064-19.497,1.758-29.309,1.871c-6.3,0.074-12.61,1.322-18.889,0.039
		c-2.991-0.609-5.932-0.496-8.84,0.013c-4.217,0.738-8.403,1.139-12.674,0.601c-2.56-0.321-5.131-0.244-7.721-0.078
		c-3.474,0.221-6.905,1.035-10.41,0.791c-4.398-0.309-8.749,0.314-13.12,0.53c-3.297,0.165-6.447,2.363-10.018,0.417
		c-1.489-0.813-3.755,0.334-4.549,1.989c-0.819,1.71-2.802,3.766-1.058,5.651c1.647,1.783,1.566,3.691,1.688,5.706
		c0.253,4.146-0.109,8.257-0.911,12.323c-3.207,16.27-2.577,32.584-0.071,48.821c1.156,7.493,1.122,14.894,0.62,22.371
		c-0.344,5.139-0.953,10.271,0.068,15.417c0.402,2.029,0.392,4.098-0.445,6.094c-0.464,1.107-0.528,2.334,0.182,3.354
		c1.101,1.58,1.239,3.352,1.246,5.152c0.007,1.762,0.76,3.299,2.386,3.551c2.509,0.389,4.99,1.316,7.603,0.884
		c5.869-0.972,11.832-0.995,17.729-1.171c9.023-0.268,18.048-0.414,27.07-0.854c9.791-0.48,19.597-0.646,29.391-1.076
		c10.948-0.482,21.888-1.156,32.834-1.652c7.341-0.334,14.688-0.556,22.035-0.714c2.025-0.042,3.141-0.716,3.333-2.811
		c0.245-2.682,1.015-5.386,0.817-8.026C158.629,444.116,158.742,432.773,158.521,421.442z"/>
	<path fill="none" d="M233.891,270.825c9.358,0.26,18.764,0.02,28.147,0.234c7.728,0,15.457,0.143,23.179-0.057
		c4.022-0.102,8.284,0.789,11.947-1.943c0.386-0.287,1.229,0.052,1.861,0.084c2.358,0.121,2.599-0.063,2.708-2.531
		c0.095-2.188,0.135-4.384,0.113-6.576c-0.283-28.635-0.683-57.272-0.049-85.905c0.084-3.808-1.129-7.581-0.082-11.406
		c0.332-1.21-0.483-2.666-1.704-2.579c-2.343,0.168-4.854-1.057-6.775-0.369c-3.228,1.155-6.563,1.212-9.777,2.069
		c-4.229,1.126-8.487,1.903-12.885,2.115c-3.489,0.169-6.974-0.229-10.43,0.038c-8.34,0.648-16.659,1.433-25.047,0.84
		c-8.375-0.591-16.768,0.277-25.143-0.051c-7.477-0.292-14.942,0.133-22.415,0.058c-6.823-0.068-13.614-0.806-20.425-0.657
		c-4.713,0.103-9.449-1.302-14.151,0.301c-1.771,0.603-2.814,3.202-1.268,3.987c2.378,1.207,1.958,3.029,1.967,4.899
		c0.028,5.669-0.066,11.335,0.396,17.002c0.138,1.694,1.249,3.163,0.903,4.885c-1.097,5.481-0.48,11.054-0.888,16.579
		c-0.465,6.297-1.246,12.564-1.659,18.87c-0.361,5.519-0.07,11.095-1.177,16.575c-0.431,2.133-0.955,4.438-0.564,6.5
		c0.66,3.479,0.443,6.937,0.634,10.402c0.085,1.538,0.324,3.07,0.514,4.604c0.247,1.982,2.009,2.89,3.217,4.074
		c0.76,0.746,1.812-0.545,2.698-1.002c1.208-0.622,2.538-0.759,3.776-0.462c3.474,0.833,6.927,0.208,10.371,0
		c9.364-0.565,18.744-0.35,28.11-0.49C211.281,270.741,222.578,270.513,233.891,270.825z"/>
	<path fill="none" d="M467.194,453.419c-1.212-3.145-1.057-6.318-1.117-9.508c-0.153-8.238-1.111-16.436-1.049-24.688
		c0.037-4.762-0.142-9.54-0.49-14.293c-1.02-13.9-0.855-27.838-1.367-41.756c-0.328-8.988-0.107-17.997-0.234-26.994
		c-0.023-1.844,0.082-3.431,1.124-5.114c1.583-2.558-0.432-6.337-3.115-5.812c-2.474,0.483-4.187-0.402-6.181-1.782
		c-1.271,2.854-3.664,2.655-6.173,2.917c-6.142,0.635-12.249,1.425-18.442,0.823c-0.616-0.06-1.262,0.235-1.898,0.333
		c-2.291,0.354-4.584,0.701-6.877,1.043c-6.023,0.9-12.102,0.783-18.156,0.801c-9.032,0.027-18.002,1.328-27.047,1.104
		c-3.239-0.08-6.483-0.087-9.727-0.029c-2.316,1.346-4.797,2.225-7.871,2.249c-2.434,0.02-4.65-0.653-6.791-1.567
		c-0.474,0.008-0.946,0.026-1.421,0.017c-1.273,0.586-2.752,0.626-4.108-0.206c-0.7,0.029-1.402,0.123-2.07,0.28
		c-3.732,0.879-5.242,3.122-4.366,6.746c0.424,1.744,0.177,3.296-0.284,4.926c-0.188,0.66-0.891,1.49,0.115,2.031
		c1.449,0.781,1.184,2.158,1.316,3.395c0.73,6.785,1.377,13.572,1.281,20.42c-0.045,3.342,0.12,6.705,0.445,10.031
		c0.684,6.953,0.926,14.008,0.227,20.85c-0.74,7.261,0.08,14.41-0.152,21.609c-0.294,9.002,0.354,18.033-0.099,27.055
		c-0.11,2.188-0.114,4.295-1.335,6.326c-1.096,1.822-0.221,3.863,1.685,4.818c1.15,0.576,2.356,1.035,3.698,1.01
		c2.293-0.041,4.562,0.172,6.887,0.063c14.141-0.657,28.299-1.028,42.453-1.431c2.702-0.078,5.46,0.492,8.111,0.151
		c7.912-1.016,15.865-0.617,23.793-1.02c6.555-0.336,13.137-0.213,19.707-0.248c2.966-0.016,5.893-0.784,8.875-0.406
		c0.876,0.111,1.709,0.071,2.516,0.717c2.193,1.753,3.178,1.727,5.722,0.211C467.037,457.145,468.063,455.665,467.194,453.419z"/>
	<path fill="none" d="M232.085,305.642c-0.583,0.011-1.167,0.004-1.748-0.032c-0.988-0.063-2.056-0.163-2.988-0.529
		c-0.269-0.105-1.036-0.497-0.504-0.886c0.182-0.133,0.335-0.29,0.503-0.436c-0.068-0.081-0.139-0.161-0.173-0.243
		c-0.18,0.368-0.476,0.7-0.742,0.722c0-3.802-0.175-7.629,0.059-11.432c0.166-2.689-0.244-5.398,0.466-8.079
		c0.647-2.444,0.118-3.155-2.069-3.547c-2.234-0.399-3.018,0.033-3.175,2.624c-0.257,4.231-0.923,8.488-0.359,12.717
		c0.352,2.637-0.022,5.107-0.527,7.704c-0.283,0.014-0.516-0.014-0.725-0.061c0.178,0.36-0.233,0.753-1.235,0.983
		c-2.207,0.508-4.665,0.469-6.888,0.029c1.257,1.369,2.298,2.896,3.329,4.432c1.792,2.666,3.408,5.452,5.245,8.084
		c1.347,1.927,2.931,1.877,4.389,0.023c0.392-0.496,0.672-1.101,0.917-1.689c1.605-3.851,3.958-7.219,6.675-10.294
		C232.387,305.706,232.236,305.672,232.085,305.642z"/>
	<path fill="none" d="M328.341,413.366c-0.242-13.536-0.693-27.069-0.998-40.604c-0.152-6.829-0.354-13.665-0.374-20.485
		c-0.017-5.506-1.001-11.067,0.362-16.582c0.361-1.461-0.048-3.09-0.543-4.574c-0.678-2.016-1.91-3.255-4.235-3.262
		c-2.71-0.011-5.401-0.088-8.099,0.374c-3.287,0.558-6.597,1.147-9.914,1.313c-9.779,0.488-19.57,0.715-29.354,1.151
		c-10.035,0.446-20.082,0.822-30.096,1.607c-6.299,0.497-12.603,0.181-18.912,0.591c-5.092,0.333-10.262,0.521-15.399,0.663
		c-9.771,0.271-19.537,1.142-29.299-0.251c-3.345-0.479-5.433,2.202-4.533,5.336c0.907,3.158,2.129,6.431-0.999,9.224
		c-0.511,0.456-0.223,1.218-0.144,1.851c0.605,4.854-0.139,9.796,1.09,14.627c0.334,1.312,0.016,2.826-0.162,4.229
		c-0.456,3.584-0.645,7.172-0.57,10.791c0.118,5.672,0.587,11.394,0.031,17.008c-0.732,7.406,1.189,14.583,1.034,21.91
		c-0.111,5.213,1.244,10.279,0.421,15.687c-0.855,5.63-1.86,11.464-0.788,17.303c0.354,1.931,0.15,3.847-2.325,4.591
		c-0.738,0.221-1.258,1.4-0.509,1.883c2.834,1.833,1.239,4.257,0.799,6.281c-0.755,3.461-0.197,4.183,3.411,3.51
		c2.021-0.377,4.076-0.686,6.125-0.761c6.175-0.229,12.362-0.116,18.525-0.69c9.852-0.917,19.751-0.676,29.624-1.088
		c9.404-0.394,18.815-0.67,28.217-1.189c4.625-0.256,9.283,0.299,13.858,0.092c6.04-0.273,12.118-0.266,17.64-0.999
		c1.792,0,3.082,0.01,4.373-0.001c4.38-0.036,8.777,0.16,13.129-0.221c2.225-0.193,4.342-0.432,6.455,0.312
		c1.02,0.358,2.021,0.688,2.906-0.125c1.831-1.685,4.148-1.978,6.434-2.354c0.927-0.152,2.024-0.335,2.291-1.193
		c0.67-2.172,2.027-4.079,1.867-6.592c-0.477-7.441-0.941-14.899-0.954-22.354C328.716,424.696,328.442,419.036,328.341,413.366z"/>
	<path fill-rule="evenodd" clip-rule="evenodd" d="M292.226,462.9c-5.521,0.733-11.6,0.726-17.64,0.999
		c-4.575,0.207-9.233-0.348-13.858-0.092c-9.402,0.52-18.813,0.796-28.217,1.189c-9.873,0.412-19.771,0.171-29.624,1.088
		c-6.163,0.574-12.35,0.461-18.525,0.69c-2.049,0.075-4.104,0.384-6.125,0.761c-3.608,0.673-4.167-0.049-3.411-3.51
		c0.44-2.024,2.035-4.448-0.799-6.281c-0.749-0.482-0.229-1.662,0.509-1.883c2.475-0.744,2.679-2.66,2.325-4.591
		c-1.072-5.839-0.067-11.673,0.788-17.303c0.823-5.407-0.532-10.474-0.421-15.687c0.156-7.327-1.766-14.504-1.034-21.91
		c0.556-5.614,0.086-11.336-0.031-17.008c-0.074-3.619,0.114-7.207,0.57-10.791c0.178-1.402,0.496-2.917,0.162-4.229
		c-1.229-4.831-0.485-9.773-1.09-14.627c-0.079-0.633-0.367-1.395,0.144-1.851c3.128-2.793,1.906-6.065,0.999-9.224
		c-0.9-3.134,1.188-5.814,4.533-5.336c9.763,1.393,19.528,0.521,29.299,0.251c5.138-0.142,10.307-0.33,15.399-0.663
		c6.309-0.41,12.612-0.094,18.912-0.591c10.014-0.785,20.061-1.161,30.096-1.607c9.783-0.437,19.574-0.663,29.354-1.151
		c3.317-0.166,6.627-0.756,9.914-1.313c2.697-0.462,5.389-0.385,8.099-0.374c2.325,0.007,3.558,1.246,4.235,3.262
		c0.495,1.484,0.904,3.113,0.543,4.574c-1.363,5.515-0.379,11.076-0.362,16.582c0.021,6.82,0.222,13.656,0.374,20.485
		c0.305,13.535,0.756,27.068,0.998,40.604c0.102,5.67,0.375,11.33,0.386,17.006c0.013,7.454,0.478,14.912,0.954,22.354
		c0.16,2.513-1.197,4.42-1.867,6.592c-0.267,0.858-1.364,1.041-2.291,1.193c-2.285,0.377-4.603,0.67-6.434,2.354
		c-0.885,0.813-1.887,0.483-2.906,0.125c-2.113-0.743-4.23-0.505-6.455-0.312c-4.352,0.381-8.749,0.185-13.129,0.221
		C295.308,462.91,294.018,462.9,292.226,462.9z M184.863,438.864c-1.121,4.373-2.114,8.086-3.011,11.821
		c-0.402,1.671,0.208,3.318,0.38,4.978c0.221,2.125,1.44,2.855,3.356,2.891c3.744,0.068,7.51,0.441,11.224,0.143
		c10.296-0.832,20.599-0.186,30.893-0.446c6.051-0.153,12.104-0.222,18.151-0.472c4.5-0.184,8.998-0.936,13.484-0.84
		c8.249,0.179,16.472-0.637,24.71-0.421c6.072,0.158,12.151-0.944,18.153-0.508c6.264,0.457,12.277-1.308,18.477-1.042
		c2.437,0.104,3.045-0.841,3.263-3.396c0.174-2.052,0.191-4.125,0.179-6.188c-0.023-4.507-0.223-9.018-0.146-13.523
		c0.111-6.584,0.021-13.158-0.216-19.738c-0.386-10.703-1.013-21.415-0.909-32.115c0.126-12.782-0.698-25.514-1.193-38.264
		c-0.184-4.707-1.008-5.491-5.82-5.813c-3.212-0.215-6.458-0.285-9.67-0.1c-7.596,0.441-15.191,0.761-22.795,0.482
		c-10.402-0.38-20.783-0.056-31.176,0.387c-5.793,0.248-11.535,1.099-17.353,1.049c-7.318-0.061-14.639,0.158-21.958,0.305
		c-4.491,0.092-8.993,0.534-13.469,0.348c-4.52-0.186-8.938,1.006-13.453,0.581c-1.705-0.161-2.615,0.853-2.672,2.579
		c-0.021,0.645-0.078,1.291-0.061,1.936c0.275,10.564-0.484,21.124,0.111,31.704c0.469,8.343,0.782,16.731-0.083,25.088
		c-0.347,3.357,0.653,6.724,0.449,9.922c-0.327,5.136-0.382,10.278-0.686,15.409c-0.092,1.546,0.129,3.014,0.437,4.555
		c0.648,3.252,3.222,5,5.098,7.239c1.077,1.284,2.865,2.439,4.789,0.963c2.758-2.12,5.885-3.744,8.383-6.208
		c4.305-4.254,8.611-8.506,12.879-12.795c1.544-1.555,2.863-3.35,4.504-4.781c1.564-1.365,3.345-2.434,3.52-4.799
		c0.064-0.865,0.757-1.213,1.504-1.569c3.908-1.868,5.606-1.221,7.075,2.858c1.01,2.805,1.458,5.747,2.01,8.663
		c0.219,1.157,0.086,2.531,1.501,3.347c2.52-7.93,3.861-15.881,4.32-23.945c0.317-5.538,1.912-10.938,1.623-16.529
		c-0.02-0.355,0.133-0.818,0.371-1.071c1.316-1.392,1.863-2.972,1.748-4.913c-0.067-1.099,0.705-2.076,1.869-2.102
		c1.315-0.029,2.117,0.781,2.134,2.21c0.013,1.044,0.121,2.138,0.798,2.945c1.813,2.153,2.277,4.856,3.261,7.361
		c1.049,2.665,2.122,5.386,4.249,7.829c2.615-4.186,3.184-8.727,4.662-12.912c1.844-5.218,3.21-10.612,4.586-15.981
		c0.703-2.739,1.823-4.657,4.906-5.116c1.349-0.202,2.73-0.92,3.85-1.738c3.936-2.885,7.77-5.908,11.625-8.902
		c0.144-0.111,0.103-0.463,0.144-0.701c-0.132-0.422-0.466-0.6-0.86-0.636c-2.289-0.204-2.994-1.837-3.17-3.739
		c-0.145-1.576,1.383-3.229,3.582-3.4c3.779-0.296,7.275-1.611,10.907-2.424c2.614-0.586,5.346-0.641,8.02-1.076
		c2.735-0.447,3.534,1.022,2.336,3.734c-0.202,0.459-0.685,1.014-0.563,1.359c0.896,2.594-0.995,4.145-2.208,5.845
		c-2.097,2.937-4.399,5.727-6.641,8.556c-0.477,0.603-0.998,1.214-1.618,1.646c-1.2,0.838-2.308,0.22-2.37-1.255
		c-0.053-1.229,0.497-2.245,1.193-3.199c0.761-1.041,1.496-2.104,2.299-3.113c0.659-0.833,0.225-1.358-0.338-1.978
		c-0.707-0.78-1.326-0.547-1.977,0.019c-1.26,1.095-2.523,2.128-3.998,2.991c-3.201,1.877-6.266,3.995-9.301,6.137
		c-1.881,1.326-3.75,2.688-4.447,5.151c-0.503,1.78-2.152,2.853-3.768,2.98c-3.701,0.294-4.889,2.829-5.914,5.697
		c-0.479,1.335-0.974,2.665-1.381,4.019c-2.263,7.522-4.477,15.057-6.237,22.718c-0.312,1.353-0.366,2.88-2.305,3.101
		c-1.866,0.212-2.865-0.985-3.758-2.241c-0.507-0.712-0.702-1.65-1.024-2.491c-1.334-3.494-2.634-7.006-4.014-10.481
		c-0.441-1.114-0.815-2.44-2.462-2.524c-0.774,1.484-0.386,2.954-0.673,4.327c-2.368,11.375-4.33,22.818-5.599,34.372
		c-0.225,2.052-0.339,4.115-0.597,6.161c-0.332,2.621-2.148,3.782-4.679,3.081c-2.092-0.58-3.192-2.168-3.202-4.558
		c-0.017-4.157-1.002-8.181-1.837-12.21c-0.426-2.059-1.072-2.219-2.582-0.947c-1.871,1.577-3.771,3.15-5.453,4.918
		c-7.018,7.385-13.958,14.842-20.927,22.271c-0.791,0.844-1.588,1.617-1.502,2.982c0.101,1.621,0.548,3.606-1.513,4.343
		c-1.553,0.554-3.075,1.436-4.8,1.37c-2.173-0.082-3.468-1.915-2.601-3.573c1.581-3.024,1.598-3.04-0.588-5.344
		C187.421,441.194,186.452,440.358,184.863,438.864z M209.998,428.173c-4.843,2.131-12.794,10.59-13.354,13.852
		C201.427,437.063,205.713,432.62,209.998,428.173z M213.034,424.095c0.72-0.154,0.946-0.484,0.973-0.875
		c0.022-0.32-0.235-0.373-0.511-0.124c-0.188,0.171-0.424,0.327-0.523,0.546C212.839,423.933,213.011,424.097,213.034,424.095z"/>
	<path fill-rule="evenodd" clip-rule="evenodd" d="M225.921,142.75c0.874-1.223,1.739-2.451,2.623-3.667
		c0.696-0.956,1.66-1.173,2.75-0.874c1.208,0.333,1.568,1.271,1.505,2.39c-0.076,1.369,0.342,2.755-0.778,4.034
		c-2.986,3.411-5.283,7.295-7.396,11.297c-0.45,0.854-0.828,2.008-2.22,1.738c-1.025-0.198-1.495-0.969-1.768-1.861
		c-1.559-5.076-4.403-9.6-6.256-14.552c-0.375-1.003-0.858-2.005,0.008-2.871c1.038-1.037,2.143-0.258,3.213,0.136
		c1.066,0.393,1.354,1.917,2.85,1.961c0.971-2.77,0.977-5.669,0.913-8.374c-0.091-3.882,0.086-7.711,0.36-11.567
		c0.228-3.198-0.029-3.408-3.051-3.378c-14.326,0.143-28.651,0.34-42.978,0.495c-8.64,0.093-17.282,0.083-25.921,0.24
		c-3.992,0.072-7.977,0.469-11.969,0.646c-1.125,0.049-1.86,0.725-2.769,1.179c-1.597,0.802-3.071-0.069-3.407-1.843
		c-0.095-0.5-0.051-1.028-0.059-1.542c-0.16-9.918-0.004-19.833,0.086-29.75c0.04-4.368-0.281-8.744-0.264-13.13
		c0.043-10.699-0.086-21.4-0.277-32.099c-0.103-5.653,0.462-11.351-0.977-16.94c-0.366-1.421,0.257-2.783,0.642-4.154
		c0.489-1.749,0.743-3.498-0.563-5.122c-1.237-1.539-0.495-2.596,1.056-3.314c1.166-0.54,2.29-1.033,3.687-0.847
		c10.54,1.406,21.1,0.891,31.667,0.306c3.987-0.22,8.006-0.448,11.979-0.193c9.402,0.604,18.794-0.159,28.192,0.082
		c9.517,0.244,19.032-0.427,28.562-0.281c8.359,0.129,16.727-0.444,25.092-0.588c9.533-0.164,19.072-0.122,28.605-0.316
		c5.541-0.112,11.08-0.507,16.62-0.781c0.644-0.031,1.481,0.149,1.899-0.183c2.845-2.259,5.576,0.593,8.393,0.12
		c0.979-0.164,3.771,4.043,3.797,5.316c0.01,0.514-0.063,1.03-0.123,1.543c-1.407,12.609-0.589,25.25-0.578,37.883
		c0.008,12.631,0.123,25.26,0.389,37.889c0.106,5.143,0.879,10.235,0.939,15.39c0.02,1.657,0.309,3.224-0.376,4.8
		c-0.501,1.156,0.07,2.283,0.147,3.426c0.146,2.159-0.65,2.976-2.752,2.338c-2.131-0.646-3.902-1.276-5.991,0.456
		c-0.629,0.521-2.936-0.333-4.001-1.165c-1.198-0.938-2.266-0.715-3.529-0.848c-6.824-0.718-13.649,0.077-20.479-0.162
		c-7.451-0.26-14.93,0.28-22.397,0.418c-10.439,0.193-20.881,0.338-31.32,0.504c-0.645,0.01-1.298-0.035-1.932,0.052
		c-1.93,0.265-2.462,0.868-1.572,2.501c0.786,1.441,0.713,2.685,0.267,4.049c-0.668,2.044-0.129,4.099-0.173,6.149
		C226.196,134.005,226.372,138.335,225.921,142.75z M207.624,111.003c2.449,0,4.899-0.01,7.348,0.002
		c9.553,0.045,19.045-1.181,28.584-1.395c1.535-0.034,2.391-0.583,2.531-2.215c0.34-3.979,0.809-7.946,1.15-11.924
		c0.67-7.832,0.093-15.688,0.545-23.543c0.695-12.104,0.543-24.247,0.32-36.377c-0.081-4.381,0.185-8.733-1.829-12.895
		c-1.012-2.097-0.126-3.304,2.066-4.156c1.562-0.606,3.094-0.323,4.55,0.166c3.667,1.232,7.4,0.904,11.1,0.508
		c7.965-0.852,15.926-0.681,23.912-0.46c4.465,0.123,8.982-0.147,13.408-0.737c2.86-0.381,4.98,0.75,7.195,2.003
		c0.789,0.446,0.812,1.247,0.303,2.006c-1.688,2.519-1.584,5.407-1.597,8.23c-0.047,10.969-0.039,21.939-0.02,32.909
		c0.016,7.967,0.561,15.924,0.283,23.903c-0.093,2.634-0.125,5.337,0.522,7.972c0.996,4.057-0.175,5.349-4.47,5.284
		c-5.672-0.087-11.347-0.154-17.019-0.098c-5.674,0.054-11.36,0.557-17.02,0.337c-5.678-0.221-11.104,1.568-16.752,1.466
		c-3.346-0.06-3.756,0.862-2.723,4.081c1.064,3.318,1.064,3.343,4.388,3.529c1.797,0.1,3.603,0.179,5.4,0.127
		c2.19-0.064,4.375-0.314,6.563-0.412c2.061-0.092,4.127-0.055,6.186-0.14c2.192-0.09,4.387-0.441,6.564-0.339
		c2.205,0.104,4.369,0.078,6.547-0.253c2.064-0.313,4.182-0.403,6.117,0.392c1.874,0.77,2.893-1.426,4.588-0.997
		c1.801,0.454,3.568-0.07,5.354-0.228c1.844-0.163,3.162-0.4,3.063-2.887c-0.072-1.825,1.051-2.132,2.405-0.623
		c1.026,1.145,2.277,1.629,3.573,2.15c1.707,0.687,2.739-0.006,3.117-1.739c0.162-0.752,0.258-1.523,0.33-2.29
		c0.672-7.071,0.49-14.168,0.573-21.252c0.104-8.888-0.146-17.78,0.005-26.667c0.109-6.452-0.135-12.89-0.25-19.333
		c-0.067-3.746-0.197-7.503-1.271-11.121c-0.57-1.916-0.611-3.751-0.239-5.7c0.519-2.723,0.214-3.121-2.659-3.204
		c-6.7-0.194-13.404-0.278-20.106-0.386c-2.192-0.035-4.435-0.321-6.558,0.271c-4.219,1.178-8.326,1.987-12.678,0.313
		c-1.577-0.606-3.555-0.207-5.35-0.197c-9.273,0.054-18.547,0.121-27.82,0.201c-11.842,0.103-23.684,0.247-35.525,0.326
		c-5.662,0.038-11.325-0.053-16.987-0.045c-4.644,0.006-9.288,0.085-13.933,0.102c-1.459,0.004-2.614,0.542-3.903,1.253
		c-0.982,0.542-1.998-1.33-3.602-1.293c-8.104,0.187-16.214,0.102-24.322,0.177c-1.435,0.014-2.626,0.461-1.743,2.375
		c0.441,0.958,0.383,1.976,0.112,3.026c-1.838,7.09-1.081,14.349-1.049,21.52c0.018,4.089,0.498,8.206,0.52,12.336
		c0.022,4.016-2.033,7.982-0.246,12.058c0.186,0.424-0.311,1.219-0.616,1.773c-0.979,1.78-0.941,3.658-0.892,5.622
		c0.099,3.895,1.67,7.595,1.657,11.426c-0.024,6.56-0.091,13.115,0.068,19.676c0.114,4.672,0.729,5.663,5.249,5.562
		c9.419-0.21,18.826,0.191,28.239,0.277C183.133,111.569,195.37,110.514,207.624,111.003z M304.825,49.926c0.043,0,0.086,0,0.129,0
		c0-2.192,0.053-4.386-0.01-6.577c-0.162-5.541-0.096-11.103-0.949-16.598c-0.65-4.185-2.164-5.358-6.307-4.741
		c-4.197,0.625-8.409,0.107-12.627,0.406c-5.521,0.39-11.152-0.317-16.746-0.331c-4.387-0.011-8.773-0.128-13.16-0.124
		c-0.953,0-2.232-0.393-2.722,0.864c-0.726,1.861-1.823,3.474-1.905,5.712c-0.238,6.447-0.094,12.88-0.044,19.321
		c0.097,12.499,0.02,24.998,0.158,37.496c0.033,2.959-0.212,5.92,0.138,8.893c0.233,1.996,1.125,3.25,3.028,3.146
		c2.835-0.157,5.507,0.732,8.288,0.895c3.869,0.226,7.717-0.198,11.594-0.071c8.628,0.279,17.276,0.155,25.819-1.362
		c3.29-0.584,4.282-1.81,4.339-5.231c0.126-7.717-0.025-15.412,0.84-23.137C305.372,62.372,304.825,56.119,304.825,49.926z"/>
	<path fill-rule="evenodd" clip-rule="evenodd" d="M158.467,386.679c0,10.24-0.186,22.506,0.054,34.764
		c0.222,11.331,0.108,22.674,0.956,33.996c0.198,2.641-0.572,5.345-0.817,8.026c-0.191,2.095-1.308,2.769-3.333,2.811
		c-7.347,0.158-14.694,0.38-22.035,0.714c-10.947,0.496-21.886,1.17-32.834,1.652c-9.793,0.431-19.6,0.596-29.391,1.076
		c-9.021,0.439-18.047,0.586-27.07,0.854c-5.896,0.176-11.86,0.199-17.729,1.171c-2.613,0.433-5.094-0.495-7.603-0.884
		c-1.626-0.252-2.379-1.789-2.386-3.551c-0.007-1.801-0.145-3.572-1.246-5.152c-0.709-1.02-0.646-2.246-0.182-3.354
		c0.837-1.996,0.847-4.064,0.445-6.094c-1.021-5.146-0.412-10.278-0.068-15.417c0.502-7.478,0.537-14.878-0.62-22.371
		c-2.506-16.237-3.136-32.552,0.071-48.821c0.801-4.066,1.164-8.178,0.911-12.323c-0.122-2.015-0.041-3.923-1.688-5.706
		c-1.744-1.886,0.238-3.941,1.058-5.651c0.794-1.655,3.06-2.802,4.549-1.989c3.571,1.946,6.721-0.252,10.018-0.417
		c4.372-0.216,8.722-0.839,13.12-0.53c3.505,0.244,6.936-0.57,10.41-0.791c2.59-0.166,5.162-0.243,7.721,0.078
		c4.271,0.538,8.457,0.138,12.674-0.601c2.909-0.509,5.849-0.622,8.84-0.013c6.279,1.283,12.589,0.035,18.889-0.039
		c9.813-0.113,19.508-1.807,29.309-1.871c7.563-0.049,15.128-0.015,22.691,0.002c0.5,0,1.409,0.092,1.438,0.26
		c0.513,2.997,4.153,4.173,3.858,7.924c-0.714,9.127-0.105,18.308-0.38,27.47C157.973,376.12,157.915,380.408,158.467,386.679z
		 M20.712,406.772c0.394,6.949,0.383,15.459,0.292,23.98c-0.092,8.638,0.351,17.283,0.313,25.923
		c-0.014,3.096,1.508,5.062,3.928,6.044c2.3,0.932,4.869,1.803,7.498,1.075c5.391-1.49,10.966-1.402,16.461-1.813
		c8.86-0.66,17.752-0.922,26.631-1.298c8.14-0.345,16.223-0.535,24.322,0.266c2.443,0.241,4.875,0.354,7.333,0.336
		c9.145-0.065,18.135-2.777,27.35-1.566c0.124,0.017,0.259-0.011,0.384-0.038c4.661-1.006,9.276-1.871,14.126-0.881
		c2.522,0.515,4.069-1.208,4.096-3.771c0.036-3.699,0.128-7.401,0.153-11.093c0.102-15.225-0.065-30.45-0.202-45.677
		c-0.159-17.661-0.25-35.326-2.227-52.91c-0.307-2.72-0.313-2.869-2.971-2.59c-3.335,0.352-6.651,0.896-10.02,0.719
		c-5.425-0.284-10.846-0.227-16.219,0.575c-6.254,0.934-12.552,0.815-18.837,0.979c-2.741,0.07-5.341,0.627-7.994,1.195
		c-4.423,0.951-8.888,1.217-13.456,0.697c-3.942-0.447-8.167-1.047-11.904-0.119c-8.135,2.023-16.389,1.4-24.563,2.151
		c-6.93,0.635-13.911,0.056-20.868-0.075c-2.868-0.053-3.071,0.079-3.356,2.934c-0.205,2.051-0.307,4.123-0.273,6.184
		c0.093,5.671,0.093,11.351,0.124,17.019C20.889,385.079,20.571,395.146,20.712,406.772z"/>
	<path fill-rule="evenodd" clip-rule="evenodd" d="M467.194,453.419c-1.212-3.145-1.057-6.318-1.117-9.508
		c-0.153-8.238-1.111-16.436-1.049-24.688c0.037-4.762-0.142-9.54-0.49-14.293c-1.02-13.9-0.855-27.838-1.367-41.756
		c-0.328-8.988-0.107-17.997-0.234-26.994c-0.023-1.844,0.082-3.431,1.124-5.114c1.583-2.558-0.432-6.337-3.115-5.812
		c-2.474,0.483-4.187-0.402-6.181-1.782c-1.271,2.854-3.664,2.655-6.173,2.917c-6.142,0.635-12.249,1.425-18.442,0.823
		c-0.616-0.06-1.262,0.235-1.898,0.333c-2.291,0.354-4.584,0.701-6.877,1.043c-6.023,0.9-12.102,0.783-18.156,0.801
		c-9.032,0.027-18.002,1.328-27.047,1.104c-3.239-0.08-6.483-0.087-9.727-0.029c-2.316,1.346-4.797,2.225-7.871,2.249
		c-2.434,0.02-4.65-0.653-6.791-1.567c-0.474,0.008-0.946,0.026-1.421,0.017c-1.273,0.586-2.752,0.626-4.108-0.206
		c-0.7,0.029-1.402,0.123-2.07,0.28c-3.732,0.879-5.242,3.122-4.366,6.746c0.424,1.744,0.177,3.296-0.284,4.926
		c-0.188,0.66-0.891,1.49,0.115,2.031c1.449,0.781,1.184,2.158,1.316,3.395c0.73,6.785,1.377,13.572,1.281,20.42
		c-0.045,3.342,0.12,6.705,0.445,10.031c0.684,6.953,0.926,14.008,0.227,20.85c-0.74,7.261,0.08,14.41-0.152,21.609
		c-0.294,9.002,0.354,18.033-0.099,27.055c-0.11,2.188-0.114,4.295-1.335,6.326c-1.096,1.822-0.221,3.863,1.685,4.818
		c1.15,0.576,2.356,1.035,3.698,1.01c2.293-0.041,4.562,0.172,6.887,0.063c14.141-0.657,28.299-1.028,42.453-1.431
		c2.702-0.078,5.46,0.492,8.111,0.151c7.912-1.016,15.865-0.617,23.793-1.02c6.555-0.336,13.137-0.213,19.707-0.248
		c2.966-0.016,5.893-0.784,8.875-0.406c0.876,0.111,1.709,0.071,2.516,0.717c2.193,1.753,3.178,1.727,5.722,0.211
		C467.037,457.145,468.063,455.665,467.194,453.419z M457.775,449.381c-0.171,1.507-0.728,2.067-2.057,2.187
		c-3.071,0.277-6.14,0.688-9.216,0.796c-11.335,0.395-22.676,0.623-34.01,1.04c-12.491,0.462-24.982,0.5-37.478,0.582
		c-6.946,0.043-13.915,0.128-20.87,0.4c-3.33,0.129-3.354-0.006-3.902-3.313c-0.977-5.879-1.085-11.809-1.072-17.742
		c0.025-11.104-0.313-22.186-0.854-33.279c-0.49-10.043-0.337-20.118-0.521-30.18c-0.126-6.836-0.386-13.673-0.497-20.512
		c-0.05-2.951,0.032-5.912,0.221-8.859c0.144-2.209,0.793-2.631,2.994-2.32c0.891,0.126,1.872,0.199,2.617,0.631
		c1.151,0.67,1.94,0.763,2.957-0.285c0.965-0.995,2.396-0.715,3.688-0.746c6.295-0.16,12.602-0.186,18.883-0.574
		c6.906-0.427,13.832-0.889,20.684-1.679c2.998-0.347,5.795,0.337,8.674,0.039c1.021-0.105,2.444,0.653,2.443-1.415
		c-0.002-0.852,0.979-0.633,1.555-0.646c3.74-0.085,7.485-0.258,11.221-0.158c7.487,0.203,14.945-0.153,22.359-1.15
		c2.865-0.385,5.643,0.431,8.479,0.166c1.122-0.105,1.521,0.864,1.626,1.809c0.271,2.436,0.632,4.875,0.68,7.315
		c0.209,11.091,0.148,22.188,0.544,33.267c0.212,5.93,0.43,11.86,0.516,18.391c0.687,13.708,0.558,28.029,0.906,42.344
		C458.46,440.126,458.302,444.755,457.775,449.381z M461.679,391.025c-0.045-0.005-0.09-0.013-0.134-0.019v-5.246
		c0.044-0.004,0.089-0.008,0.134-0.011V391.025z"/>
	<path fill-rule="evenodd" clip-rule="evenodd" d="M262.038,271.06c-9.383-0.215-18.789,0.025-28.147-0.234
		c-11.313-0.313-22.61-0.084-33.898,0.089c-9.366,0.141-18.746-0.075-28.11,0.49c-3.443,0.208-6.896,0.833-10.371,0
		c-1.238-0.297-2.569-0.16-3.776,0.462c-0.886,0.457-1.938,1.748-2.698,1.002c-1.208-1.185-2.971-2.092-3.217-4.074
		c-0.19-1.533-0.429-3.065-0.514-4.604c-0.191-3.466,0.026-6.924-0.634-10.402c-0.39-2.063,0.133-4.367,0.564-6.5
		c1.106-5.48,0.815-11.057,1.177-16.575c0.413-6.306,1.194-12.573,1.659-18.87c0.407-5.525-0.209-11.098,0.888-16.579
		c0.345-1.722-0.765-3.191-0.903-4.885c-0.461-5.667-0.367-11.333-0.396-17.002c-0.009-1.87,0.411-3.692-1.967-4.899
		c-1.546-0.785-0.503-3.384,1.268-3.987c4.703-1.603,9.438-0.198,14.151-0.301c6.811-0.149,13.602,0.589,20.425,0.657
		c7.473,0.076,14.938-0.35,22.415-0.058c8.375,0.328,16.767-0.541,25.143,0.051c8.388,0.593,16.708-0.192,25.047-0.84
		c3.456-0.268,6.94,0.131,10.43-0.038c4.397-0.212,8.655-0.989,12.885-2.115c3.214-0.857,6.55-0.914,9.777-2.069
		c1.921-0.688,4.433,0.537,6.775,0.369c1.221-0.087,2.036,1.368,1.704,2.579c-1.047,3.825,0.166,7.598,0.082,11.406
		c-0.634,28.633-0.234,57.27,0.049,85.905c0.021,2.192-0.019,4.388-0.113,6.576c-0.109,2.469-0.35,2.652-2.708,2.531
		c-0.632-0.032-1.476-0.371-1.861-0.084c-3.663,2.732-7.925,1.842-11.947,1.943C277.495,271.202,269.766,271.06,262.038,271.06z
		 M203.832,170.452c-5.805,0-11.61-0.048-17.414,0.012c-7.61,0.077-15.219,0.307-22.828,0.319c-2.139,0.003-2.985,0.816-3.202,2.848
		c-0.681,6.405-1.744,12.776-1.57,19.251c0.12,4.515,0.277,9.029,0.306,13.544c0.063,9.81,0.05,19.62,0.079,29.431
		c0.005,1.804-0.026,3.601,0.334,5.398c0.873,4.35,0.667,8.797-0.018,13.074c-0.541,3.373,0.565,6.365,0.768,9.539
		c0.049,0.76,0.652,1.125,1.307,1.211c2.422,0.312,4.887,0.959,7.273,0.753c8.078-0.698,16.151,0.233,24.276-0.582
		c8.151-0.817,16.471,0.159,24.714,0.087c3.624-0.033,7.219,0.375,10.824,0.309c10.188-0.189,20.372-0.686,30.557-0.638
		c4.776,0.022,9.495-0.622,14.276-0.491c6.438,0.175,12.892-0.073,19.32-0.664c2.581-0.235,3.843-1.315,3.709-3.9
		c-0.113-2.217,0.234-4.366,0.296-6.548c0.402-14.313,0.433-28.625,0.259-42.941c-0.131-10.693-0.118-21.389-0.791-32.066
		c-0.074-1.198,0.191-2.248,0.438-3.379c0.615-2.848-0.748-4.535-3.671-4.454c-4.366,0.121-8.726,0.158-13.096,0.057
		c-7.606-0.177-15.214,0.133-22.817,0.162c-8.107,0.031-16.209-0.807-24.333-0.474C223.164,170.706,213.497,170.367,203.832,170.452
		z"/>
	<path d="M349.712,308.133c-0.861-2.383-1.548-4.82-2.093-7.294c-0.321-1.322-0.626-2.776-0.873-4.286
		c-0.446-0.77-0.993-1.434-1.779-1.98c-0.021,0.029-0.044,0.052-0.069,0.056c-1.158,0.198-2.618-0.641-3.283,1.125
		c-0.62,1.646-0.988,3.225,0.457,4.645c1.209,1.186,2.114,2.475,1.698,4.605c-8.033-6.404-15.185-13.268-21.299-21.272
		c-1.542-1.568-3.055-3.166-4.587-4.745c-1.073-0.434-1.944-0.908-2.308-2.27c-0.012-0.042-0.024-0.079-0.035-0.121
		c-0.121-0.096-0.241-0.192-0.362-0.289c-0.087-0.069-0.126-0.136-0.142-0.201c-1.131-0.954-2.332-1.821-3.494-2.734
		c-0.604,0.286-1.271,0.765-2.013,1.447c-1.319,1.213-2.369,2.106-4.235,1.777c-0.161-0.028-0.315-0.022-0.464,0.002
		c1.85,0.884,3.562,2.022,4.993,3.512c0.102,0.086,0.194,0.183,0.294,0.271c1.426,0.369,2.631,1.235,3.598,2.457
		c6.819,8.608,15.538,15.354,22.854,23.467c0.382,0.424,1.122,0.689,0.804,1.52c-1.034,0.24-1.632-0.545-2.375-0.983
		c-1.661-0.98-3.267-2.042-5.169-2.577c-1.481-0.416-2.594-0.146-3.146,1.321c-0.558,1.481,0.06,2.534,1.551,2.979
		c1.771,0.526,3.31,1.472,4.702,2.618c0.738,0.607,1.466,1.228,2.2,1.84c2.657,1.208,5.348,2.348,8.063,3.425
		c2.971,1.178,5.911,2.849,8.885,4.173C351.494,316.488,350.789,312.174,349.712,308.133z"/>
	<path fill-rule="evenodd" clip-rule="evenodd" d="M124.44,304.542c0.135,0.992,0.659,1.145,1.049,1.451
		c2.665,2.097,2.592,3.084-0.434,4.518c-4.632,2.192-8.953,5.121-14.138,6.021c-1.096,0.191-1.595,1.268-2.514,1.738
		c-1.008,0.518-1.96,0.602-2.865-0.182c-0.851-0.734-0.672-1.67-0.285-2.488c0.986-2.074,1.87-4.246,3.178-6.109
		c1.678-2.389,2.33-5.125,3.309-7.76c0.044-0.12,0.054-0.254,0.094-0.376c1.419-4.408,4.324-5.563,7.683-2.524
		c1.648,1.492,2.282,1.107,3.712,0.115c4.844-3.362,9.899-6.428,14.675-9.879c3.333-2.407,6.344-5.26,9.493-7.92
		c0.788-0.664,1.481-1.475,2.349-2.004c1.349-0.824,2.779-2.393,4.431-0.886c1.141,1.041,0.072,5.208-1.435,6.044
		c-6.212,3.445-11.707,7.988-17.881,11.508C130.825,298.108,127.717,301.634,124.44,304.542z"/>
	<path fill-rule="evenodd" clip-rule="evenodd" d="M232.085,305.642c-0.583,0.011-1.167,0.004-1.748-0.032
		c-0.988-0.063-2.056-0.163-2.988-0.529c-0.269-0.105-1.036-0.497-0.504-0.886c0.182-0.133,0.335-0.29,0.503-0.436
		c-0.068-0.081-0.139-0.161-0.173-0.243c-0.18,0.368-0.476,0.7-0.742,0.722c0-3.802-0.175-7.629,0.059-11.432
		c0.166-2.689-0.244-5.398,0.466-8.079c0.647-2.444,0.118-3.155-2.069-3.547c-2.234-0.399-3.018,0.033-3.175,2.624
		c-0.257,4.231-0.923,8.488-0.359,12.717c0.352,2.637-0.022,5.107-0.527,7.704c-0.283,0.014-0.516-0.014-0.725-0.061
		c0.178,0.36-0.233,0.753-1.235,0.983c-2.207,0.508-4.665,0.469-6.888,0.029c1.257,1.369,2.298,2.896,3.329,4.432
		c1.792,2.666,3.408,5.452,5.245,8.084c1.347,1.927,2.931,1.877,4.389,0.023c0.392-0.496,0.672-1.101,0.917-1.689
		c1.605-3.851,3.958-7.219,6.675-10.294C232.387,305.706,232.236,305.672,232.085,305.642z"/>
	<path fill-rule="evenodd" clip-rule="evenodd" fill="none" d="M184.863,438.864c1.588,1.494,2.558,2.33,3.435,3.251
		c2.186,2.304,2.168,2.319,0.588,5.344c-0.867,1.658,0.428,3.491,2.601,3.573c1.726,0.065,3.248-0.816,4.8-1.37
		c2.061-0.736,1.614-2.722,1.513-4.343c-0.086-1.365,0.711-2.139,1.502-2.982c6.969-7.43,13.909-14.887,20.927-22.271
		c1.682-1.768,3.582-3.341,5.453-4.918c1.509-1.271,2.155-1.111,2.582,0.947c0.835,4.029,1.82,8.053,1.837,12.21
		c0.01,2.39,1.11,3.978,3.202,4.558c2.531,0.701,4.348-0.46,4.679-3.081c0.258-2.046,0.373-4.109,0.597-6.161
		c1.269-11.554,3.23-22.997,5.599-34.372c0.287-1.373-0.102-2.843,0.673-4.327c1.646,0.084,2.021,1.41,2.462,2.524
		c1.38,3.476,2.68,6.987,4.014,10.481c0.322,0.841,0.518,1.779,1.024,2.491c0.893,1.256,1.892,2.453,3.758,2.241
		c1.938-0.221,1.993-1.748,2.305-3.101c1.761-7.661,3.975-15.195,6.237-22.718c0.407-1.354,0.902-2.684,1.381-4.019
		c1.025-2.868,2.213-5.403,5.914-5.697c1.615-0.128,3.265-1.2,3.768-2.98c0.697-2.464,2.566-3.825,4.447-5.151
		c3.035-2.142,6.1-4.26,9.301-6.137c1.475-0.863,2.738-1.896,3.998-2.991c0.65-0.565,1.27-0.799,1.977-0.019
		c0.563,0.619,0.997,1.145,0.338,1.978c-0.803,1.009-1.538,2.072-2.299,3.113c-0.696,0.954-1.246,1.97-1.193,3.199
		c0.063,1.475,1.17,2.093,2.37,1.255c0.62-0.433,1.142-1.044,1.618-1.646c2.241-2.829,4.544-5.619,6.641-8.556
		c1.213-1.7,3.104-3.251,2.208-5.845c-0.122-0.346,0.36-0.9,0.563-1.359c1.198-2.712,0.399-4.182-2.336-3.734
		c-2.674,0.436-5.405,0.49-8.02,1.076c-3.632,0.813-7.128,2.128-10.907,2.424c-2.199,0.172-3.727,1.824-3.582,3.4
		c0.176,1.902,0.881,3.535,3.17,3.739c0.395,0.036,0.729,0.214,0.862,0.634c-0.043,0.24-0.002,0.592-0.146,0.703
		c-3.855,2.994-7.689,6.018-11.625,8.902c-1.119,0.818-2.501,1.536-3.85,1.738c-3.083,0.459-4.203,2.377-4.906,5.116
		c-1.376,5.369-2.742,10.764-4.586,15.981c-1.479,4.186-2.047,8.727-4.662,12.912c-2.127-2.443-3.2-5.164-4.249-7.829
		c-0.983-2.505-1.447-5.208-3.261-7.361c-0.677-0.808-0.785-1.901-0.798-2.945c-0.017-1.429-0.818-2.239-2.134-2.21
		c-1.164,0.025-1.937,1.003-1.869,2.102c0.115,1.941-0.432,3.521-1.748,4.913c-0.238,0.253-0.391,0.716-0.371,1.071
		c0.289,5.591-1.306,10.991-1.623,16.529c-0.459,8.064-1.801,16.016-4.32,23.945c-1.415-0.815-1.282-2.189-1.501-3.347
		c-0.552-2.916-1-5.858-2.01-8.663c-1.469-4.079-3.167-4.727-7.075-2.858c-0.747,0.356-1.439,0.704-1.504,1.569
		c-0.175,2.365-1.956,3.434-3.52,4.799c-1.641,1.432-2.959,3.227-4.504,4.781c-4.268,4.289-8.574,8.541-12.879,12.795
		c-2.498,2.464-5.625,4.088-8.383,6.208c-1.924,1.477-3.711,0.321-4.789-0.963c-1.875-2.239-4.449-3.987-5.098-7.239
		c-0.308-1.541-0.528-3.009-0.437-4.555c0.303-5.131,0.358-10.273,0.686-15.409c0.204-3.198-0.796-6.564-0.449-9.922
		c0.865-8.356,0.552-16.745,0.083-25.088c-0.596-10.58,0.164-21.14-0.111-31.704c-0.017-0.645,0.04-1.291,0.061-1.936
		c0.057-1.727,0.967-2.74,2.672-2.579c4.514,0.425,8.933-0.767,13.453-0.581c4.477,0.187,8.978-0.256,13.469-0.348
		c7.319-0.146,14.64-0.365,21.958-0.305c5.818,0.05,11.56-0.801,17.353-1.049c10.393-0.442,20.773-0.767,31.176-0.387
		c7.604,0.278,15.199-0.041,22.795-0.482c3.212-0.186,6.458-0.115,9.67,0.1c4.813,0.321,5.637,1.105,5.82,5.813
		c0.495,12.75,1.319,25.481,1.193,38.264c-0.104,10.7,0.523,21.412,0.909,32.115c0.236,6.58,0.327,13.154,0.216,19.738
		c-0.076,4.506,0.123,9.017,0.146,13.523c0.013,2.063-0.005,4.137-0.179,6.188c-0.218,2.555-0.826,3.499-3.263,3.396
		c-6.199-0.266-12.213,1.499-18.477,1.042c-6.002-0.437-12.081,0.666-18.153,0.508c-8.238-0.216-16.461,0.6-24.71,0.421
		c-4.486-0.096-8.984,0.656-13.484,0.84c-6.046,0.25-12.1,0.318-18.151,0.472c-10.294,0.261-20.597-0.386-30.893,0.446
		c-3.713,0.299-7.48-0.074-11.224-0.143c-1.916-0.035-3.136-0.766-3.356-2.891c-0.173-1.659-0.782-3.307-0.38-4.978
		C182.749,446.95,183.743,443.237,184.863,438.864z"/>
	<path fill-rule="evenodd" clip-rule="evenodd" fill="none" d="M209.998,428.173c-4.285,4.447-8.571,8.891-13.354,13.852
		C197.204,438.763,205.155,430.304,209.998,428.173z"/>
	<path fill-rule="evenodd" clip-rule="evenodd" fill="none" d="M213.034,424.095c-0.022,0.002-0.195-0.162-0.062-0.453
		c0.099-0.219,0.336-0.375,0.523-0.546c0.276-0.249,0.533-0.196,0.511,0.124C213.979,423.61,213.753,423.94,213.034,424.095z"/>
	<path fill-rule="evenodd" clip-rule="evenodd" fill="none" d="M207.624,111.003c-12.253-0.489-24.49,0.566-36.74,0.454
		c-9.413-0.086-18.82-0.488-28.239-0.277c-4.519,0.101-5.135-0.89-5.249-5.562c-0.159-6.561-0.092-13.116-0.068-19.676
		c0.014-3.831-1.558-7.531-1.657-11.426c-0.05-1.964-0.087-3.842,0.892-5.622c0.305-0.554,0.801-1.349,0.616-1.773
		c-1.787-4.075,0.268-8.042,0.246-12.058c-0.022-4.13-0.502-8.247-0.52-12.336c-0.031-7.17-0.789-14.43,1.049-21.52
		c0.271-1.05,0.329-2.067-0.112-3.026c-0.883-1.914,0.308-2.362,1.743-2.375c8.108-0.075,16.218,0.01,24.322-0.177
		c1.604-0.037,2.62,1.835,3.602,1.293c1.289-0.711,2.443-1.249,3.903-1.253c4.645-0.016,9.289-0.096,13.933-0.102
		c5.662-0.008,11.325,0.083,16.987,0.045c11.842-0.08,23.683-0.224,35.525-0.326c9.273-0.081,18.546-0.147,27.82-0.201
		c1.795-0.009,3.772-0.409,5.35,0.197c4.352,1.674,8.459,0.865,12.678-0.313c2.123-0.592,4.365-0.306,6.558-0.271
		c6.702,0.108,13.406,0.191,20.106,0.386c2.873,0.083,3.178,0.481,2.659,3.204c-0.372,1.949-0.331,3.784,0.239,5.7
		c1.074,3.617,1.204,7.375,1.271,11.121c0.115,6.443,0.359,12.881,0.25,19.333c-0.15,8.887,0.1,17.779-0.005,26.667
		c-0.083,7.084,0.099,14.182-0.573,21.252c-0.072,0.767-0.168,1.538-0.33,2.29c-0.378,1.732-1.41,2.425-3.117,1.739
		c-1.296-0.521-2.547-1.005-3.573-2.15c-1.354-1.51-2.478-1.203-2.405,0.623c0.1,2.486-1.219,2.724-3.063,2.887
		c-1.785,0.158-3.553,0.682-5.354,0.228c-1.695-0.429-2.714,1.767-4.588,0.997c-1.936-0.795-4.053-0.704-6.117-0.392
		c-2.178,0.331-4.342,0.357-6.547,0.253c-2.178-0.103-4.372,0.249-6.564,0.339c-2.059,0.084-4.125,0.047-6.186,0.14
		c-2.188,0.098-4.373,0.347-6.563,0.412c-1.798,0.052-3.604-0.027-5.4-0.127c-3.323-0.186-3.323-0.211-4.388-3.529
		c-1.033-3.219-0.623-4.141,2.723-4.081c5.648,0.102,11.074-1.687,16.752-1.466c5.659,0.22,11.346-0.283,17.02-0.337
		c5.672-0.057,11.347,0.01,17.019,0.098c4.295,0.065,5.466-1.227,4.47-5.284c-0.647-2.635-0.615-5.338-0.522-7.972
		c0.277-7.979-0.268-15.936-0.283-23.903c-0.02-10.97-0.027-21.939,0.02-32.909c0.013-2.823-0.092-5.711,1.597-8.23
		c0.509-0.76,0.486-1.561-0.303-2.006c-2.215-1.253-4.335-2.384-7.195-2.003c-4.426,0.59-8.943,0.86-13.408,0.737
		c-7.986-0.221-15.947-0.392-23.912,0.46c-3.699,0.396-7.433,0.724-11.1-0.508c-1.456-0.489-2.988-0.772-4.55-0.166
		c-2.192,0.852-3.078,2.059-2.066,4.156c2.014,4.161,1.748,8.513,1.829,12.895c0.223,12.13,0.375,24.272-0.32,36.377
		c-0.452,7.855,0.125,15.711-0.545,23.543c-0.342,3.978-0.811,7.945-1.15,11.924c-0.141,1.631-0.996,2.181-2.531,2.215
		c-9.539,0.214-19.031,1.44-28.584,1.395C212.522,110.993,210.073,111.003,207.624,111.003z M232.234,65.954
		c3.568,0.151,4.581-0.655,5.185-4.168c0.407-2.368,1.241-4.724-0.25-7.081c-0.55-0.868-0.197-2.014-0.195-3.045
		c0.011-6.186,0.243-12.372-0.131-18.56c-0.185-3.083-0.234-6.206,0.97-9.166c0.406-0.999,0.302-2.045,0.209-3.062
		c-0.195-2.136-1.978-3.575-4.015-3.032c-3.864,1.032-7.656,1.201-11.708,1.102c-5.071-0.123-10.237-0.023-15.358,0.181
		c-6.558,0.262-13.129,0.449-19.69,0.356c-6.685-0.097-13.367,0.161-20.062-0.305c-5.334-0.372-10.761,0.958-16.05-0.809
		c-0.46-0.154-1.027-0.031-1.539,0.016c-1.822,0.168-2.735,1.259-2.021,2.794c2.249,4.836,2.158,10.079,2.131,15.115
		c-0.036,6.81-0.437,13.642-0.719,20.462c-0.099,2.38,0.323,4.816-0.957,7.174c-0.678,1.249,0.229,2.798,1.543,3.609
		c1.17,0.725,2.226,0.254,3.072-0.737c1.138-1.331,2.712-1.376,4.263-1.404c8.506-0.154,17.02-0.591,25.516-0.357
		C199.03,65.494,215.654,64.639,232.234,65.954z M200.14,70.983c-0.786-0.055-1.429-0.156-2.067-0.134
		c-2.292,0.081-3.015,0.799-3.042,3.023c-0.008,0.641,0.01,1.314,0.191,1.92c1.319,4.413,0.836,8.942,0.987,13.438
		c0.109,3.252-0.509,6.404-0.829,9.6c-0.341,3.407,0.397,4.046,3.591,3.317c1.02-0.232,2.023-0.292,3.045-0.393
		c6.176-0.61,12.372-0.042,18.543-0.32c3.966-0.18,7.842,1.284,11.862,0.219c2.794-0.741,3.77-1.356,2.933-4.048
		c-1.385-4.455-0.792-8.936-0.847-13.411c-0.039-3.186-0.625-6.413,0.723-9.534c0.395-0.916,0.133-2.039-0.213-3.038
		c-0.667-1.926-1.763-2.581-3.466-1.569c-1.883,1.119-3.934,1.391-5.929,1.456c-6.668,0.213-13.345,0.175-20.02,0.216
		C203.702,71.738,202.014,70.141,200.14,70.983z M151.7,69.631c-0.455,0.479-0.713,0.758-0.979,1.03
		c-3.023,3.092-3.055,3.107-1.136,6.901c0.787,1.554,1,3.164,0.976,4.861c-0.072,5.393-0.121,10.786-0.175,16.18
		c-0.033,3.259,0.775,4.062,4.146,3.857c6.682-0.404,13.359-0.888,20.04-1.31c1.921-0.121,4.094-0.67,5.686,0.416
		c2.417,1.648,4.5,1.151,6.872,0.17c2.65-1.095,3.153-1.771,2.564-4.473c-1.64-7.535-1.223-15.101-0.145-22.638
		c0.488-3.409,0.211-4.212-3.031-3.667c-7.422,1.246-14.888,1.051-22.331,0.888C160.054,71.755,155.671,72.29,151.7,69.631z"/>
	<path fill-rule="evenodd" clip-rule="evenodd" fill="none" d="M304.825,49.926c0,6.192,0.547,12.446-0.137,18.561
		c-0.865,7.725-0.714,15.42-0.84,23.137c-0.057,3.422-1.049,4.647-4.339,5.231c-8.543,1.517-17.191,1.641-25.819,1.362
		c-3.877-0.127-7.725,0.296-11.594,0.071c-2.781-0.162-5.453-1.051-8.288-0.895c-1.903,0.104-2.795-1.149-3.028-3.146
		c-0.35-2.973-0.104-5.934-0.138-8.893c-0.139-12.498-0.062-24.997-0.158-37.496c-0.05-6.441-0.194-12.875,0.044-19.321
		c0.082-2.238,1.18-3.852,1.905-5.712c0.489-1.257,1.769-0.864,2.722-0.864c4.387-0.004,8.773,0.113,13.16,0.124
		c5.594,0.013,11.225,0.721,16.746,0.331c4.218-0.298,8.43,0.22,12.627-0.406c4.143-0.618,5.656,0.556,6.307,4.741
		c0.854,5.495,0.787,11.057,0.949,16.598c0.063,2.191,0.01,4.385,0.01,6.577C304.911,49.926,304.868,49.926,304.825,49.926z"/>
	<path fill-rule="evenodd" clip-rule="evenodd" fill="none" d="M20.712,406.772c-0.141-11.627,0.177-21.693,0.122-31.755
		c-0.031-5.668-0.031-11.348-0.124-17.019c-0.033-2.061,0.068-4.133,0.273-6.184c0.286-2.854,0.488-2.986,3.356-2.934
		c6.957,0.131,13.938,0.71,20.868,0.075c8.174-0.751,16.427-0.128,24.563-2.151c3.736-0.928,7.961-0.328,11.904,0.119
		c4.568,0.52,9.033,0.254,13.456-0.697c2.653-0.568,5.252-1.125,7.994-1.195c6.285-0.164,12.583-0.046,18.837-0.979
		c5.373-0.802,10.794-0.859,16.219-0.575c3.368,0.178,6.684-0.367,10.02-0.719c2.658-0.279,2.664-0.13,2.971,2.59
		c1.978,17.584,2.068,35.249,2.227,52.91c0.137,15.227,0.304,30.452,0.202,45.677c-0.025,3.691-0.117,7.394-0.153,11.093
		c-0.026,2.563-1.573,4.286-4.096,3.771c-4.851-0.99-9.466-0.125-14.126,0.881c-0.125,0.027-0.26,0.055-0.384,0.038
		c-9.215-1.211-18.206,1.501-27.35,1.566c-2.458,0.019-4.891-0.095-7.333-0.336c-8.099-0.801-16.182-0.61-24.322-0.266
		c-8.879,0.376-17.771,0.638-26.631,1.298c-5.495,0.411-11.07,0.323-16.461,1.813c-2.629,0.728-5.198-0.144-7.498-1.075
		c-2.42-0.982-3.942-2.948-3.928-6.044c0.038-8.64-0.405-17.285-0.313-25.923C21.095,422.231,21.105,413.722,20.712,406.772z
		 M131.871,452.549c1.326,0.075,2.565,0.475,3.834,0.657c2.664,0.389,4.363-0.748,4.274-2.746
		c-0.5-11.213-0.259-22.436-0.304-33.652c-0.024-5.941-0.729-11.879-0.475-17.791c0.412-9.542-0.193-19.063-0.023-28.588
		c0.08-4.457-0.679-9.023,1.07-13.354c0.213-0.525,0.32-1.123-0.025-1.463c-1.685-1.648-2.352-4.189-5.209-4.879
		c-1.698-0.408-3.246-0.416-4.9-0.366c-1.362,0.043-2.759,0.44-3.971-0.808c-2.107-2.168-3.343-2.057-4.761,0.445
		c-0.892,1.57-1.471,3.315-0.847,5.196c0.572,1.729,0.801,3.512,0.874,5.329c0.346,8.648,0.073,17.294-0.155,25.936
		c-0.417,15.723-0.201,31.475-1.687,47.154c-0.29,3.059,0.535,6.221-0.774,9.176c-0.957,2.158-1.335,4.08,0.865,5.873
		c0.903,0.736,0.755,1.911-0.743,2.24c-0.502,0.108-1.04,0.08-1.523,0.234c-0.866,0.278-1.871,0.643-1.753,1.75
		c0.12,1.135,1.02,1.795,2.125,1.922c0.612,0.071,1.263-0.175,1.896-0.277C123.729,453.874,127.8,453.212,131.871,452.549z
		 M114.187,374.856c-0.11-3.982-0.167-7.581,0.092-11.193c0.176-2.461-0.814-3.207-2.97-2.326c-2.29,0.934-4.502,0.851-6.803,0.316
		c-1.254-0.293-2.51-0.633-3.785-0.768c-2.551-0.275-3.799,1.121-3.33,3.637c0.498,2.664,0.616,5.355,0.755,8.057
		c0.373,7.215-0.206,14.414-0.321,21.619c-0.171,10.691-0.456,21.379-0.822,32.063c-0.198,5.795-0.723,11.578-0.984,17.373
		c-0.134,2.957-0.033,5.927,0.002,8.889c0.013,1.042,0.112,2.182,1.197,2.666c1.171,0.524,1.934-0.16,2.434-1.216
		c0.319-0.673,0.927-0.876,1.61-0.775c3.024,0.447,6.225-1.313,9.141,1.398c1.555,1.446,3.049,0.168,2.878-2.172
		c-0.123-1.668-0.303-3.333-0.37-5.003c-0.253-6.298,0.417-12.578,0.426-18.868c0.009-7.989-0.284-15.983-0.119-23.97
		C113.425,394.548,113.363,384.5,114.187,374.856z M66.113,373.276c-4.231,0.46-7.944,0.769-11.626,1.287
		c-3.173,0.449-3.556,1.357-3.645,4.725c-0.05,1.92,1.282,3.366,1.15,5.219c-0.628,8.842,0.712,17.648,0.292,26.52
		c-0.34,7.158-0.922,14.399,0.332,21.571c0.086,0.488-0.019,1.028-0.116,1.528c-1.113,5.703-0.742,11.539-1.563,17.28
		c-0.409,2.861,0.655,3.603,3.556,3.187c1.256-0.183,2.615,0.143,3.753-0.68c2.16-1.558,4.122-1.087,5.911,0.625
		c0.88,0.842,1.814,1.65,3.052,1.084c1.304-0.6,1.759-1.875,1.644-3.246c-0.409-4.889,0.037-9.781-0.083-14.646
		c-0.172-6.962-0.066-13.913-0.104-20.868c-0.022-4.128,0.06-8.28,0.307-12.366c0.548-9.072-1.847-18.341,1.683-27.228
		c0.555-1.396,0.051-2.524-1.396-3.137C68.087,373.634,66.967,372.832,66.113,373.276z M79.893,391.345
		c-0.763,0-1.801-0.08-2.823,0.015c-2.655,0.241-3.347,1.513-2.548,4.179c0.929,3.102,1.257,6.314,1.14,9.533
		c-0.463,12.742-1.003,25.479-1.509,38.217c-0.091,2.283,0.222,4.555-1.775,6.453c-1.119,1.063-0.498,2.447,1.006,3.021
		c1.671,0.633,3.262,0.301,4.855-0.451c3.405-1.607,4.856-1.309,7.445,1.355c1.727,1.775,2.905,1.715,4.298-0.236
		c0.79-1.105,0.873-2.355,0.863-3.684c-0.078-11.346-0.268-22.69-0.089-34.031c0.104-6.537-0.565-13.1,0.906-19.63
		c0.856-3.806-0.233-4.722-4.23-4.948c-0.891-0.049-1.814,0.009-2.688,0.185C83.214,391.634,81.706,391.918,79.893,391.345z
		 M38.772,454.338c1.823,0.2,3.506,0.187,5.202,1.199c2.125,1.271,3.993-0.333,3.731-2.86c-0.093-0.896-0.344-1.787-0.343-2.681
		c0.011-8.498-0.033-16.998,0.133-25.493c0.104-5.273-0.399-10.551,0.341-15.829c0.357-2.549-1.452-3.938-4.068-3.46
		c-1.958,0.359-3.843-0.025-5.749-0.256c-1.67-0.203-3.349-0.393-5.005-0.096c-2.548,0.455-3.473,1.75-3.063,4.313
		c0.752,4.718,1.323,9.437,0.994,14.23c-0.22,3.212-0.201,6.447-0.556,9.641c-0.666,5.99,0.003,12.046-1.179,18.026
		c-0.515,2.604,3.15,5.952,5.605,4.122C36.11,454.229,37.44,454.317,38.772,454.338z"/>
	<path fill-rule="evenodd" clip-rule="evenodd" fill="none" d="M457.439,393.144c0.687,13.708,0.558,28.029,0.906,42.344
		c0.114,4.639-0.044,9.268-0.57,13.894c-0.171,1.507-0.728,2.067-2.057,2.187c-3.071,0.277-6.14,0.688-9.216,0.796
		c-11.335,0.395-22.676,0.623-34.01,1.04c-12.491,0.462-24.982,0.5-37.478,0.582c-6.946,0.043-13.915,0.128-20.87,0.4
		c-3.33,0.129-3.354-0.006-3.902-3.313c-0.977-5.879-1.085-11.809-1.072-17.742c0.025-11.104-0.313-22.186-0.854-33.279
		c-0.49-10.043-0.337-20.118-0.521-30.18c-0.126-6.836-0.386-13.673-0.497-20.512c-0.05-2.951,0.032-5.912,0.221-8.859
		c0.144-2.209,0.793-2.631,2.994-2.32c0.891,0.126,1.872,0.199,2.617,0.631c1.151,0.67,1.94,0.763,2.957-0.285
		c0.965-0.995,2.396-0.715,3.688-0.746c6.295-0.16,12.602-0.186,18.883-0.574c6.906-0.427,13.832-0.889,20.684-1.679
		c2.998-0.347,5.795,0.337,8.674,0.039c1.021-0.105,2.444,0.653,2.443-1.415c-0.002-0.852,0.979-0.633,1.555-0.646
		c3.74-0.085,7.485-0.258,11.221-0.158c7.487,0.203,14.945-0.153,22.359-1.15c2.865-0.385,5.643,0.431,8.479,0.166
		c1.122-0.105,1.521,0.864,1.626,1.809c0.271,2.436,0.632,4.875,0.68,7.315c0.209,11.091,0.148,22.188,0.544,33.267
		C457.136,380.683,457.354,386.613,457.439,393.144z M403.03,382.913c0.568,2.698,0.06,5.657-0.113,8.609
		c-0.138,2.333-0.829,2.734-2.939,1.549c-3.592-2.018-7.022-4.318-10.61-6.339c-2.253-1.269-4.503-2.499-6.517-4.138
		c-3.589-2.926-7.188-5.843-10.821-8.717c-2.437-1.924-4.706-1.959-5.931,0.381c-1.846,3.537-4.449,6.606-5.924,10.369
		c-2.772,7.088-3.842,14.466-3.571,21.971c0.161,4.498,1.366,8.971,4.112,12.686c1.078,1.465,2.13,2.881,2.851,4.54
		c2.327,5.354,7.229,8.209,11.454,11.702c0.904,0.751,2.194,0.672,3.342,0.847c2.163,0.334,4.359,0.528,6.414,1.368
		c2.805,1.146,5.716,1.484,8.719,1.229c1.956-0.167,3.962-0.124,5.625,0.953c3.078,1.991,6.29,1.889,9.585,0.97
		c1.514-0.422,3.019-0.666,4.577-0.593c5.52,0.257,10.932,0.028,15.764-3.17c2.626-1.738,5.742-2.457,8.266-4.576
		c6.123-5.136,10.771-11.271,12.174-19.121c1.319-7.404,3.596-14.65,2.868-22.473c-0.619-6.667-0.97-13.059-6.159-18.057
		c-1.283-1.236-2.287-2.783-3.322-4.258c-0.505-0.718-0.595-1.799-1.557-2.11c-2.441-0.786-3.936-2.853-5.939-4.214
		c-2.332-1.585-4.4-3.512-7.008-4.769c-4.67-2.251-9.8-1.944-14.651-3.087c-3.55-0.834-6.78,1.135-10.265,0.711
		c-1.168-0.143-1.208,1.178-1.014,2.066c0.441,2.023,1.002,4.063,0.594,6.119C401.755,369.8,403.206,376.22,403.03,382.913z
		 M394.952,346.179c0.491-1.894,0.018-3.414-0.227-4.921c-0.221-1.354-3.094-3.29-4.361-2.926
		c-5.295,1.521-10.736,2.469-15.625,5.372c-5.236,3.11-8.663,8.027-12.996,12.027c-0.884,0.814-1.502,2.283-0.299,3.465
		c2.988,2.939,5.348,6.723,9.944,7.552c1.349,0.244,2.355,1.104,3.178,2.085c2.265,2.706,4.605,5.203,8.396,5.68
		c0.536,0.066,0.977,0.785,1.496,1.15c0.84,0.59,1.662,1.521,2.576,1.635c3.174,0.393,5.914,1.664,8.445,3.502
		c1.167,0.85,1.828,0.225,2.527-0.692c0.881-1.155,0.838-2.421,0.506-3.681c-0.293-1.116-0.805-2.166-0.832-3.357
		c-0.158-6.693-0.539-13.355-2.021-19.93C395.126,350.776,395.152,348.288,394.952,346.179z"/>
	<path fill-rule="evenodd" clip-rule="evenodd" fill="none" d="M461.545,391.007c0-1.749,0-3.497,0-5.246
		c0.044-0.004,0.089-0.008,0.134-0.011c0,1.758,0,3.517,0,5.275C461.634,391.021,461.589,391.013,461.545,391.007z"/>
	<path fill-rule="evenodd" clip-rule="evenodd" fill="none" d="M203.832,170.452c9.666-0.085,19.332,0.254,28.997-0.144
		c8.124-0.333,16.226,0.504,24.333,0.474c7.604-0.029,15.211-0.339,22.817-0.162c4.37,0.102,8.729,0.064,13.096-0.057
		c2.923-0.081,4.286,1.606,3.671,4.454c-0.246,1.132-0.512,2.181-0.438,3.379c0.673,10.678,0.66,21.373,0.791,32.066
		c0.174,14.316,0.144,28.628-0.259,42.941c-0.062,2.182-0.409,4.331-0.296,6.548c0.134,2.585-1.128,3.665-3.709,3.9
		c-6.429,0.591-12.883,0.839-19.32,0.664c-4.781-0.131-9.5,0.514-14.276,0.491c-10.185-0.048-20.369,0.448-30.557,0.638
		c-3.605,0.066-7.201-0.342-10.824-0.309c-8.243,0.072-16.563-0.904-24.714-0.087c-8.125,0.815-16.198-0.116-24.276,0.582
		c-2.386,0.206-4.852-0.441-7.273-0.753c-0.654-0.086-1.257-0.451-1.307-1.211c-0.203-3.174-1.308-6.166-0.768-9.539
		c0.684-4.277,0.891-8.725,0.018-13.074c-0.36-1.797-0.329-3.594-0.334-5.398c-0.029-9.811-0.016-19.621-0.079-29.431
		c-0.029-4.515-0.186-9.029-0.306-13.544c-0.173-6.476,0.889-12.846,1.57-19.251c0.217-2.032,1.063-2.845,3.202-2.848
		c7.609-0.012,15.218-0.242,22.828-0.319C192.222,170.404,198.027,170.452,203.832,170.452z M208.178,243.824
		c0.667,3.138,4.582,3.149,5.325,6.3c0.207,0.879,1.775,0.84,2.821,0.714c0.796-0.097,1.536-0.347,1.595-1.339
		c0.043-0.733-0.329-1.219-1.004-1.458c-0.684-0.244-1.941-0.2-1.674-1.163c0.902-3.256,0.787-6.963,4.105-9.221
		c3.806-2.593,7.871-3.248,12.321-2.312c2.276,0.479,4.419,1.32,6.615,2.031c1.081,0.349,2.226,0.962,3.37,0.343
		c2.553-1.379,5.542-1.891,7.375-4.651c1.524-2.291,3.789-3.855,6.902-3.466c0.709,0.089,1.662-0.093,2.195-0.529
		c2.051-1.672,4.723-1.84,6.975-3.129c3.238-1.851,4.903-4.072,4.509-7.725c-0.547-5.058-1.747-10.023-4.245-14.377
		c-1.711-2.98-3.875-5.908-7.336-7.549c-5.92-2.809-11.695-5.841-18.15-7.422c-3.065-0.751-6.126-1.294-9.162-0.994
		c-9.364,0.927-18.076,3.766-25.801,9.393c-6.978,5.083-9.622,16.987-5.101,24.339c1.408,2.29,2.669,4.667,4.332,6.822
		c1.761,2.279,2.142,4.909,0.864,7.663c-0.704,1.52-1.264,3.105-1.886,4.662c-0.29,0.725-0.746,1.756-0.089,2.163
		c1.919,1.192,0.571,2.119-0.078,3.083c-0.502,0.744-1.185,1.367-1.704,2.104c-0.498,0.707-1.323,1.541-0.315,2.349
		c1.018,0.815,1.996,0.202,2.692-0.617c0.576-0.677,0.937-1.534,1.426-2.29C205.877,246.282,206.454,244.807,208.178,243.824z
		 M264.673,182.602c-2.172,3.792-2.209,3.821,0.281,6.78c0.602,0.714,1.045,1.453,1.37,2.297c0.804,2.093,2.283,3.725,3.745,5.34
		c3.959,4.373,8.078,8.601,10.594,14.077c0.585,1.269,0.918,2.678,1.919,3.772c1.993,2.172,1.683,4.465,0.12,6.713
		c-1.986,2.853-3.689,5.997-6.094,8.446c-5.156,5.25-9.404,11.295-14.693,16.407c-0.363,0.351-0.682,0.786-0.896,1.238
		c-0.508,1.079-0.371,1.963,0.828,2.56c0.947,0.471,1.824,1.099,2.702-0.077c2.528-3.397,5.31-6.583,8.235-9.638
		c4.107-4.296,7.163-9.468,11.387-13.657c1.767-1.751,3.133-3.722,4.212-5.957c1.603-3.324,1.178-5.658-1.526-8.156
		c-0.932-0.864-1.935-1.825-2.436-2.951c-1.856-4.162-5.04-7.484-7.074-11.518c-2.344-4.647-5.916-8.418-8.949-12.575
		C267.491,184.462,266.399,183.338,264.673,182.602z M195.459,190.121c-0.09-0.938-0.904-1.172-1.538-1.582
		c-0.747-0.483-1.422-0.486-2.045,0.239c-1.427,1.66-3.021,3.199-4.284,4.975c-4.434,6.239-10.065,11.329-15.63,16.476
		c-2.995,2.771-3.082,5.183,0.122,7.599c2.338,1.765,4.471,4.014,5.878,6.295c2.968,4.817,6.761,9.136,9.05,14.364
		c1.169,2.672,3.515,4.32,5.367,6.393c0.563,0.63,1.397,0.614,2.111,0.102c0.48-0.344,0.54-0.894,0.362-1.391
		c-1.204-3.369-2.173-6.888-4.951-9.406c-1.448-1.312-2.491-2.927-3.729-4.395c-3.083-3.654-5.175-8.002-8.408-11.558
		c-3.042-3.346-2.808-5.275,0.337-8.632c5.54-5.914,11.012-11.889,16.52-17.832C195.063,191.292,195.526,190.849,195.459,190.121z"
		/>
	<path fill-rule="evenodd" clip-rule="evenodd" fill="none" d="M343.505,294.696c-3.652,2.335-0.381,7.255,0.265,10.307
		c-6.003-4.728,0.525-3.237,0,0c-6.714-5.351-13.042-11.225-18.552-17.821"/>
	<path fill-rule="evenodd" clip-rule="evenodd" d="M232.234,65.954c-16.581-1.315-33.204-0.46-49.805-0.917
		c-8.496-0.233-17.01,0.203-25.516,0.357c-1.551,0.027-3.125,0.073-4.263,1.404c-0.846,0.991-1.901,1.461-3.072,0.737
		c-1.314-0.811-2.221-2.36-1.543-3.609c1.28-2.357,0.858-4.793,0.957-7.174c0.282-6.82,0.683-13.652,0.719-20.462
		c0.027-5.036,0.117-10.279-2.131-15.115c-0.714-1.536,0.198-2.626,2.021-2.794c0.512-0.047,1.079-0.17,1.539-0.016
		c5.289,1.767,10.716,0.437,16.05,0.809c6.695,0.466,13.377,0.208,20.062,0.305c6.561,0.093,13.132-0.094,19.69-0.356
		c5.121-0.205,10.287-0.304,15.358-0.181c4.052,0.099,7.844-0.07,11.708-1.102c2.037-0.543,3.819,0.896,4.015,3.032
		c0.092,1.016,0.196,2.063-0.209,3.062c-1.204,2.96-1.154,6.083-0.97,9.166c0.374,6.188,0.142,12.374,0.131,18.56
		c-0.002,1.031-0.354,2.177,0.195,3.045c1.491,2.357,0.657,4.713,0.25,7.081C236.815,65.299,235.803,66.105,232.234,65.954z
		 M171.468,21.845c-4.513,0-9.025-0.019-13.537,0.006c-3.624,0.021-3.549,0.065-4.446,3.447c-0.435,1.642-0.671,3.271-0.705,4.956
		c-0.148,7.219-0.316,14.439-0.471,21.658c-0.049,2.32-0.086,4.631,0.254,6.949c0.449,3.061,0.42,3.023,3.273,3.779
		c4.075,1.079,8.227,0.527,12.311,0.501c19.45-0.123,38.898-0.521,58.348-0.786c1.857-0.025,3.537-0.662,5.269-1.146
		c0.631-0.177,1.408-0.555,1.37-1.204c-0.149-2.523,1.585-4.515,1.643-7.06c0.199-8.914-0.484-17.761-1.486-26.592
		c-0.428-3.77-1.697-4.709-5.832-4.366c-7.846,0.653-15.695,0.009-23.54,0.092C193.107,22.194,182.288,21.6,171.468,21.845z"/>
	<path fill-rule="evenodd" clip-rule="evenodd" d="M200.14,70.983c1.875-0.843,3.563,0.755,5.464,0.743
		c6.674-0.041,13.352-0.002,20.02-0.216c1.995-0.064,4.046-0.336,5.929-1.456c1.703-1.012,2.799-0.357,3.466,1.569
		c0.346,0.999,0.608,2.122,0.213,3.038c-1.348,3.121-0.762,6.348-0.723,9.534c0.055,4.475-0.539,8.956,0.847,13.411
		c0.836,2.692-0.139,3.307-2.933,4.048c-4.02,1.065-7.896-0.399-11.862-0.219c-6.172,0.278-12.367-0.29-18.543,0.32
		c-1.022,0.101-2.025,0.161-3.045,0.393c-3.194,0.729-3.933,0.09-3.591-3.317c0.32-3.196,0.938-6.348,0.829-9.6
		c-0.151-4.496,0.332-9.024-0.987-13.438c-0.182-0.606-0.199-1.279-0.191-1.92c0.027-2.225,0.75-2.942,3.042-3.023
		C198.71,70.827,199.354,70.929,200.14,70.983z M214.231,74.859c-3.24,1.003-8.021-0.907-12.735,0.981
		c-2.013,0.807-2.702,1.601-2.697,3.376c0.017,5.147-0.156,10.307,0.522,15.43c0.448,3.384,1.348,4.526,4.619,4.486
		c6.16-0.075,12.333,0.579,18.496-0.413c1.782-0.287,3.389-1.12,5.156-1.244c3.175-0.226,3.558-0.319,3.732-3.278
		c0.302-5.134,0.604-10.275,0.298-15.432c-0.107-1.819-0.744-2.853-2.556-3.274c-1.387-0.322-2.751-0.644-4.185-0.637
		C221.791,74.87,218.698,74.859,214.231,74.859z"/>
	<path fill-rule="evenodd" clip-rule="evenodd" d="M151.7,69.631c3.972,2.659,8.354,2.124,12.487,2.215
		c7.443,0.164,14.908,0.358,22.331-0.888c3.242-0.545,3.519,0.258,3.031,3.667c-1.078,7.538-1.495,15.103,0.145,22.638
		c0.588,2.702,0.086,3.378-2.564,4.473c-2.372,0.981-4.454,1.479-6.872-0.17c-1.592-1.086-3.765-0.537-5.686-0.416
		c-6.681,0.422-13.358,0.906-20.04,1.31c-3.371,0.204-4.179-0.598-4.146-3.857c0.054-5.394,0.103-10.787,0.175-16.18
		c0.023-1.697-0.189-3.307-0.976-4.861c-1.919-3.794-1.887-3.81,1.136-6.901C150.987,70.39,151.245,70.11,151.7,69.631z
		 M170.329,74.732c0-0.003,0-0.007,0-0.011c-3.482,0-6.963-0.012-10.444,0.002c-5.664,0.023-6.334,2.16-6.235,6.561
		c0.092,4.116,0.735,8.233,0.732,12.318c-0.007,6.834,1.225,5.065,5.885,6.072c0.49,0.106,1.032,0.021,1.544-0.031
		c7.043-0.698,14.146-0.599,21.168-1.588c2.75-0.387,3.442-0.815,3.419-3.438c-0.05-5.417-0.236-10.838-0.605-16.242
		c-0.209-3.066-0.812-3.527-3.864-3.617C178.065,74.646,174.195,74.732,170.329,74.732z"/>
	<path fill-rule="evenodd" clip-rule="evenodd" d="M131.871,452.549c-4.071,0.663-8.142,1.325-12.213,1.989
		c-0.633,0.103-1.284,0.349-1.896,0.277c-1.106-0.127-2.005-0.787-2.125-1.922c-0.117-1.107,0.887-1.472,1.753-1.75
		c0.483-0.154,1.021-0.126,1.523-0.234c1.498-0.329,1.646-1.504,0.743-2.24c-2.2-1.793-1.822-3.715-0.865-5.873
		c1.309-2.955,0.484-6.117,0.774-9.176c1.486-15.68,1.27-31.432,1.687-47.154c0.229-8.642,0.501-17.287,0.155-25.936
		c-0.073-1.817-0.302-3.6-0.874-5.329c-0.624-1.881-0.045-3.626,0.847-5.196c1.418-2.502,2.654-2.613,4.761-0.445
		c1.211,1.248,2.608,0.851,3.971,0.808c1.654-0.05,3.202-0.042,4.9,0.366c2.858,0.689,3.524,3.23,5.209,4.879
		c0.346,0.34,0.238,0.938,0.025,1.463c-1.749,4.33-0.99,8.896-1.07,13.354c-0.17,9.525,0.435,19.046,0.023,28.588
		c-0.255,5.912,0.451,11.85,0.475,17.791c0.045,11.217-0.196,22.439,0.304,33.652c0.089,1.998-1.61,3.135-4.274,2.746
		C134.436,453.023,133.196,452.624,131.871,452.549z M137.122,399.371c0.556-9.64,0.062-19.828,0.233-30.015
		c0.06-3.578,0.152-7.219-1.272-10.659c-0.293-0.705-0.324-1.703-1.259-1.718c-2.363-0.04-4.489-1.162-6.803-1.344
		c-3.073-0.242-3.925,0.479-3.96,3.645c-0.067,6.06-0.33,12.113-0.505,18.17c-0.343,11.844-0.85,23.686-0.372,35.554
		c0.273,6.793,0.081,13.631-0.413,20.413c-0.325,4.475,1.156,8.639,1.259,13c0.086,3.688,1.756,4.847,5.14,3.465
		c1.661-0.682,3.172-1.707,5.033-1.853c1.134-0.088,1.513-0.907,1.534-1.881c0.136-6.153,2.061-12.192,1.12-18.42
		c-0.191-1.263-0.074-2.573-0.06-3.86C136.884,415.884,137.748,407.911,137.122,399.371z"/>
	<path fill-rule="evenodd" clip-rule="evenodd" d="M114.187,374.856c-0.824,9.644-0.762,19.691-0.97,29.727
		c-0.166,7.986,0.128,15.98,0.119,23.97c-0.008,6.29-0.679,12.57-0.426,18.868c0.067,1.67,0.248,3.335,0.37,5.003
		c0.171,2.34-1.323,3.618-2.878,2.172c-2.917-2.712-6.117-0.951-9.141-1.398c-0.683-0.101-1.291,0.103-1.61,0.775
		c-0.5,1.056-1.262,1.74-2.434,1.216c-1.085-0.484-1.184-1.624-1.197-2.666c-0.035-2.962-0.136-5.932-0.002-8.889
		c0.262-5.795,0.787-11.578,0.984-17.373c0.366-10.684,0.651-21.371,0.822-32.063c0.116-7.205,0.694-14.404,0.321-21.619
		c-0.139-2.701-0.257-5.393-0.755-8.057c-0.47-2.516,0.779-3.912,3.33-3.637c1.275,0.135,2.531,0.475,3.785,0.768
		c2.301,0.534,4.514,0.617,6.803-0.316c2.156-0.881,3.146-0.135,2.97,2.326C114.02,367.275,114.077,370.874,114.187,374.856z
		 M100.642,407.063c-0.202,0-0.404,0-0.607,0c0,12.375,0.026,24.751-0.013,37.125c-0.014,4.646,1.144,5.917,5.688,5.889
		c3.295-0.021,4.08-0.652,4.301-3.992c0.144-2.18-0.048-4.381-0.055-6.568c-0.021-7.854,0.397-15.692,0.814-23.534
		c0.41-7.718,0.395-15.458,0.608-23.187c0.204-7.353,0.203-14.695-0.984-21.979c-0.84-5.154-0.892-5.146-6.108-5.268
		c-2.825-0.067-3.286,0.34-3.582,3.245c-0.065,0.64-0.06,1.288-0.06,1.933C100.641,382.839,100.642,394.951,100.642,407.063z"/>
	<path fill-rule="evenodd" clip-rule="evenodd" d="M66.113,373.276c0.854-0.444,1.974,0.357,3.146,0.854
		c1.446,0.612,1.95,1.741,1.396,3.137c-3.53,8.887-1.135,18.155-1.683,27.228c-0.247,4.086-0.33,8.238-0.307,12.366
		c0.038,6.955-0.067,13.906,0.104,20.868c0.12,4.865-0.326,9.758,0.083,14.646c0.115,1.371-0.34,2.646-1.644,3.246
		c-1.237,0.566-2.171-0.242-3.052-1.084c-1.789-1.712-3.75-2.183-5.911-0.625c-1.139,0.822-2.497,0.497-3.753,0.68
		c-2.901,0.416-3.965-0.325-3.556-3.187c0.821-5.741,0.45-11.577,1.563-17.28c0.098-0.5,0.202-1.04,0.116-1.528
		c-1.254-7.172-0.672-14.413-0.332-21.571c0.42-8.871-0.919-17.678-0.292-26.52c0.132-1.853-1.2-3.299-1.15-5.219
		c0.089-3.367,0.472-4.275,3.645-4.725C58.169,374.045,61.882,373.736,66.113,373.276z M55.031,414.671c-0.113,0-0.226,0-0.338,0
		c0,5.93,0.021,11.861-0.007,17.792c-0.02,4.257-0.094,8.509,0.281,12.761c0.333,3.787,0.919,4.37,4.739,4.038
		c0.9-0.079,1.797-0.245,2.696-0.253c1.749-0.014,2.713-0.872,2.67-2.582c-0.144-5.682,0.916-11.309,0.563-17.006
		c-0.214-3.452-0.086-6.935,0.021-10.4c0.336-10.948,0.867-21.869-0.048-32.848c-0.337-4.055-2.56-5.904-5.126-7.927
		c-1.316-1.036-3.525-0.437-4.374,1.032c-0.708,1.225-1.103,2.564-1.097,4.053C55.05,393.778,55.031,404.224,55.031,414.671z"/>
	<path fill-rule="evenodd" clip-rule="evenodd" d="M79.893,391.345c1.813,0.573,3.321,0.289,4.851-0.022
		c0.874-0.176,1.796-0.233,2.688-0.185c3.997,0.227,5.087,1.143,4.23,4.948c-1.471,6.53-0.802,13.093-0.906,19.63
		c-0.179,11.341,0.011,22.686,0.089,34.031c0.01,1.328-0.073,2.578-0.863,3.684c-1.393,1.951-2.572,2.012-4.298,0.236
		c-2.589-2.664-4.04-2.963-7.445-1.355c-1.593,0.752-3.185,1.084-4.855,0.451c-1.504-0.574-2.125-1.959-1.006-3.021
		c1.997-1.898,1.684-4.17,1.775-6.453c0.505-12.738,1.045-25.475,1.509-38.217c0.117-3.219-0.21-6.432-1.14-9.533
		c-0.798-2.666-0.106-3.938,2.548-4.179C78.092,391.265,79.13,391.345,79.893,391.345z M78.293,428.513
		c0,5.902-0.027,10.668,0.008,15.432c0.024,3.119,0.068,3.098,3.22,3.779c0.747,0.162,1.438,0.563,2.176,0.779
		c2.399,0.704,3.288,0.222,3.193-2.161c-0.298-7.485,1.142-14.856,1.163-22.356c0.022-7.744-0.307-15.465-0.622-23.181
		c-0.231-5.679-0.048-5.397-6.324-5.45c-1.825-0.016-2.566,0.918-2.569,2.614c-0.005,2.58,0.277,5.192-0.032,7.734
		C77.537,413.688,79.138,421.68,78.293,428.513z"/>
	<path fill-rule="evenodd" clip-rule="evenodd" d="M38.772,454.338c-1.332-0.021-2.662-0.108-3.957,0.856
		c-2.455,1.83-6.12-1.518-5.605-4.122c1.183-5.98,0.513-12.036,1.179-18.026c0.355-3.193,0.336-6.429,0.556-9.641
		c0.329-4.794-0.241-9.513-0.994-14.23c-0.409-2.563,0.515-3.857,3.063-4.313c1.656-0.297,3.335-0.107,5.005,0.096
		c1.905,0.23,3.791,0.615,5.749,0.256c2.616-0.478,4.426,0.911,4.068,3.46c-0.741,5.278-0.238,10.556-0.341,15.829
		c-0.166,8.495-0.122,16.995-0.133,25.493c-0.001,0.894,0.25,1.784,0.343,2.681c0.262,2.527-1.606,4.131-3.731,2.86
		C42.278,454.524,40.595,454.538,38.772,454.338z M44.598,427.983c0.383-3.734,0.127-7.708-0.271-11.68
		c-0.248-2.462-0.926-4.599-3.898-4.869c-1.089-0.098-1.384-0.883-1.83-1.705c-0.793-1.465-2.174-0.989-3.428-0.762
		c-1.28,0.229-1.569,1.147-1.583,2.271c-0.034,2.701-0.155,5.405-0.106,8.105c0.149,8.222,0.543,16.442,0.491,24.659
		c-0.041,6.499,0.987,7.491,7.406,6.003c1.453-0.336,2.224-0.869,2.257-2.508C43.766,441.069,44.856,434.689,44.598,427.983z"/>
	<path fill-rule="evenodd" clip-rule="evenodd" d="M403.03,382.913c0.176-6.693-1.275-13.113,0.002-19.551
		c0.408-2.057-0.152-4.096-0.594-6.119c-0.194-0.889-0.154-2.209,1.014-2.066c3.484,0.424,6.715-1.545,10.265-0.711
		c4.852,1.143,9.981,0.836,14.651,3.087c2.607,1.257,4.676,3.184,7.008,4.769c2.004,1.361,3.498,3.428,5.939,4.214
		c0.962,0.312,1.052,1.393,1.557,2.11c1.035,1.475,2.039,3.021,3.322,4.258c5.189,4.998,5.54,11.39,6.159,18.057
		c0.728,7.822-1.549,15.068-2.868,22.473c-1.402,7.85-6.051,13.985-12.174,19.121c-2.523,2.119-5.64,2.838-8.266,4.576
		c-4.832,3.198-10.244,3.427-15.764,3.17c-1.559-0.073-3.063,0.171-4.577,0.593c-3.295,0.919-6.507,1.021-9.585-0.97
		c-1.663-1.077-3.669-1.12-5.625-0.953c-3.003,0.256-5.914-0.083-8.719-1.229c-2.055-0.84-4.251-1.034-6.414-1.368
		c-1.147-0.175-2.438-0.096-3.342-0.847c-4.225-3.493-9.127-6.348-11.454-11.702c-0.721-1.659-1.772-3.075-2.851-4.54
		c-2.746-3.715-3.951-8.188-4.112-12.686c-0.271-7.505,0.799-14.883,3.571-21.971c1.475-3.763,4.078-6.832,5.924-10.369
		c1.225-2.34,3.494-2.305,5.931-0.381c3.634,2.874,7.232,5.791,10.821,8.717c2.014,1.639,4.264,2.869,6.517,4.138
		c3.588,2.021,7.019,4.321,10.61,6.339c2.11,1.186,2.802,0.784,2.939-1.549C403.09,388.57,403.599,385.611,403.03,382.913z
		 M449.818,392.663c0.7-4.02-0.927-8.297-1.997-12.662c-0.656-2.664-3.039-4.094-4.523-6.17c-2.427-3.385-3.014-3.354-5.824-0.454
		c-4.172,4.303-8.617,8.32-13.217,12.155c-3.754,3.131-7.678,6.063-11.467,9.154c-3.841,3.132-4.02,3.826-2.377,8.584
		c1.092,3.16,2.239,6.295,3.224,9.499c1.229,4.009,2.897,7.722,6.097,10.929c2.236,2.24,5.064,4.693,5.374,8.553
		c0.153,1.887,1.024,2.061,3.052,1.225c1.189-0.492,2.35-1.051,3.554-1.488c4.421-1.611,7.53-4.668,10.044-8.564
		c3.192-4.947,5.469-10.174,5.926-16.111c0.066-0.888,0.313-1.783,0.606-2.629C449.576,400.98,450.083,397.178,449.818,392.663z
		 M361.902,390.552c-2.63,8.665-3.508,17.12,0.54,25.342c1.695,3.438,3.257,7.069,5.861,9.935c3.804,4.185,7.715,8.396,14.107,8.267
		c0.368-0.007,0.738,0.221,1.107,0.332c3.271,0.975,3.269,0.972,5.063-2.167c3.396-5.941,5.683-12.399,8.646-18.543
		c1.171-2.429,2.046-5.021,2.868-7.595c1.871-5.832,1.135-8.6-3.955-11.812c-7.795-4.922-15.133-10.579-23.455-14.665
		c-2.933-1.439-3.866-1.404-5.86,0.998c-0.821,0.99-1.57,2.04-2.365,3.055c-1.596,2.041-2.615,4.094-0.736,6.576
		c0.425,0.563,0.411,1.472,0.538,2.229c0.029,0.162-0.207,0.368-0.324,0.557C362.853,392.63,363.435,391.021,361.902,390.552z
		 M405.468,378.021c0,3.476,0.073,6.951-0.025,10.424c-0.064,2.205,0.387,4.48,2.168,5.477c1.385,0.771,3.021-0.816,4.377-1.815
		c5.5-4.046,10.673-8.478,15.676-13.11c0.644-0.596,1.24-1.367,1.553-2.175c0.933-2.403,2.719-4.05,4.676-5.524
		c0.739-0.556,1.342-1.168,1.894-1.885c0.972-1.26,0.786-2.262-0.397-3.33c-4.677-4.217-9.734-7.569-16.316-7.762
		c-2.189-0.064-4.379-0.234-6.566-0.218c-3.688,0.024-6.229,2.321-6.705,6.029C405.204,368.745,405.146,373.378,405.468,378.021z
		 M407.022,403.931c-0.701,0.503-0.605,1.041-0.67,1.526c-0.809,6.275-0.774,12.585-0.819,18.892
		c-0.024,3.6-0.123,7.197-0.224,10.795c-0.05,1.746,0.652,2.903,2.477,2.482c3.794-0.873,7.623-1.172,11.492-1.201
		c1.758-0.014,2.19-0.977,1.764-2.557c-0.61-2.255-1.539-4.328-2.88-6.27c-1.776-2.571-3.821-4.887-4.442-8.268
		c-0.688-3.751-2.287-7.34-3.565-10.973C409.529,406.583,408.79,404.827,407.022,403.931z M403.017,404.429
		c-1.387,3.354-2.736,6.137-3.689,9.044c-1.795,5.489-4.146,10.758-5.899,16.276c-2.261,7.118-2.255,6.475,4.432,7.485
		c0.254,0.038,0.512,0.069,0.769,0.071c1.451,0.012,2.483-0.639,2.953-2.022c0.248-0.729,0.406-1.497,0.529-2.259
		c1.478-9.07,1.262-18.246,1.678-27.383C403.798,405.453,403.553,405.252,403.017,404.429z"/>
	<path fill-rule="evenodd" clip-rule="evenodd" d="M394.952,346.179c0.2,2.109,0.174,4.598,0.707,6.961
		c1.482,6.574,1.863,13.236,2.021,19.93c0.027,1.191,0.539,2.241,0.832,3.357c0.332,1.26,0.375,2.525-0.506,3.681
		c-0.699,0.917-1.36,1.542-2.527,0.692c-2.531-1.838-5.271-3.109-8.445-3.502c-0.914-0.113-1.736-1.045-2.576-1.635
		c-0.52-0.365-0.96-1.084-1.496-1.15c-3.79-0.477-6.131-2.974-8.396-5.68c-0.822-0.98-1.829-1.841-3.178-2.085
		c-4.597-0.829-6.956-4.612-9.944-7.552c-1.203-1.182-0.585-2.65,0.299-3.465c4.333-4,7.76-8.917,12.996-12.027
		c4.889-2.903,10.33-3.852,15.625-5.372c1.268-0.364,4.141,1.572,4.361,2.926C394.97,342.765,395.443,344.285,394.952,346.179z
		 M394.451,374.721c0.345-2.142,0.222-4.192-0.036-6.222c-0.324-2.559-0.426-5.142-0.757-7.685
		c-0.628-4.842-1.429-9.681-2.505-14.442c-0.82-3.628-2.382-4.42-5.918-3.373c-6.934,2.055-13.043,5.396-17.31,11.529
		c-2.113,3.037-2.065,3.963,1.09,5.653c2.067,1.106,3.632,2.645,5.296,4.264c2.889,2.804,5.37,6.379,9.828,7.097
		c0.353,0.056,0.74,0.291,0.98,0.563C387.64,374.944,390.935,374.894,394.451,374.721z"/>
	<path fill-rule="evenodd" clip-rule="evenodd" d="M208.178,243.824c-1.725,0.982-2.301,2.458-3.121,3.722
		c-0.489,0.756-0.85,1.613-1.426,2.29c-0.697,0.819-1.675,1.433-2.692,0.617c-1.008-0.808-0.183-1.642,0.315-2.349
		c0.519-0.736,1.201-1.359,1.704-2.104c0.649-0.964,1.997-1.891,0.078-3.083c-0.657-0.407-0.201-1.438,0.089-2.163
		c0.622-1.557,1.182-3.143,1.886-4.662c1.277-2.754,0.896-5.384-0.864-7.663c-1.663-2.155-2.924-4.532-4.332-6.822
		c-4.521-7.352-1.877-19.257,5.101-24.339c7.725-5.627,16.437-8.466,25.801-9.393c3.036-0.3,6.097,0.243,9.162,0.994
		c6.455,1.581,12.23,4.613,18.15,7.422c3.461,1.642,5.625,4.569,7.336,7.549c2.498,4.354,3.698,9.32,4.245,14.377
		c0.395,3.653-1.271,5.874-4.509,7.725c-2.252,1.29-4.924,1.457-6.975,3.129c-0.533,0.436-1.486,0.618-2.195,0.529
		c-3.113-0.39-5.378,1.175-6.902,3.466c-1.833,2.761-4.822,3.272-7.375,4.651c-1.145,0.619-2.289,0.006-3.37-0.343
		c-2.196-0.71-4.339-1.552-6.615-2.031c-4.45-0.936-8.515-0.281-12.321,2.312c-3.318,2.258-3.203,5.965-4.105,9.221
		c-0.267,0.963,0.99,0.919,1.674,1.163c0.676,0.239,1.048,0.725,1.004,1.458c-0.059,0.992-0.799,1.242-1.595,1.339
		c-1.046,0.126-2.614,0.165-2.821-0.714C212.76,246.974,208.846,246.962,208.178,243.824z M226.622,193.026
		c-2.365,0.539-5.268,0.403-6.975,1.766c-2.98,2.378-6.592,3.98-9.027,7.068c-1.073,1.36-2.444,2.354-4.371,1.686
		c-0.888-0.308-1.566-0.024-1.854,0.833c-1.393,4.146-3.388,8.465-1.786,12.739c2.013,5.374,4.965,10.394,9.305,14.371
		c1.556,1.426,1.988,2.882,1.02,4.799c-0.459,0.91-1.166,1.698-1.775,2.531c-0.604,0.828-1.374,1.617-0.492,2.667
		c0.667,0.11,1.087-0.237,1.217-0.748c1.174-4.602,5.931-5.904,8.471-9.24c0.361-0.474,0.956-0.238,1.446-0.327
		c5.881-1.059,11.601-0.119,17.099,1.851c1.878,0.671,3.203,0.568,4.612-0.514c1.12-0.859,2.311-1.705,3.189-2.786
		c2.074-2.558,4.797-3.761,7.915-4.396c2.36-0.481,4.684-0.882,6.878-2.219c3.402-2.073,4.787-4.884,3.453-8.689
		c-0.807-2.302-1.41-4.758-2.658-6.806c-1.701-2.787-2.852-6.173-6.295-7.55c-2.244-0.897-4.279-2.21-6.396-3.298
		c-4.762-2.448-9.872-4.398-15.273-4.877c-2.583-0.229-5.45-0.741-7.795,1.221C226.528,193.106,226.623,193.026,226.622,193.026z"/>
	<path fill-rule="evenodd" clip-rule="evenodd" d="M264.673,182.602c1.727,0.736,2.818,1.86,3.725,3.102
		c3.033,4.157,6.605,7.928,8.949,12.575c2.034,4.033,5.218,7.355,7.074,11.518c0.501,1.126,1.504,2.087,2.436,2.951
		c2.704,2.498,3.129,4.832,1.526,8.156c-1.079,2.235-2.445,4.206-4.212,5.957c-4.224,4.188-7.279,9.361-11.387,13.657
		c-2.926,3.055-5.707,6.24-8.235,9.638c-0.878,1.176-1.755,0.548-2.702,0.077c-1.199-0.597-1.336-1.48-0.828-2.56
		c0.215-0.452,0.533-0.888,0.896-1.238c5.289-5.112,9.537-11.157,14.693-16.407c2.404-2.449,4.107-5.593,6.094-8.446
		c1.563-2.248,1.873-4.541-0.12-6.713c-1.001-1.094-1.334-2.503-1.919-3.772c-2.516-5.476-6.635-9.704-10.594-14.077
		c-1.462-1.616-2.941-3.248-3.745-5.34c-0.325-0.844-0.769-1.583-1.37-2.297C262.464,186.423,262.501,186.394,264.673,182.602z"/>
	<path fill-rule="evenodd" clip-rule="evenodd" d="M195.458,190.121c0.068,0.728-0.396,1.171-0.838,1.648
		c-5.508,5.942-10.98,11.918-16.52,17.832c-3.145,3.357-3.378,5.286-0.337,8.632c3.233,3.556,5.326,7.904,8.408,11.558
		c1.239,1.468,2.282,3.083,3.729,4.395c2.777,2.518,3.747,6.037,4.951,9.406c0.178,0.497,0.119,1.047-0.362,1.391
		c-0.714,0.513-1.548,0.528-2.111-0.102c-1.852-2.072-4.198-3.721-5.367-6.393c-2.29-5.229-6.082-9.547-9.05-14.364
		c-1.407-2.282-3.54-4.531-5.878-6.295c-3.204-2.416-3.117-4.828-0.122-7.599c5.565-5.147,11.196-10.237,15.63-16.476
		c1.262-1.776,2.856-3.314,4.284-4.975c0.623-0.725,1.299-0.722,2.045-0.239C194.555,188.949,195.369,189.184,195.458,190.121z"/>
	<path fill-rule="evenodd" clip-rule="evenodd" fill="none" d="M171.467,21.845c10.821-0.245,21.64,0.35,32.45,0.235
		c7.845-0.083,15.694,0.561,23.54-0.092c4.135-0.343,5.404,0.597,5.832,4.366c1.001,8.832,1.685,17.679,1.486,26.592
		c-0.057,2.545-1.792,4.536-1.643,7.06c0.038,0.648-0.738,1.027-1.37,1.204c-1.732,0.484-3.411,1.121-5.269,1.146
		c-19.449,0.265-38.897,0.663-58.348,0.786c-4.083,0.026-8.236,0.578-12.311-0.501c-2.853-0.756-2.824-0.718-3.273-3.779
		c-0.341-2.318-0.303-4.629-0.254-6.949c0.154-7.219,0.323-14.439,0.471-21.658c0.034-1.684,0.27-3.313,0.705-4.956
		c0.896-3.382,0.822-3.426,4.446-3.447C162.442,21.826,166.955,21.845,171.467,21.845z"/>
	<path fill-rule="evenodd" clip-rule="evenodd" fill="none" d="M214.231,74.859c4.467,0,7.56,0.011,10.65-0.006
		c1.434-0.007,2.798,0.314,4.185,0.637c1.812,0.421,2.448,1.455,2.556,3.274c0.307,5.157,0.004,10.298-0.298,15.432
		c-0.174,2.959-0.557,3.052-3.732,3.278c-1.767,0.125-3.374,0.957-5.156,1.244c-6.163,0.992-12.335,0.338-18.496,0.413
		c-3.271,0.04-4.17-1.102-4.619-4.486c-0.679-5.123-0.506-10.282-0.522-15.43c-0.005-1.775,0.684-2.569,2.697-3.376
		C206.21,73.952,210.991,75.862,214.231,74.859z"/>
	<path fill-rule="evenodd" clip-rule="evenodd" fill="none" d="M170.329,74.732c3.867,0,7.736-0.086,11.6,0.027
		c3.052,0.09,3.655,0.551,3.864,3.617c0.369,5.404,0.555,10.825,0.605,16.242c0.023,2.622-0.668,3.051-3.419,3.438
		c-7.022,0.99-14.125,0.891-21.168,1.588c-0.512,0.052-1.054,0.137-1.544,0.031c-4.661-1.007-5.893,0.762-5.885-6.072
		c0.003-4.085-0.64-8.202-0.732-12.318c-0.099-4.401,0.571-6.537,6.235-6.561c3.481-0.014,6.962-0.002,10.444-0.002
		C170.329,74.725,170.329,74.729,170.329,74.732z"/>
	<path fill-rule="evenodd" clip-rule="evenodd" fill="none" d="M137.122,399.371c0.626,8.54-0.238,16.513-0.325,24.497
		c-0.015,1.287-0.131,2.598,0.06,3.86c0.941,6.228-0.983,12.267-1.12,18.42c-0.021,0.974-0.4,1.793-1.534,1.881
		c-1.861,0.146-3.372,1.171-5.033,1.853c-3.384,1.382-5.054,0.223-5.14-3.465c-0.103-4.361-1.584-8.525-1.259-13
		c0.494-6.782,0.687-13.62,0.413-20.413c-0.479-11.868,0.028-23.71,0.372-35.554c0.175-6.057,0.438-12.11,0.505-18.17
		c0.035-3.166,0.887-3.887,3.96-3.645c2.314,0.182,4.44,1.304,6.803,1.344c0.935,0.015,0.966,1.013,1.259,1.718
		c1.425,3.44,1.333,7.081,1.272,10.659C137.184,379.543,137.678,389.731,137.122,399.371z"/>
	<path fill-rule="evenodd" clip-rule="evenodd" fill="none" d="M100.642,407.063c0-12.112-0.001-24.225,0.002-36.336
		c0-0.645-0.005-1.293,0.06-1.933c0.296-2.905,0.757-3.313,3.582-3.245c5.216,0.121,5.268,0.113,6.108,5.268
		c1.187,7.283,1.188,14.626,0.984,21.979c-0.214,7.729-0.199,15.469-0.608,23.187c-0.417,7.842-0.835,15.68-0.814,23.534
		c0.006,2.188,0.199,4.389,0.055,6.568c-0.221,3.34-1.006,3.971-4.301,3.992c-4.544,0.028-5.702-1.242-5.688-5.889
		c0.039-12.374,0.013-24.75,0.013-37.125C100.238,407.063,100.44,407.063,100.642,407.063z"/>
	<path fill-rule="evenodd" clip-rule="evenodd" fill="none" d="M55.031,414.671c0-10.447,0.019-20.893-0.021-31.34
		c-0.006-1.488,0.39-2.828,1.097-4.053c0.849-1.469,3.058-2.068,4.374-1.032c2.566,2.022,4.789,3.872,5.126,7.927
		c0.915,10.979,0.385,21.899,0.048,32.848c-0.107,3.466-0.235,6.948-0.021,10.4c0.353,5.697-0.708,11.324-0.563,17.006
		c0.043,1.71-0.921,2.568-2.67,2.582c-0.899,0.008-1.796,0.174-2.696,0.253c-3.82,0.332-4.406-0.251-4.739-4.038
		c-0.375-4.252-0.301-8.504-0.281-12.761c0.028-5.931,0.007-11.862,0.007-17.792C54.805,414.671,54.918,414.671,55.031,414.671z"/>
	<path fill-rule="evenodd" clip-rule="evenodd" fill="none" d="M78.293,428.513c0.845-6.833-0.757-14.824,0.214-22.81
		c0.309-2.542,0.026-5.154,0.032-7.734c0.003-1.696,0.745-2.63,2.569-2.614c6.276,0.053,6.092-0.229,6.324,5.45
		c0.315,7.716,0.644,15.437,0.622,23.181c-0.021,7.5-1.461,14.871-1.163,22.356c0.095,2.383-0.794,2.865-3.193,2.161
		c-0.738-0.217-1.429-0.617-2.176-0.779c-3.152-0.682-3.196-0.66-3.22-3.779C78.267,439.181,78.293,434.415,78.293,428.513z"/>
	<path fill-rule="evenodd" clip-rule="evenodd" fill="none" d="M44.598,427.983c0.258,6.706-0.832,13.086-0.962,19.516
		c-0.033,1.639-0.804,2.172-2.257,2.508c-6.419,1.488-7.446,0.496-7.406-6.003c0.052-8.217-0.342-16.438-0.491-24.659
		c-0.049-2.7,0.072-5.404,0.106-8.105c0.014-1.124,0.303-2.042,1.583-2.271c1.253-0.228,2.635-0.703,3.428,0.762
		c0.445,0.822,0.74,1.607,1.83,1.705c2.972,0.271,3.65,2.407,3.898,4.869C44.725,420.275,44.981,424.249,44.598,427.983z"/>
	<path fill-rule="evenodd" clip-rule="evenodd" fill="none" d="M449.818,392.663c0.265,4.515-0.242,8.317-1.529,12.02
		c-0.294,0.846-0.54,1.741-0.606,2.629c-0.457,5.938-2.733,11.164-5.926,16.111c-2.514,3.896-5.623,6.953-10.044,8.564
		c-1.204,0.438-2.364,0.996-3.554,1.488c-2.027,0.836-2.898,0.662-3.052-1.225c-0.31-3.859-3.138-6.313-5.374-8.553
		c-3.199-3.207-4.867-6.92-6.097-10.929c-0.984-3.204-2.132-6.339-3.224-9.499c-1.643-4.758-1.464-5.452,2.377-8.584
		c3.789-3.092,7.713-6.023,11.467-9.154c4.6-3.835,9.045-7.853,13.217-12.155c2.811-2.9,3.397-2.931,5.824,0.454
		c1.484,2.076,3.867,3.506,4.523,6.17C448.892,384.366,450.519,388.644,449.818,392.663z"/>
	<path fill-rule="evenodd" clip-rule="evenodd" fill="none" d="M361.902,390.552c1.532,0.469,0.95,2.078,2.034,2.508
		c0.117-0.188,0.354-0.395,0.324-0.557c-0.127-0.757-0.113-1.666-0.538-2.229c-1.879-2.482-0.859-4.535,0.736-6.576
		c0.795-1.015,1.544-2.064,2.365-3.055c1.994-2.402,2.928-2.438,5.86-0.998c8.322,4.086,15.66,9.743,23.455,14.665
		c5.09,3.212,5.826,5.979,3.955,11.812c-0.822,2.574-1.697,5.166-2.868,7.595c-2.963,6.144-5.249,12.602-8.646,18.543
		c-1.794,3.139-1.791,3.142-5.063,2.167c-0.369-0.111-0.739-0.339-1.107-0.332c-6.393,0.129-10.304-4.082-14.107-8.267
		c-2.604-2.865-4.166-6.497-5.861-9.935C358.395,407.672,359.272,399.217,361.902,390.552z M365.241,406.484
		c-1.092,0.395-1.506,0.942-1.503,1.783c0.001,0.872,0.444,1.532,1.303,1.427c1.22-0.15,0.658-0.975,0.439-1.658
		C365.342,407.595,365.333,407.11,365.241,406.484z"/>
	<path fill-rule="evenodd" clip-rule="evenodd" fill="none" d="M405.471,378.019c-0.325-4.641-0.267-9.273,0.329-13.888
		c0.477-3.708,3.018-6.005,6.705-6.029c2.188-0.017,4.377,0.153,6.566,0.218c6.582,0.192,11.64,3.545,16.316,7.762
		c1.184,1.068,1.369,2.07,0.397,3.33c-0.552,0.717-1.154,1.329-1.894,1.885c-1.957,1.475-3.743,3.121-4.676,5.524
		c-0.313,0.808-0.909,1.579-1.553,2.175c-5.003,4.633-10.176,9.064-15.676,13.11c-1.355,0.999-2.992,2.587-4.377,1.815
		c-1.781-0.996-2.232-3.271-2.168-5.477C405.541,384.972,405.468,381.496,405.471,378.019z"/>
	<path fill-rule="evenodd" clip-rule="evenodd" fill="none" d="M407.022,403.931c1.768,0.896,2.507,2.652,3.132,4.428
		c1.278,3.633,2.878,7.222,3.565,10.973c0.621,3.381,2.666,5.696,4.442,8.268c1.341,1.941,2.27,4.015,2.88,6.27
		c0.427,1.58-0.006,2.543-1.764,2.557c-3.869,0.029-7.698,0.328-11.492,1.201c-1.824,0.421-2.526-0.736-2.477-2.482
		c0.101-3.598,0.199-7.195,0.224-10.795c0.045-6.307,0.011-12.616,0.819-18.892C406.417,404.972,406.321,404.434,407.022,403.931z"
		/>
	<path fill-rule="evenodd" clip-rule="evenodd" fill="none" d="M403.017,404.429c0.536,0.823,0.781,1.024,0.771,1.213
		c-0.416,9.137-0.2,18.313-1.678,27.383c-0.123,0.762-0.281,1.529-0.529,2.259c-0.47,1.384-1.502,2.034-2.953,2.022
		c-0.257-0.002-0.515-0.033-0.769-0.071c-6.687-1.011-6.692-0.367-4.432-7.485c1.753-5.519,4.104-10.787,5.899-16.276
		C400.28,410.565,401.63,407.783,403.017,404.429z"/>
	<path fill-rule="evenodd" clip-rule="evenodd" fill="none" d="M394.451,374.721c-3.517,0.173-6.812,0.224-9.331-2.616
		c-0.24-0.271-0.628-0.507-0.98-0.563c-4.458-0.718-6.939-4.293-9.828-7.097c-1.664-1.619-3.229-3.157-5.296-4.264
		c-3.155-1.69-3.203-2.616-1.09-5.653c4.267-6.133,10.376-9.475,17.31-11.529c3.536-1.047,5.098-0.255,5.918,3.373
		c1.076,4.762,1.877,9.601,2.505,14.442c0.331,2.543,0.433,5.126,0.757,7.685C394.673,370.528,394.796,372.579,394.451,374.721z"/>
	<path fill-rule="evenodd" clip-rule="evenodd" fill="none" d="M226.528,193.106c2.346-1.962,5.213-1.45,7.795-1.221
		c5.402,0.479,10.512,2.429,15.273,4.877c2.117,1.088,4.152,2.401,6.396,3.298c3.443,1.377,4.594,4.764,6.295,7.55
		c1.248,2.048,1.852,4.504,2.658,6.806c1.334,3.805-0.051,6.616-3.453,8.689c-2.194,1.337-4.518,1.738-6.878,2.219
		c-3.118,0.635-5.841,1.839-7.915,4.396c-0.879,1.081-2.069,1.926-3.189,2.786c-1.409,1.082-2.734,1.185-4.612,0.514
		c-5.498-1.97-11.217-2.91-17.099-1.851c-0.49,0.089-1.085-0.147-1.446,0.327c-2.54,3.336-7.297,4.638-8.471,9.24
		c-0.13,0.511-0.551,0.858-1.217,0.748c-0.881-1.05-0.112-1.839,0.492-2.667c0.609-0.833,1.315-1.621,1.775-2.531
		c0.969-1.917,0.536-3.373-1.02-4.799c-4.34-3.977-7.292-8.998-9.305-14.371c-1.602-4.274,0.394-8.594,1.786-12.739
		c0.288-0.857,0.967-1.141,1.854-0.833c1.927,0.668,3.298-0.326,4.371-1.686c2.436-3.088,6.047-4.69,9.027-7.068
		c1.708-1.363,4.61-1.228,6.974-1.766c-0.763,1.01-0.734,1.97,0.424,2.577c2.085,1.092,1.392,2.056-0.031,3.054
		c-0.525,0.368-1.113,0.664-1.585,1.089c-1.541,1.386-1.385,3.281-1.196,5.035c0.171,1.586,1.659,1.737,2.948,1.967
		c0.739,0.131,1.562,0.08,2.136,0.769c0,0.231,0.081,0.521-0.014,0.732c-0.692,1.557-1.393,3.11-3.567,2.838
		c-2.261-0.285-2.456-1.935-2.479-3.69c-0.023-1.783-0.428-3.226-2.315-4.033c-1.777-0.761-1.358-1.849-0.102-2.9
		c0.887-0.741,1.685-1.575,2.779-2.049c0.632-0.274,1.03-0.827,0.829-1.546c-0.254-0.905-0.981-1.119-1.823-0.977
		c-0.5,0.086-1.168,0.096-1.443,0.415c-1.59,1.836-3.628,3.297-4.8,5.475c-0.612,1.138-0.447,2.752,0.666,3.042
		c2.539,0.662,2.76,2.349,3.05,4.456c0.208,1.511,1.212,2.831,2.888,3.327c1.474,0.436,2.936,0.913,4.417,1.327
		c1.612,0.45,2.633-0.066,3.308-1.714c1.064-2.604,2.299-5.053,4.535-7.038c2.065-1.833,1.564-4.485-0.807-6.138
		c-0.889-0.62-1.376-1.457-2.04-2.215C230.833,195.041,229.393,192.903,226.528,193.106z M209.002,210.111
		c-0.24-0.283-0.429-0.651-0.73-0.834c-0.97-0.586-2.041-1.475-3.153-0.872c-1.318,0.713-0.27,1.728,0.038,2.635
		c0.095,0.284-0.057,0.78-0.272,1.018c-0.889,0.979-1.117,2.04-0.334,3.112c0.668,0.916,1.462,1.756,2.294,2.53
		c0.506,0.471,1.222,0.387,1.771-0.018c0.573-0.424,0.785-1.081,0.299-1.658c-1.119-1.324-0.556-2.55-0.052-3.901
		c0.246-0.657,0.013-1.493-0.003-2.248c3.346,1.765,5.32,1.252,6.906-1.786c0.489-0.936,0.965-1.928,0.041-2.807
		c-0.954-0.91-1.879-0.446-2.657,0.366c-0.439,0.458-0.82,0.846-1.536,0.984C208.959,207.144,208.968,207.192,209.002,210.111z
		 M233.513,225.998c0.366-1.027,0.495-1.516,0.709-1.964c1.127-2.36,2.17-4.794,5.642-3.71c0.642,0.201,1.582-0.067,1.921-0.94
		c0.404-1.03-0.319-1.616-0.897-2.333c-1.839-2.279-4.742-4.284-2.333-7.864c0.125-0.186-0.106-0.767-0.337-1.004
		c-0.397-0.411-0.902-0.285-1.398-0.022c-1.656,0.874-2.084,2.359-2.466,4.081c-0.354,1.593,0.144,2.338,1.386,3.135
		c1.34,0.858,1,1.654-0.179,2.673c-2.168,1.874-3.57,4.373-4.495,7.074c-0.671,1.958-0.24,2.609,1.692,2.991
		c1.638,0.323,3.285,0.606,4.932,0.884c0.88,0.149,1.758,0.477,2.667,0.165c0.604-0.207,1.354-0.4,1.389-1.128
		c0.043-0.875-0.769-0.827-1.384-0.925C238.214,226.766,236.07,226.414,233.513,225.998z M225.338,228.201
		c2.003,0.163,3.176-0.718,3.629-3.163c0.424-2.281,0.697-4.512,2.615-6.165c0.563-0.485,0.676-1.371,0.491-2.166
		c-0.229-0.984-1.177-1.388-1.669-0.763c-1.378,1.749-3.652,2.805-4.015,5.375c-0.459,3.257-0.543,3.234-3.648,3.448
		c-1.149,0.079-2.299,0.188-3.439,0.349c-2.252,0.317-3.207,1.92-3.704,3.905c-0.197,0.786-0.123,1.594,0.774,1.911
		c0.935,0.331,1.509-0.274,1.675-1.08c0.378-1.837,1.726-1.961,3.202-2.068C222.677,227.681,224.063,227.783,225.338,228.201z
		 M255.892,205.198c-0.044-1.07-0.816-0.758-1.379-0.665c-1.394,0.231-2.062-0.418-2.65-1.642c-1.463-3.04-4.738-4.667-7.832-3.571
		c-1.535,0.542-2.428,0.254-3.425-0.68c-0.657-0.615-1.279-1.268-1.953-1.861c-0.405-0.357-0.907-0.496-1.38-0.102
		c-0.475,0.397-0.385,0.92-0.19,1.415c0.678,1.716,2.232,2.831,3.108,4.366c1.094,1.917,2.224,1.736,3.758,0.702
		c2.407-1.626,3.453-1.43,5.311,0.851C251.976,207.344,252.104,207.366,255.892,205.198z M209.453,223.548
		c2.063,2.226,3.409,2.411,5.363,0.748c2.007-1.708,2.131-3.109,0.456-5.144c-1.396-1.698-1.358-2.147,0.362-3.172
		c0.432-0.257,0.968-0.333,1.426-0.553c0.832-0.4,0.977-1.127,0.771-1.939c-0.224-0.881-0.515-1.718-1.566-1.982
		c-0.92-0.232-1.481,0.162-1.827,0.948c-0.439,1-1.446,1.421-2.124,2.165c-2.216,2.428-2.111,3.98,0.278,6.267
		c0.277,0.265,0.402,0.645,0.321,0.763C211.929,223.024,210.155,222.219,209.453,223.548z M244.104,224.955
		c1.46,0.18,2.994,0.098,3.884-1.127c1.419-1.955,3.254-2.124,5.394-1.979c1.855,0.125,3.512-0.632,4.947-1.798
		c0.646-0.525,0.969-1.267,0.521-2.039c-0.529-0.914-1.263-0.655-1.904-0.082c-2.158,1.929-4.475,2.28-7.058,0.868
		c-1.065-0.582-2.234-0.354-2.491,0.839c-0.574,2.682-2.334,3.057-4.598,2.859c-0.766-0.066-1.67-0.039-1.744,0.995
		c-0.068,0.955,0.695,1.252,1.516,1.34C243.081,224.887,243.594,224.916,244.104,224.955z M258.847,208.35
		c-0.902,0.008-1.941-0.102-2.539,0.642c-1.667,2.074-3.231,4.231-4.795,6.386c-0.297,0.409-0.371,0.96,0.026,1.415
		c0.429,0.49,1.116,0.401,1.361,0.056c1.472-2.067,3.321-1.623,5.424-1.267c2.183,0.369,3.417-1.179,3.41-3.612
		C261.728,209.362,260.971,208.413,258.847,208.35z M249.755,208.508c-0.031-1.27-0.59-2.297-1.782-2.72
		c-1.408-0.501-1.263,0.822-1.559,1.574c-0.329,0.834-1.117,1.006-1.831,1.271c-1.954,0.729-2.436,2.553-3.084,4.212
		c-0.355,0.913-0.175,1.853,0.847,2.267c1.052,0.428,1.844-0.076,2.004-1.131c0.329-2.162,1.569-3.052,3.667-3.233
		C249.196,210.646,249.679,209.661,249.755,208.508z M219.975,222.458c1.462-0.865,2.279-1.882,3.601-2.116
		c1.568-0.278,2.026-1.512,1.774-2.863c-0.235-1.257-0.906-2.497-2.307-2.737c-1.455-0.25-1.424,1.059-1.7,2.013
		c-0.093,0.326-0.398,0.708-0.703,0.838C217.904,218.752,218.862,220.424,219.975,222.458z"/>
	<path fill-rule="evenodd" clip-rule="evenodd" d="M365.241,406.484c0.092,0.626,0.101,1.11,0.239,1.552
		c0.219,0.684,0.78,1.508-0.439,1.658c-0.858,0.105-1.302-0.555-1.303-1.427C363.735,407.427,364.149,406.879,365.241,406.484z"/>
	<path fill-rule="evenodd" clip-rule="evenodd" d="M226.528,193.106c2.865-0.204,4.305,1.934,5.872,3.723
		c0.664,0.758,1.151,1.595,2.04,2.215c2.371,1.653,2.872,4.306,0.807,6.138c-2.236,1.985-3.471,4.435-4.535,7.038
		c-0.675,1.647-1.696,2.164-3.308,1.714c-1.481-0.414-2.943-0.891-4.417-1.327c-1.676-0.496-2.681-1.815-2.888-3.327
		c-0.29-2.107-0.511-3.794-3.05-4.456c-1.113-0.29-1.278-1.904-0.666-3.042c1.171-2.178,3.209-3.639,4.8-5.475
		c0.275-0.319,0.944-0.329,1.443-0.415c0.842-0.143,1.569,0.071,1.823,0.977c0.201,0.72-0.196,1.272-0.829,1.546
		c-1.094,0.474-1.892,1.308-2.779,2.049c-1.256,1.051-1.675,2.14,0.102,2.9c1.887,0.807,2.292,2.25,2.315,4.033
		c0.023,1.755,0.219,3.405,2.479,3.69c2.174,0.272,2.875-1.281,3.567-2.838c0.094-0.211,0.014-0.5,0.014-0.732
		c-0.575-0.689-1.397-0.638-2.136-0.769c-1.29-0.23-2.777-0.381-2.948-1.967c-0.189-1.754-0.345-3.649,1.196-5.035
		c0.472-0.425,1.06-0.721,1.585-1.089c1.423-0.998,2.116-1.962,0.031-3.054c-1.159-0.607-1.187-1.567-0.424-2.577
		C226.623,193.026,226.528,193.106,226.528,193.106z M233.77,202.565c-0.393-1.198-1.036-1.417-1.658-1.504
		c-0.997-0.139-1.196-1.955-2.53-1.21c-1.026,0.571-1.869,1.375-2.418,2.439c-0.237,0.459-0.457,0.937-0.179,1.458
		c0.365,0.687,1.048,0.824,1.659,0.633C230.321,203.857,231.961,203.215,233.77,202.565z"/>
	<path fill-rule="evenodd" clip-rule="evenodd" d="M233.513,225.998c2.557,0.416,4.701,0.768,6.848,1.111
		c0.615,0.099,1.427,0.05,1.384,0.925c-0.035,0.728-0.785,0.921-1.389,1.128c-0.909,0.312-1.786-0.016-2.667-0.165
		c-1.647-0.278-3.294-0.561-4.932-0.884c-1.932-0.381-2.364-1.033-1.692-2.991c0.925-2.702,2.327-5.201,4.495-7.074
		c1.18-1.02,1.519-1.815,0.179-2.673c-1.243-0.797-1.74-1.542-1.386-3.135c0.382-1.722,0.811-3.207,2.466-4.081
		c0.496-0.262,1.001-0.388,1.398,0.022c0.231,0.237,0.463,0.818,0.337,1.004c-2.409,3.58,0.494,5.585,2.333,7.864
		c0.578,0.718,1.302,1.303,0.897,2.333c-0.34,0.873-1.279,1.142-1.921,0.94c-3.472-1.084-4.515,1.35-5.642,3.71
		C234.008,224.482,233.879,224.971,233.513,225.998z"/>
	<path fill-rule="evenodd" clip-rule="evenodd" d="M225.338,228.201c-1.275-0.418-2.661-0.52-4.089-0.417
		c-1.476,0.107-2.823,0.231-3.202,2.068c-0.166,0.805-0.74,1.41-1.675,1.08c-0.897-0.317-0.971-1.125-0.774-1.911
		c0.497-1.985,1.451-3.588,3.704-3.905c1.14-0.161,2.291-0.27,3.439-0.349c3.104-0.213,3.188-0.19,3.648-3.448
		c0.362-2.57,2.637-3.626,4.015-5.375c0.492-0.625,1.44-0.221,1.669,0.763c0.185,0.795,0.072,1.681-0.491,2.166
		c-1.918,1.652-2.191,3.883-2.615,6.165C228.514,227.483,227.341,228.364,225.338,228.201z"/>
	<path fill-rule="evenodd" clip-rule="evenodd" d="M255.892,205.198c-3.788,2.168-3.916,2.146-6.633-1.187
		c-1.857-2.281-2.903-2.477-5.311-0.851c-1.534,1.034-2.664,1.215-3.758-0.702c-0.876-1.535-2.43-2.65-3.108-4.366
		c-0.195-0.494-0.285-1.017,0.19-1.415c0.473-0.395,0.975-0.255,1.38,0.102c0.674,0.594,1.296,1.247,1.953,1.861
		c0.997,0.934,1.89,1.222,3.425,0.68c3.094-1.096,6.369,0.531,7.832,3.571c0.589,1.224,1.257,1.873,2.65,1.642
		C255.075,204.439,255.848,204.127,255.892,205.198z"/>
	<path fill-rule="evenodd" clip-rule="evenodd" d="M209.453,223.548c0.702-1.329,2.477-0.524,3.461-1.901
		c0.081-0.118-0.044-0.498-0.321-0.763c-2.389-2.286-2.494-3.838-0.278-6.267c0.678-0.743,1.685-1.164,2.124-2.165
		c0.345-0.787,0.906-1.181,1.827-0.948c1.051,0.265,1.342,1.102,1.566,1.982c0.206,0.812,0.06,1.539-0.771,1.939
		c-0.458,0.221-0.994,0.296-1.426,0.553c-1.721,1.025-1.759,1.474-0.362,3.172c1.675,2.035,1.551,3.437-0.456,5.144
		C212.862,225.958,211.516,225.774,209.453,223.548z"/>
	<path fill-rule="evenodd" clip-rule="evenodd" d="M244.104,224.956c-0.511-0.04-1.023-0.069-1.533-0.124
		c-0.82-0.088-1.584-0.386-1.516-1.34c0.074-1.034,0.979-1.061,1.744-0.995c2.264,0.198,4.023-0.177,4.598-2.859
		c0.257-1.193,1.426-1.421,2.491-0.839c2.583,1.412,4.899,1.061,7.058-0.868c0.642-0.574,1.375-0.833,1.904,0.082
		c0.447,0.771,0.125,1.513-0.521,2.039c-1.436,1.167-3.092,1.923-4.947,1.798c-2.14-0.146-3.975,0.024-5.394,1.979
		C247.099,225.052,245.564,225.134,244.104,224.956z"/>
	<path fill-rule="evenodd" clip-rule="evenodd" d="M258.847,208.349c2.124,0.064,2.881,1.014,2.888,3.621
		c0.007,2.433-1.228,3.981-3.41,3.612c-2.103-0.355-3.952-0.8-5.424,1.267c-0.245,0.345-0.933,0.434-1.361-0.056
		c-0.397-0.455-0.323-1.006-0.026-1.415c1.563-2.154,3.128-4.312,4.795-6.386C256.905,208.248,257.944,208.358,258.847,208.349z
		 M258.906,212.026c0.011-0.568-0.152-1.034-0.815-1.038c-0.527-0.003-1.078,0.119-1.118,0.779c-0.034,0.57,0.319,0.981,0.88,1.074
		C258.438,212.938,258.813,212.636,258.906,212.026z"/>
	<path fill-rule="evenodd" clip-rule="evenodd" d="M208.858,209.875c0.017,0.755,0.25,1.591,0.003,2.248
		c-0.504,1.351-1.067,2.577,0.052,3.901c0.486,0.577,0.274,1.233-0.299,1.658c-0.548,0.405-1.264,0.489-1.771,0.018
		c-0.832-0.773-1.626-1.614-2.294-2.53c-0.783-1.072-0.554-2.132,0.334-3.112c0.216-0.237,0.368-0.734,0.272-1.018
		c-0.307-0.908-1.355-1.922-0.038-2.635c1.112-0.603,2.184,0.286,3.153,0.872c0.301,0.184,0.49,0.551,0.73,0.834
		C209.002,210.11,208.858,209.875,208.858,209.875z"/>
	<path fill-rule="evenodd" clip-rule="evenodd" d="M249.755,208.508c-0.076,1.153-0.559,2.138-1.738,2.24
		c-2.098,0.181-3.338,1.072-3.667,3.233c-0.16,1.056-0.952,1.559-2.004,1.131c-1.021-0.415-1.202-1.354-0.847-2.267
		c0.648-1.659,1.13-3.483,3.084-4.212c0.714-0.265,1.502-0.437,1.831-1.271c0.296-0.752,0.15-2.076,1.559-1.574
		C249.165,206.211,249.724,207.238,249.755,208.508z"/>
	<path fill-rule="evenodd" clip-rule="evenodd" d="M208.858,209.875c0,0,0.144,0.235,0.144,0.236
		c-0.035-2.919-0.043-2.967,2.61-3.479c0.716-0.138,1.096-0.526,1.536-0.984c0.778-0.813,1.704-1.276,2.657-0.366
		c0.924,0.879,0.448,1.871-0.041,2.807C214.179,211.127,212.204,211.64,208.858,209.875z"/>
	<path fill-rule="evenodd" clip-rule="evenodd" d="M219.975,222.458c-1.113-2.034-2.071-3.706,0.665-4.864
		c0.305-0.13,0.61-0.512,0.703-0.838c0.276-0.955,0.246-2.263,1.7-2.013c1.401,0.24,2.072,1.48,2.307,2.737
		c0.252,1.352-0.206,2.585-1.774,2.863C222.254,220.576,221.438,221.593,219.975,222.458z"/>
	<path fill-rule="evenodd" clip-rule="evenodd" fill="none" d="M233.77,202.565c-1.809,0.65-3.449,1.292-5.126,1.816
		c-0.611,0.191-1.294,0.054-1.659-0.633c-0.278-0.521-0.058-0.999,0.179-1.458c0.549-1.064,1.392-1.869,2.418-2.439
		c1.334-0.744,1.533,1.072,2.53,1.21C232.734,201.148,233.377,201.367,233.77,202.565z"/>
	<path fill-rule="evenodd" clip-rule="evenodd" fill="none" d="M258.906,212.026c-0.093,0.61-0.469,0.911-1.054,0.814
		c-0.561-0.093-0.914-0.504-0.88-1.074c0.04-0.66,0.591-0.782,1.118-0.779C258.754,210.993,258.917,211.458,258.906,212.026z"/>
</g>
</svg>
